<svg xmlns="http://www.w3.org/2000/svg" width="912" height="466" fill="none" viewBox="0 0 912 466">
  <path fill="#fff" d="M284.272 4.85c-60.104 2.374-141.698 5.955-192.466 38.433C46.279 72.39 19.673 121.626 8.896 171.76-7.016 245.877-10.9 366.358 79.193 404.541c24.559 10.41 52.481 11.097 79.526 11.596 161.202 2.998 309.583 1.728 470.785 4.747 47.866.895 123.007 5.351 169.912-5.85 32.516-7.745 52.982-22.839 73.365-49.238 25.583-33.186 28.507-74.741 33.498-114.652 5.221-41.722 11.047-87.462-3.154-128.185-16.038-45.99-51.729-87.067-99.804-106.241-24.163-9.64-50.581-13.616-76.832-15.407-36.86-2.519-73.887-.937-110.789.667-53.922 2.31-108.868 7.953-162.644 5.038-56.177-3.06-112.522-4.372-168.762-2.165h-.021Z"/>
  <path fill="#fff" d="M359.537 188.853c-6.181-14.949 8.855-19.529 13.387-32.208 1.065-2.998 1.712-6.142 3.258-8.932 1.545-2.789 4.302-5.246 7.601-5.371 1.817-.083 3.613.583 5.096 1.582 5.722 3.914 6.077 11.992 4.302 18.488-1.775 6.496-5.095 12.825-4.74 19.549.188 3.456 1.357 6.808 1.816 10.243 1.274 9.702-4.406 17.968-15.725 15.594-9.022-1.915-12.05-11.742-15.016-18.925l.021-.02Z"/>
  <path stroke="#000" stroke-linecap="round" stroke-miterlimit="10" stroke-width="2" d="m799.394 412.806-15.433-45.282H748.73l-21.344 45.282m-97.569.125-15.454-47.509H581.22l-21.343 47.509"/>
  <path fill="#996EC5" d="M573.075 235.988h75.496c7.372 0 13.365 5.975 13.365 13.324v125.603c0 7.35-5.993 13.325-13.365 13.325h-85.52c-18.942 0-34.333-15.344-34.333-34.227v-73.826c0-24.4 19.881-44.22 44.357-44.22v.021Z"/>
  <path fill="#938FC1" d="M615.887 177.027c-5.033 21.985-10.066 43.991-15.099 65.977-4.824 21.069-14.974 57.357 4.094 75.303 9.731 9.14 31.952-.541 44.42-1.54 20.424-1.666 37.361 5.475 56.72 9.556 16.916 3.56 33.435 13.054 50.477 15.031 17.646 2.041 34.917-8.369 45.046-22.339 10.129-13.97 14.347-31 17.543-47.718 3.821-19.966 3.111-38.099 3.028-58.107-.042-14.656 3.926-29.896-4.073-43.72-12.196-21.09-67.35-12.95-88.213-13.137-27.922-.25-55.865-.521-83.786-.771-14.682 0-27.317 8.974-30.178 21.444l.021.021Z"/>
  <path fill="#938FC1" d="M766.481 300.757H575.56v58.939h190.921v-58.939Z"/>
  <path fill="#938FC1" d="M766.46 353.992H577.649v34.268H766.46v-34.268Z"/>
  <path fill="#000" d="M635.894 427.026c.814 5.059-2.527 7.599-6.85 9.827-.501.25-1.002.479-1.524.729-9.273 2.186-18.525 4.517-27.797 6.807-5.033 1.25-32.725 10.348-30.887-1.707.584-3.768 4.051-6.454 7.267-8.702 4.01-2.79 8.062-5.559 12.134-8.286 4.991-3.331 10.212-6.829 12.969-12.013 5.659-10.576-.898-23.922 3.279-35.102.626-1.686 1.545-3.331 3.007-4.434 2.005-1.499 4.72-1.749 7.246-1.499 21.198 1.999 18.504 22.589 18.545 36.975 0 6.121 1.629 11.492 2.569 17.426l.042-.021Z"/>
  <path stroke="#996EC5" stroke-miterlimit="10" d="M564.513 353.992h146.166"/>
  <path fill="#7BCAB1" d="M580.364 284.871c-9.69 14.199-7.832 30.043-6.85 46.178.71 11.534-.021 23.068 1.107 34.643 1.002 10.181 2.798 24.338 11.381 31.458 5.555 4.601 13.262 5.934 20.613 6.184a88.354 88.354 0 0 0 20.006-1.645c5.514-1.103 11.236-2.936 14.786-7.099 9.21-10.806 3.634-34.935 2.36-47.51-1.002-9.744-2.172-19.487-3.613-29.168-.898-6.079-3.258-12.284 5.054-13.574 15.935-2.478 34.208.874 50.435.249 10.901-.416 22.784-1.27 32.015-6.412 4.135-2.311 7.748-5.496 10.484-9.889 7.33-11.763 3.738-28.544-6.809-37.454-6.432-5.455-16.185-3.914-24.183-3.206-25.458 2.269-50.56 5.413-75.83 8.994-18.44 2.623-40.514 12.908-50.998 28.272l.042-.021Z"/>
  <path fill="#000" d="M548.662 423.862c-.835 2.29-1.921 4.351-3.467 5.621-7.539 6.183-19.986-2.936-28.235-2.936a352.727 352.727 0 0 1-29.363-6.766c-5.576-1.541-12.718-6.329-8.416-12.637 1.629-2.395 4.511-3.769 7.414-4.331 2.924-.583 5.931-.458 8.896-.499 6.307-.084 12.593-.854 18.859-1.624 20.8-2.582 13.887-21.319 26.251-32.166 3.884-3.415 10.818-4.227 14.117-.292 6.829 8.12 6.6 16.448 3.363 26.108-2.193 6.558-4.407 13.095-6.6 19.653-.856 2.582-1.566 6.475-2.819 9.869Z"/>
  <path fill="#fff" d="M777.549 241.526c-2.422 8.619-5.701 16.468-9.752 22.526-6.119 9.161-14.556 14.865-23.307 17.946-8.729 3.082-17.814 3.685-26.815 3.935-20.612.562-41.705-.874-60.939-11.138-8.312-4.435-25.812-17.759-19.944-28.273 1.587-2.831 4.03-5.142 5.889-7.807 5.305-7.662 5.326-17.426 6.474-26.545a97.485 97.485 0 0 1 4.678-19.903c-9.147 13.262-25.729 21.486-42.332 21.007-6.891-.188-13.678-1.791-20.215-3.852-4.24-1.332-8.521-2.935-11.904-5.725-9.21-7.62-5.91-21.132 4.866-25.629 6.746-2.811 14.326-2.873 21.49-4.455 17.667-3.914 31.409-16.677 45.38-27.732 17.647-13.949 32.976-19.736 55.322-17.134 20.278 2.373 38.008 6.121 53.442 20.049 10.838 9.764 19.568 24.962 21.844 42.576 1.942 15.052.376 33.977-4.177 50.154Z"/>
  <path fill="#7BCAB1" d="M548.641 296.01a435.258 435.258 0 0 0-3.195 5.684c-8.855 16.072-15.58 33.102-22.158 50.112-3.091 7.994-6.182 16.863-3.007 24.816 4.782 11.972 25.415 20.362 37.883 21.673 16.979 1.791 23.975-13.178 28.11-25.961a391.463 391.463 0 0 0 12.718-50.758c4.365-24.275 29.509-15.927 48.701-16.26 19.965-.354 39.93-.916 59.875-1.915 5.889-.292 12.029-.646 17.229-3.477 14.89-8.078 10.442-22.506.835-31.895-13.115-12.804-26.94-15.615-44.295-16.739-19.422-1.249-87.9 4.06-100.138 9.514-14.64 6.517-24.685 21.382-32.579 35.185l.021.021Z"/>
  <path stroke="#000" stroke-miterlimit="10" stroke-width=".5" d="M737.828 175.716c1.587 12.345 2.485 20.34.731 32.665-9.961-5.038-25.666-1.853-32.349 6.829-6.683 8.682-5.555 23.859 3.968 30.792"/>
  <path fill="#FC9" d="M717.278 88.024c-.167-4.746-2.255-9.826-5.931-13.074-2.151-1.916-4.761-2.853-7.142-4.393-2.172-1.395-3.905-3.456-5.973-4.997-1.775-1.332-4.051-2.373-6.265-1.957-2.861.541-3.968.812-5.304 3.31-4.532 8.474-11.612 22.673-8.563 32.395 1.4 4.497 4.428 8.307 8.876 10.223.418.187.835.395 1.065.77.564.874.209 1.832.188 2.79-.021 1.499.355 2.977.48 4.476.272 3.248-.605 6.787-2.756 9.306-1.045 1.229-2.256 2.394-3.676 3.206-.438.25-3.717 1.749-4.093.937 3.842 8.37 12.614 11.701 22.137 12.596 10.567.999 19.088-4.372 26.105-11.305-1.713-.708-3.676-.645-5.472-1.207-3.321-1.041-5.576-4.143-6.432-7.391-2.026-7.579.23-17.218 1.524-24.775.606-3.519 1.337-7.037 1.274-10.577v-.312l-.042-.02Z"/>
  <path fill="#000" d="M686.892 59.106a7.088 7.088 0 0 1 2.527-1.207c2.945-.729 6.119.187 8.604 1.853 1.817 1.207 3.488 2.873 5.66 3.164 1.796.25 3.571-.5 5.367-.77 3.383-.541 7.017.666 9.335 3.081 2.068 2.165 3.196 4.226 5.827 5.705 2.36 1.332 4.156 4.35 4.469 7.078.272 2.374-.626 4.705-1.295 6.995-1.274 4.352-1.838 8.911-3.634 13.075-1.796 4.164-5.22 8.016-9.711 8.64-2.213.312-4.845-.229-6.87-1.103-9.252-3.998-3.363-10.868-6.286-17.822-1.149-2.727-4.303-2.602-6.245-4.746-1.629-1.791-1.315-4.518-.731-6.809.23-.915.502-1.915 0-2.727-.417-.687-1.232-1.04-2.025-1.29-2.674-.917-4.553-2.187-6.182-4.498-.731-1.04-1.316-2.227-1.441-3.476-.188-2 .919-3.894 2.59-5.122l.041-.02Z"/>
  <mask id="a" width="40" height="87" x="676" y="67" maskUnits="userSpaceOnUse" style="mask-type:luminance">
    <path fill="#fff" d="M715.169 88.087c-.125-5.267.752-9.098-3.822-13.137-2.568-2.27-5.743-3.748-8.896-5.205-3.237-1.5-6.829-3.04-10.296-2.124-10.337 2.749-14.305 19.217-15.182 27.92-.209 2.06-.272 4.184.313 6.203.814 2.79 3.299 4.789 5.743 6.288 1.19.728 2.631.937 3.926 1.499.418.187.835.395 1.065.77.188.291.23.625.272.958.898 6.828.229 14.261-2.924 20.548-1.107 2.207-2.569 4.268-3.55 6.538-1.441 3.372-1.692 7.099-1.943 10.743-.062 1.082-.125 2.269.564 3.143 1.379 1.812 4.344.895 6.391-.187 5.242-2.748 10.504-5.496 15.746-8.265 2.945-1.541 8.249-3.748 9.962-6.704 1.691-2.936.209-7.787.021-11.014-.439-8.015-.272-16.051 1.315-23.963.898-4.476 1.379-9.264 1.253-14.032l.042.02Z"/>
  </mask>
  <g mask="url(#a)">
    <path fill="#222" d="M681.087 107.282c3.926 2.54 9.042 3.331 13.595 2.082-1.524 3.102-4.198 5.684-7.435 7.162-1.399.645-2.944 1.083-4.51 1.041"/>
  </g>
  <path fill="#FC9" d="M705.751 85.318c-1.483-.5-3.384.062-5.43 2.394.062 3.581-.105 7.162-.418 10.722 2.715.333 5.618-.541 7.393-2.54 3.07-3.435 1.713-9.494-1.524-10.576h-.021Z"/>
  <path fill="#222" d="M702.681 89.107c.417-.437 1.19-.396 1.67-.042.481.354.71.958.773 1.54.167 1.583-.794 3.228-2.276 3.915"/>
  <path stroke="#000" stroke-miterlimit="10" stroke-width=".5" d="M738.559 208.381c6.182 1.853 14.514 11.097 21.719 9.848"/>
  <path fill="#996EC5" d="M754.306 235.988h75.495c7.372 0 13.366 5.975 13.366 13.324v125.603c0 7.349-5.994 13.325-13.366 13.325H709.948V280.187c0-24.4 19.882-44.22 44.358-44.22v.021Z"/>
  <path stroke="#000" stroke-miterlimit="10" stroke-width=".5" d="M669.956 253.288c-10.004 3.436-42.52 5.143-52.523 8.578-12.009 4.122-24.267 8.994-32.496 18.3-11.799 13.366-9.753 88.295-5.409 106.72"/>
  <path fill="#FC9" d="M690.443 212.982c-.982-.833-2.047-1.603-2.945-2.665-1.733-2.04-3.32-4.33-5.743-5.558-.334-.167-.71-.334-1.107-.271-.584.083-.981.604-1.127 1.145-.418 1.52 1.044 2.894 1.796 3.997.918 1.333 1.482 2.54 1.628 4.039.063.625-.522 1.104-1.148.937-3.3-.833-6.537-1.499-9.189-3.643-2.673-2.145-5.2-4.518-8.354-6.017-.543-.25-1.127-.5-1.733-.458-.752.042-1.399.5-1.921.999-2.945 2.79-3.216 7.433-1.608 11.055 1.858 4.164 6.515 7.766 10.379 10.285 4.678 3.061 10.275 4.851 15.955 4.997 2.339.062 4.678-.146 7.017-.125 4.929.041 9.816 1.103 14.744 1.311 1.525.063 3.571.229 4.156-1.394 1.462-4.164 2.423-8.786.731-12.867-.23-.541-.522-1.103-1.065-1.395-.334-.166-.71-.229-1.086-.27-4.929-.667-10.337.458-15.454.208-.355 0-.752-.042-1.023-.25-.272-.208-.397-.541-.502-.854-.543-1.436-1.42-2.373-2.401-3.206Z"/>
  <path fill="#fff" d="M604.923 204.134c5.2-4.455 7.832-11.409 7.205-18.071-.627-6.767-4.511-13.137-10.108-17.322-7.894-5.892-14.514-9.848-19.902-18.238-7.038-10.951-8.646-24.525-26.314-21.423-19.547 3.435-18.294 19.3-11.486 32.645 5.785 11.326 14.034 21.298 22.22 31.187 6.767 8.182 20.3 18.113 32.266 14.636 2.172-.624 4.135-1.79 5.848-3.206.083-.083.188-.146.271-.229v.021Z"/>
  <path fill="#222" d="M684.324 93.333c.25 2.374-1.003 5.122-2.987 4.456-3.362-1.145-1.566-9.099 1.525-7.183.877.541 1.336 1.582 1.441 2.727h.021Z"/>
  <path stroke="#000" stroke-miterlimit="10" stroke-width=".5" d="m606.218 172.613 1.754 4.997"/>
  <path fill="#FC9" d="M540.684 131.828c.188.042.376.084.564.188.418.208.752.603 1.065.978a82.08 82.08 0 0 1 8.521 12.284 152.047 152.047 0 0 0 11.256-9.14c-1.963-2.207-3.007-5.122-4.239-7.849-5.138-11.409-15.538-21.985-27.379-23.255-2.903-.313-5.555 1.332-8.187 2.082-1.796.52-3.696.749-5.388 1.499-1.691.749-3.237 2.186-3.508 4.184-.459 3.373 2.715 4.726 5.221 5.018 2.59.291 4.365-1.52 6.829-1.582 1.796-.063 3.696.895 4.929 2.456.375.479.71 1.083.668 1.687a1.697 1.697 0 0 1-.585 1.103c-.856.812-2.13.979-3.32.666-2.486-.645-4.135-3.06-6.662-3.726-4.219-1.104 2.004 6.412 2.673 7.286.25.333.501.667.814.937.71.625 1.629.833 2.506 1.041 4.741 1.145 8.479 3.998 13.387 4.081.271 0 .543 0 .814.062h.021Z"/>
  <path stroke="#000" stroke-linecap="round" stroke-miterlimit="10" stroke-width="2" d="m104.983 412.806 15.434-47.509h33.142l21.344 47.509m94.834 0 15.454-47.509h33.122l21.364 47.509"/>
  <path fill="#996EC5" d="M341.974 388.26h-85.52c-7.372 0-13.365-5.975-13.365-13.324V249.333c0-7.349 5.993-13.325 13.365-13.325h75.496c24.476 0 44.357 19.82 44.357 44.221v73.825c0 18.883-15.391 34.227-34.333 34.227v-.021Z"/>
  <path fill="#938FC1" d="M289.117 177.027c5.033 21.985 10.066 43.991 15.099 65.977 4.824 21.069 14.974 57.357-4.093 75.303-9.732 9.14-31.953-.541-44.42-1.54-20.425-1.666-37.362 5.475-56.721 9.556-16.916 3.56-33.435 13.054-50.477 15.031-17.646 2.041-34.917-8.369-45.046-22.339-10.129-13.97-14.347-31-17.543-47.718-3.821-19.966-3.111-38.099-3.028-58.107.042-14.656-3.926-29.896 4.073-43.72 12.196-21.09 67.35-12.95 88.213-13.137 27.922-.25 55.865-.521 83.786-.771 14.682 0 27.317 8.973 30.178 21.444l-.021.021Z"/>
  <path fill="#938FC1" d="M138.523 359.696h190.921v-58.939H138.523v58.939Z"/>
  <path fill="#938FC1" d="M138.544 388.26h190.9v-34.268h-190.9v34.268Z"/>
  <path stroke="#996EC5" stroke-miterlimit="10" d="M319.607 353.992H194.325"/>
  <path fill="#C96" d="M313.822 175.528c.815-.999 1.629-2.019 2.527-2.998.334-.354.669-.729 1.065-.999.585-.396 1.274-.604 1.943-.854 6.035-2.227 11.152-8.952 12.175-14.969.313-1.832.271-3.706.125-5.559-.188-2.186-.543-4.393-1.399-6.454-.543-1.291-1.295-2.56-2.464-3.414-1.17-.854-2.799-1.208-4.114-.625-1.379.604-2.172 2.124-2.172 3.581 0 1.999 1.524 3.352 1.796 5.247.209 1.395-.355 2.852-1.42 3.81-.335.291-.752.541-1.212.52-.334-.021-.647-.208-.898-.437-.689-.645-.919-1.645-.793-2.54.271-1.915 1.942-3.206 2.213-5.163.084-.542-.104-1.27-.668-1.291-.313 0-.585.229-.814.437-.961.937-2.277 1.749-3.133 2.728-.919 1.061-1.211 2.727-1.671 4.018a61.55 61.55 0 0 0-2.464 8.827c-.063.312-.125.646-.292.937-.188.354-.502.625-.815.874-4.699 4.06-10.024 7.787-14.305 12.221-1.713 1.77-5.263 5.413-4.657 8.016.334 1.457 1.587 2.498 2.798 3.435 2.151 1.645 4.824 3.289 7.435 2.54 1.733-.5 2.965-1.957 4.051-3.352.752-2.082 3.592-4.268 5.033-5.996.689-.833 1.358-1.686 2.047-2.54h.083Z"/>
  <path fill="#000" d="M244.049 399.524a13.205 13.205 0 0 0-.459 4.601c.689 8.557 5.868 18.404 10.317 25.712 1.503 2.456 3.195 5.1 2.881 7.932-1.232 11.097-17.834-1.041-20.821-4.31-5.785-6.35-9.585-14.219-13.428-21.693-.46-.896-.94-1.853-.877-2.853.042-.728.355-1.436.689-2.103 3.989-8.452 8.228-16.863 13.136-24.899 1.859-3.04 3.822-6.205 6.975-8.037 3.133-1.832 7.811-1.79 9.983 1.041 2.004 2.603 1.169 6.246.041 9.307-2.172 5.912-6.87 9.91-8.416 15.302h-.021Zm123.988-60.085a13.006 13.006 0 0 0 4.135 2.186c8.312 2.665 19.673 1.791 28.339.604 2.924-.396 6.099-.916 8.626.458 9.899 5.371-8.27 15.614-12.573 17.051-8.311 2.748-17.25 3.144-25.854 3.747-1.023.063-2.109.125-3.028-.291-.668-.312-1.19-.874-1.692-1.416-6.307-6.829-12.446-13.866-17.981-21.36-2.088-2.832-4.239-5.83-4.678-9.348-.438-3.519 1.504-7.704 5.054-8.578 3.258-.791 6.349 1.353 8.751 3.539 4.657 4.227 6.474 9.994 10.922 13.45l-.021-.042Z"/>
  <path fill="#4AB0BA" d="M226.799 220.352c-9.272-2.352-21.113-4.976-27.859-11.888-3.696-3.789-5.952-8.536-9.606-12.283-2.527-2.602-5.305-4.997-7.936-7.516a76.49 76.49 0 0 1-3.425-3.477c-4.114-4.538-7.435-10.18-7.164-16.176.105-2.103.627-4.185 1.379-6.184 1.002-2.748 2.485-5.454 4.908-7.224 2.547-1.853 5.91-2.436 9.084-2.124 3.174.313 6.203 1.437 9.085 2.749 9.919 4.538 18.544 11.346 26.125 18.945 5.326 5.33 11.382 10.056 18.107 13.699 3.696 2.02 5.993 3.56 9.961 2.644 3.885-.916 8.27-4.268 11.737-6.141 15.83-8.557 31.576-15.448 46.237-25.754 5.409 6.392 8.562 10.035 13.971 16.427-12.927 10.326-24.288 20.632-38.322 29.542-16.561 10.514-35.899 19.966-56.303 14.761h.021Z"/>
  <path fill="#4AB0BA" d="M157.924 173.509c2.193-5.955 5.576-11.888 8.437-17.572 1.17-2.311 2.736-4.018 4.574-5.871.146-.146.313-.312.522-.333.376-.063.668.271.877.562 3.028 4.247 6.474 8.515 11.382 10.639.919.395 1.921.708 2.903.52 1.169-.229 2.067-1.166 2.527-2.207.459-1.041.584-2.186.689-3.31-.042.5 2.025 1.874 2.422 2.186.836.666 1.316 1.166 1.88 2.061 1.148 1.812 1.984 3.706 2.61 5.746 1.212 4.019 1.608 8.203 2.506 12.284a221.942 221.942 0 0 0 16.791 48.613c6.871 14.282 4.26 24.713-3.133 38.453-3.675 6.829-8.52 12.929-16.352 14.553-6.181 1.27-12.739-.645-17.918-4.122-5.346-3.602-9.356-8.786-12.677-14.178-8.144-13.241-12.258-28.398-12.238-43.762 0-14.907-1.086-29.918 4.198-44.304v.042Z"/>
  <path fill="#fff" d="M287.049 237.07c-28.569-13.408-71.485.646-97.883 10.139-8.311 2.998-18.357 4.997-25.436 10.514-4.574 3.56-7.936 9.223-7.226 14.969.334 2.707 1.545 5.205 2.715 7.662 1.524 3.185 3.112 6.433 5.722 8.806 4.177 3.789 10.233 4.685 15.705 5.517 14.013 2.166 28.151 3.352 42.331 3.852 11.633.395 23.62 1.686 35.19-.25.397-.062.647.437.334.687-3.571 2.852-11.966 21.736-14.285 26.004-2.088 3.851-3.863 7.869-5.471 11.95-6.286 15.885-12.656 32.478-18.107 44.095 13.659 7.329 20.153 8.89 33.832 16.219 14.389-21.299 25.75-40.452 38.114-61.896 5.053-8.745 10.4-18.009 14.744-27.399 3.988-8.64 9.188-18.862 7.455-28.418-3.195-17.593-10.546-34.394-27.755-42.451h.021Z"/>
  <path fill="#fff" d="M209.319 237.591c6.057-.875 12.238-1.229 18.128-1.999 13.156-1.728 25.916-5.621 39.011-7.745 12.593-2.04 28.068-2.831 39.971 2.748 11.361 5.33 21.01 18.238 27.546 28.544 3.53 5.579 6.453 11.513 9.356 17.446l25.249 51.528c.376.791.773 1.603.835 2.478.209 3.539-6.16 6.475-8.625 8.328-5.263 3.914-10.797 7.536-16.101 11.409-7.978-8.724-17.334-16.094-25.207-24.9-3.697-4.123-7.038-8.536-10.379-12.95-6.621-8.765-13.262-17.509-19.882-26.274-3.32-4.372-6.662-8.723-9.941-13.137-2.255-3.019-2.067-3.373-5.471-2.852-1.629.249-3.718 1.186-5.326 1.707-8.207 2.602-15.203 9.035-22.554 13.574-6.6 4.081-15.225-.146-21.97-1.478-6.892-1.353-13.992-.5-21.051-1.124-2.255-.209-4.532-.417-6.641-1.187-4.72-1.728-7.957-5.954-10.943-9.993-2.235-3.04-4.553-6.246-5.033-9.994-.502-3.914 1.148-7.828 3.508-10.992 6.182-8.286 15.705-11.68 25.562-13.075l-.042-.062Z"/>
  <path fill="#4AB0BA" d="M223.792 234.031c-18.357 14.969-41.475 24.546-65.471 27.127a186.043 186.043 0 0 1-6.161-30.521c.063.479 20.738-4.497 22.805-5.122 7.686-2.352 15.204-5.267 22.409-8.765 4.657-2.248 12.008-8.431 15.872-2.623 4.051 6.1 6.996 13.491 10.546 19.924v-.02Z"/>
  <path fill="#C96" d="M80.988 229.013c-5.43-4.143-12.217-6.995-18.253-10.222-5.158-2.769-7.33-8.828-5.952-14.366.71-2.852 2.381-5.454 4.657-7.39 1.086-.937 5.952-4.622 7.038-2.457.439.895-.188 1.894-.584 2.81-1.233 2.874.396 6.538 2.986 8.266.376.25.835.458 1.274.354.334-.063.606-.292.814-.542.585-.728.69-1.748.418-2.623-.543-1.853-2.38-2.915-2.945-4.83-.146-.52-.083-1.27.48-1.374.314-.063.606.146.857.333 1.086.812 2.506 1.437 3.488 2.29 1.065.937 1.587 2.561 2.213 3.748a62.94 62.94 0 0 1 3.697 8.432c.104.312.209.624.417.895.23.312.585.541.92.77 5.241 3.414 11.026 6.412 15.913 10.243 1.963 1.541 5.973 4.664 5.764 7.329-.125 1.478-1.232 2.685-2.297 3.768-3.76 3.789-9.022 5.184-13.575 1.624-2.067-1.603-3.613-3.727-5.513-5.517a21.667 21.667 0 0 0-1.838-1.541h.02Z"/>
  <path fill="#4AB0BA" d="M139.317 168.616c4.155-5.392 9.773-9.618 16.519-12.492 3.675-1.561 7.497-2.998 11.507-3.206 5.931-.312 15.015 2.499 15.015 9.182 0 7.266-1.336 15.448-2.193 22.714-.292 2.581-.167 6.204-1.211 8.598-.856 1.957-2.756 3.477-3.905 5.392-2.694 4.435-3.676 9.66-5.075 14.532-3.467 12.159-9.92 23.776-19.86 32.062-9.941 8.286-23.599 12.887-36.589 10.701-14.849-2.477-28.528-11.242-36.84-23.234 5.222-5.33 6.391-15.24 10.4-20.216 6.872 5.6 18.233 9.327 26.983 11.43 3.362.812 7.038 1.312 10.254.062 7.957-3.123 5.91-16.239 6.161-22.568.271-7.183.564-14.448 2.777-21.319 1.399-4.33 3.446-8.224 6.077-11.638h-.02Z"/>
  <path stroke="#000" stroke-miterlimit="10" stroke-width=".5" d="M199.253 180.462c5.764 12.679 10.38 29.043 18.357 41.306"/>
  <path fill="#000" d="M202.01 257.057h94.061c.961 0 1.65.874 1.399 1.749-.167.624-.752 1.041-1.399 1.041H202.01c-.794 0-1.441-.604-1.441-1.374 0-.792.647-1.416 1.441-1.416Z"/>
  <path fill="#000" d="M218.153 259.847h78.712c.605 0 1.127-.375 1.294-.937l11.988-39.307c.25-.833-.397-1.666-1.295-1.666h-78.711c-.606 0-1.128.375-1.295.937l-11.988 39.307c-.25.833.397 1.666 1.295 1.666Z"/>
  <path fill="#fff" d="M261.529 238.902c0 1.832 1.545 3.311 3.467 3.311 1.921 0 3.467-1.479 3.467-3.311 0-1.832-1.546-3.31-3.467-3.31-1.922 0-3.467 1.478-3.467 3.31Z"/>
  <path stroke="#000" stroke-miterlimit="10" stroke-width=".5" d="M248.122 192.954c.355 1.853.459 3.747.313 5.642"/>
  <path fill="#C96" d="M193.009 139.802c-.376.312-.397 1.707-.501 2.186a60.187 60.187 0 0 0-1.023 11.118c0 1.332.062 2.665.125 3.997-2.84 3.435-9.106 4.018-13.7 2.831-2.966-.77-5.743-2.186-8.166-4.039.167-.957.481-1.915.773-2.852 2.778-8.806 1.775-18.238 2.13-27.419.167-4.559 1.191-8.515 2.339-12.887.418-1.562.23-3.165.689-4.768.564-2.019 1.274-4.06 2.486-5.808 3.257-4.706 10.107-6.558 15.663-4.643 3.675 1.27 8.082 4.58 10.086 7.87 2.611 4.268 1.922 11.325 1.817 16.072 0 .5-.021 1-.041 1.499-.147 3.644-.627 7.329-2.36 10.556-1.128 2.061-2.84 3.872-4.971 5.038-1.107.604-2.318 1.02-3.592 1.166-.376.041-1.462-.125-1.733.104l-.021-.021Z"/>
  <path fill="#000" d="M180.174 93.12c5.474-.085 11.009.455 15.95 2.005 5.433 1.707 10.067 4.75 11.933 8.547.246.498.43 1.095-.062 1.522-.41.355-1.148.455-1.825.498-6.294.469-12.834-.541-18.165-2.83-1.906 1.763-5.453 4.593-9.226 3.882-.922-.171-1.722-.569-2.419-1.01-3.69-2.332-7.996-9.699-2.071-11.931 1.272-.484 2.768-.584 4.244-.64.554-.015 1.107-.043 1.661-.043h-.02Z"/>
  <path fill="#000" d="M161.578 118.978c-.142-4.502 1.525-8.888 4.703-17.823.798-2.24 1.71-4.502 3.106-5.864 1.468-1.431 3.292-1.685 5.016-1.731 2.152-.046 4.347.207 6.327 1.5.513.347 1.026.762 1.383 1.432.94 1.731-.171 3.809-.228 8.011-.043 4.109.869 6.972.242 7.526-.456.392-1.126-.947-1.696-.416-.37.347-.456 1.247-.584 2.655-.128 1.432 0 1.87-.257 2.748-.114.369-.313 1.038-.712 1.385-.812.669-1.767-.508-1.952-.116-.171.347.527 1.316.897 2.424.984 3.025-.484 7.226-1.453 10.02-.898 2.562-1.625 4.64-3.221 5.864-.37.277-1.61 1.177-3.135.739-.285-.093-1.211-.393-3.064-2.863-1.097-1.455-2.223-2.955-3.263-5.495-.413-1.016-1.938-4.825-2.095-9.973l-.014-.023Z"/>
  <path fill="#C96" d="M176.177 120.253c0 2.602 2.401 4.705 5.367 4.705 2.965 0 5.367-2.103 5.367-4.705 0-2.603-2.402-4.705-5.367-4.705-2.966 0-5.367 2.102-5.367 4.705Z"/>
  <path fill="#000" d="M180.667 117.65c1.67.646 2.422 2.853 1.441 4.31Z"/>
  <path stroke="#000" stroke-miterlimit="10" stroke-width=".5" d="M306.492 309.896c-22.346-42.201-17.25-53.922-41.935-53.922-12.3 0-21.218-2.81-33.456-4.205-5.555-.625-11.214-1.291-16.665-.084m-60.543-8.952a79.947 79.947 0 0 0 6.746-29.043c.313-7.745-.522-15.552.606-23.234"/>
  <path fill="#996EC5" d="M195.056 388.26H75.203c-7.372 0-13.366-5.975-13.366-13.324V249.333c0-7.349 5.994-13.325 13.366-13.325h75.495c24.476 0 44.358 19.82 44.358 44.221v108.052-.021Z"/>
  <path stroke="#938FC1" stroke-miterlimit="10" d="M76.268 251.665h66.223c19.443 0 35.231 15.718 35.231 35.122v85.796"/>
  <path stroke="#000" stroke-miterlimit="10" stroke-width=".5" d="M331.156 146.652c11.277 2.29 21.009 8.869 30.658 14.906 18.398 11.513 68.165 42.284 88.109 21.569 4.26-4.434 6.745-10.201 8.207-16.052 2.088-8.411 2.235-17.28.376-25.732-.501-2.27-1.19-4.601-2.798-6.35-1.608-1.749-4.386-2.707-6.558-1.645-1.462.708-2.36 2.144-3.028 3.56-3.571 7.766-1.942 16.864 1.336 24.734 1.65 3.997 3.78 7.911 6.955 10.951 3.174 3.039 7.581 5.142 12.071 4.892 8.374-.458 14.054-8.369 16.936-15.906a65.528 65.528 0 0 0 4.219-19.737c.23-4.122.397-6.662-2.026-10.055-1.796-2.54-4.406.791-4.866 2.581-.543 2.145-.229 4.56.23 6.683.877 4.06 3.133 7.87 6.223 10.785 1.212 1.124 2.548 2.165 4.115 2.789 1.482.583 3.132.75 4.74.646 5.409-.396 10.066-4.039 12.927-8.453 2.861-4.393 4.198-9.514 5.493-14.553 1.295-5.017 2.631-10.139 5.492-14.552m-198.146 27.336c-15.475-4.685-31.451-4.706-45.13 4.288-15.412 10.139-28.883 23.651-45.715 31.563-10.86 5.1-22.262 7.953-32.871 13.553-10.964 5.788-18.023 14.157-23.578 24.858-10.484 20.174-24.226 55.297-53.943 52.007-12.865-1.416-24.059-8.078-31.138-18.488-5.388-7.911-8.25-17.155-10.15-26.44-2.088-10.202-2.82-21.736-9.586-30.292-4.886-6.205-13.7-5.059-17.71 2.082-1.69 3.018-1.962 6.579-2.15 10.014-.125 2.331-.23 4.684-.606 6.995-.188 1.083-.417 2.165-.919 3.165-.5.978-1.253 1.832-2.088 2.581-2.256 2.04-5.367 3.415-8.458 3.061M258.48 298.8a128.057 128.057 0 0 0 10.839-8.058"/>
  <path fill="#fff" d="M195.097 124.895a5.597 5.597 0 0 0 1.546 2.374c.773.687 1.817 1.207 2.861.999 1.504-.291 2.339-1.936 2.297-3.393"/>
  <path fill="#000" d="M186.827 138.282c.898.875 1.525 1.895 2.548 2.686.501.375 1.024.708 1.587 1.02.418.229 1.17.354 1.441.75.147-.146.188-.354.23-.542a9.208 9.208 0 0 1 1.044-2.623c-1.127.5-2.067-.062-3.174-.333-.647-.167-1.316-.333-1.963-.5-.376-.104-1.42-.166-1.692-.437l-.021-.021Z"/>
  <path fill="#4AB0BA" d="M404.709 325.615c-4.908-6.725-9.147-13.907-12.05-21.652-8.813-23.36 1.859-50.321 7.33-73.409-.522 2.186 13.596 16.218 15.58 18.55 8.646 10.076 14.994 23.422 18.649 35.892 3.195 10.931 3.362 21.757.188 32.687-3.153 10.847-8.082 21.36-7.518 32.874-.188-3.79-15.893-16.822-18.733-20.403-1.17-1.499-2.339-2.998-3.446-4.539Zm66.327-51.466c6.287-5.767 14.222-9.93 24.205-11.617 10.379-1.749 21.03-.957 31.535-.145-3.634 6.204-7.331 12.803-9.419 19.611-2.485 8.057-7.205 14.636-14.389 19.675-7.121 4.996-15.663 7.953-24.372 9.452-5.429.937-11.152.937-16.018 3.497-3.947 2.061-7.998 4.539-11.862 6.829.731-.437 1.149-10.285 1.483-11.742 3.237-13.637 9.022-26.566 18.837-35.56Zm10.15 67.289a66.61 66.61 0 0 1 11.361.062c7.226.646 14.368 1.999 21.615 2.332.564 6.058-2.36 12.158-7.017 16.322-4.637 4.164-10.818 6.538-17.104 7.516-6.683 1.02-13.429-.396-19.986.625-1.713.27-21.448 1.499-21.239 2.436-1.525-6.704 1.316-13.887 6.307-18.821 6.724-6.642 16.394-9.681 26.063-10.452v-.02Zm-60.522 13.511c-12.091-13.282-26.627-13.595-48.596-24.712.856 13.241 4.26 26.336 10.003 38.412 3.091 6.474 6.871 12.72 11.904 17.967 9.606 10.014 23.682 15.968 37.904 16.031.71-18.738-.689-36.122-11.215-47.698Z"/>
  <path stroke="#000" stroke-miterlimit="10" stroke-width=".5" d="M410.139 276.544a670.596 670.596 0 0 0 15.809 68.787c7.978 27.898 17.877 56.504 13.408 85.13m45.902-146.86c-23.953 20.799-50.977 51.133-45.506 84.59 1.755 10.701 7.101 20.569 9.523 31.145 2.841 12.513 1.4 25.858-4.051 37.558"/>
  <path stroke="#000" stroke-miterlimit="10" stroke-width=".5" d="M441.402 430.774c4.428-7.641 4.24-16.885 3.321-25.587-.919-8.682-2.444-17.572-.293-26.045 5.305-20.799 27.63-17.655 42.604-27.024m-48.201 77.823c-.668-11.701-6.098-22.61-11.444-33.145-1.524-3.018-3.07-6.037-5.179-8.702-5.931-7.412-15.914-11.263-21.26-19.071"/>
  <path fill="#4AB0BA" d="M442.76 466c20.876 0 37.799-4.083 37.799-9.119s-16.923-9.119-37.799-9.119c-20.877 0-37.8 4.083-37.8 9.119S421.883 466 442.76 466Z"/>
  <path fill="#000" d="M461.033 457.048c0 2.935-8.333 5.309-18.587 5.309s-18.586-2.374-18.586-5.309c0-2.936 8.332-5.309 18.586-5.309 10.254 0 18.587 2.373 18.587 5.309Z"/>
  <path fill="#938FC1" d="M442.76 460.691c-11.424 0-21.239-7.745-23.432-18.446l-5.722-28.044h58.307l-5.722 28.044c-2.193 10.722-12.008 18.446-23.431 18.446Z"/>
  <path fill="#000" d="M473.396 413.389h-61.315v8.391h61.315v-8.391Z"/>
  <path stroke="#000" stroke-miterlimit="10" stroke-width=".5" d="M534.503 109.281c15.078-8.453 47.114-6.537 58.662 6.017 3.885 4.226 7.017 9.514 12.405 11.742 6.015 2.498 13.45.187 17.814-4.518 4.365-4.705 5.952-11.284 5.639-17.551-.104-2.082-.48-4.309-1.984-5.83-1.504-1.519-4.469-1.831-5.722-.103-.647.895-.689 2.061-.606 3.143.439 5.205 3.425 10.181 7.936 13.158 1.504 1 3.237 1.812 5.075 1.853 4.219.104 7.393-3.664 9.168-7.328 2.235-4.622 3.467-9.681 3.55-14.782.042-1.79-.856-4.247-2.694-3.914-4.156 6.745-.772 16.635 6.725 19.758 2.193.916 4.803 1.27 6.954.249 2.068-.978 3.321-3.039 4.24-5.079 1.482-3.29 5.784-23.714-.794-19.238-5.304 3.602-1.9 14.116 3.78 15.511 4.198 1.02 7.915-2.623 10.588-5.892"/>
  <path fill="#FC9" d="M540.684 131.828c.188.042.376.084.564.188.418.208.752.603 1.065.978a82.08 82.08 0 0 1 8.521 12.284 152.047 152.047 0 0 0 11.256-9.14c-1.963-2.207-3.007-5.122-4.239-7.849-5.138-11.409-15.538-21.985-27.379-23.255-2.903-.313-5.555 1.332-8.187 2.082-1.796.52-3.696.749-5.388 1.499-1.691.749-3.237 2.186-3.508 4.184-.459 3.373 2.715 4.726 5.221 5.018 2.59.291 4.365-1.52 6.829-1.582 1.796-.063 3.696.895 4.929 2.456.375.479.71 1.083.668 1.687a1.697 1.697 0 0 1-.585 1.103c-.856.812-2.13.979-3.32.666-2.486-.645-4.135-3.06-6.662-3.726-4.219-1.104 2.004 6.412 2.673 7.286.25.333.501.667.814.937.71.625 1.629.833 2.506 1.041 4.741 1.145 8.479 3.998 13.387 4.081.271 0 .543 0 .814.062h.021Zm-85.791-97.455c-8.667 1.29-15.308 8.432-15.308 17.093 0 8.66 6.641 15.78 15.308 17.092V34.373Zm49.62 32.79c8.667-1.29 15.308-8.432 15.308-17.092 0-8.661-6.641-15.782-15.308-17.093v34.185Z"/>
  <path fill="#4AB0BA" d="M778.635 48.051c-8.666 1.29-15.307 8.432-15.307 17.093 0 8.66 6.641 15.78 15.307 17.093V48.052Z"/>
  <path fill="#8AADBA" d="M315.66 79.759c-1.357-8.286-8.834-14.615-17.876-14.615-9.043 0-16.52 6.35-17.877 14.615h35.753Z"/>
  <path fill="#4AB0BA" d="M257.686 52.881c-8.666 1.291-15.307 8.432-15.307 17.093 0 8.66 6.641 15.781 15.307 17.093V52.882Z"/>
  <path fill="#8AADBA" d="M837.089 118.087c-1.357-8.286-8.833-14.615-17.876-14.615-9.043 0-16.519 6.35-17.877 14.615h35.753ZM497.413 33.144h-35.419v33.853h35.419V33.144ZM315.326 63.333c-1.19-8.245-8.562-14.616-17.521-14.616-8.96 0-16.353 6.371-17.522 14.616h35.064-.021Z"/>
  <path fill="#000" d="M355.152 86.234c1.19 8.244 8.562 14.615 17.521 14.615 8.959 0 16.352-6.37 17.522-14.615h-35.064.021Z"/>
  <path fill="#fff" d="M528.927 190.581h-35.42v33.852h35.42v-33.852Z"/>
  <path fill="#FC9" d="M493.507 190.581h35.44v33.873"/>
  <path fill="#fff" d="M389.965 70.453h-35.44V36.58"/>
  <path fill="#FC9" d="M349.388 21.923h35.44v33.873"/>
  <path fill="#fff" d="M582.348 72.035c6.536-1.145 11.924-5.413 16.999-9.535 6.933-5.642 29.384-18.321 26.815-29.21-2.485-10.555-11.152-3.83-18.42-.229-9.418 4.664-26.877 11.201-34.312 17.926-9.669 8.744-7.268 23.9 8.918 21.048Zm-167.782 74.804c4.532-2.561 7.393-7.599 7.122-12.637-.501-9.848-15.037-12.429-18.67-3.29-3.154 7.912-.147 22.506 11.548 15.906v.021Zm391.281-78.135c2.799-1.582 4.553-4.705 4.407-7.807-.314-6.08-9.294-7.683-11.528-2.04-1.942 4.892-.084 13.907 7.121 9.826v.02Z"/>
  <path stroke="#938FC1" stroke-miterlimit="10" d="M825.102 251.665H758.9c-19.443 0-35.231 15.718-35.231 35.122v85.796"/>
</svg>
