<svg xmlns="http://www.w3.org/2000/svg" width="306" height="263" fill="none" viewBox="0 0 306 263">
  <g clip-path="url(#a)">
    <path fill="#E6E6E6" d="M22.978 241.353a10.873 10.873 0 0 0 10.51-1.855c3.68-3.094 4.834-8.191 5.773-12.911l2.777-13.963-5.814 4.011c-4.182 2.884-8.458 5.86-11.353 10.037-2.896 4.177-4.159 9.88-1.833 14.4"/>
    <path fill="#F2F2F2" d="M23.876 259.229c-.732-5.341-1.485-10.75-.97-16.148.456-4.794 1.916-9.476 4.889-13.316a22.125 22.125 0 0 1 5.674-5.15c.567-.358 1.09.542.524.899a21.053 21.053 0 0 0-8.316 10.05c-1.81 4.613-2.102 9.641-1.79 14.541.189 2.963.59 5.906.992 8.847a.537.537 0 0 1-.364.64.522.522 0 0 1-.639-.364v.001Z"/>
    <path fill="#E6E6E6" d="M29.144 250.659a8.01 8.01 0 0 0 6.98 3.61c3.535-.168 6.48-2.638 9.132-4.983l7.843-6.937-5.19-.249c-3.734-.179-7.563-.347-11.119.808-3.556 1.154-6.835 3.928-7.485 7.614"/>
    <path fill="#F2F2F2" d="M21.807 262.299c3.524-6.245 7.61-13.185 14.913-15.403a16.61 16.61 0 0 1 6.272-.648c.666.057.5 1.085-.165 1.028a15.44 15.44 0 0 0-10.01 2.652c-2.822 1.925-5.02 4.6-6.88 7.437-1.14 1.738-2.16 3.549-3.18 5.358-.326.578-1.28.161-.95-.424Z"/>
    <path fill="#fff" d="M303.742 185.212H109.485a2.26 2.26 0 0 1-2.258-2.261V2.261A2.26 2.26 0 0 1 109.485 0h194.257A2.259 2.259 0 0 1 306 2.261V182.95a2.267 2.267 0 0 1-2.258 2.262Z"/>
    <path fill="#CACACA" d="M303.742 185.212H109.485a2.26 2.26 0 0 1-2.258-2.261V2.261A2.26 2.26 0 0 1 109.485 0h194.257A2.259 2.259 0 0 1 306 2.261V182.95a2.267 2.267 0 0 1-2.258 2.262ZM109.485.902a1.355 1.355 0 0 0-1.353 1.356V182.95a1.356 1.356 0 0 0 1.353 1.356h194.257a1.359 1.359 0 0 0 1.354-1.356V2.261a1.36 1.36 0 0 0-1.354-1.355L109.485.903Z"/>
    <path fill="#E4E4E4" d="M201.275 46.953a1.532 1.532 0 0 0-1.53 1.535 1.536 1.536 0 0 0 1.53 1.535h84.111a1.531 1.531 0 0 0 1.53-1.535 1.536 1.536 0 0 0-1.53-1.535h-84.111Zm0 9.212a1.535 1.535 0 0 0 0 3.07h42.94a1.533 1.533 0 0 0 1.529-1.534 1.533 1.533 0 0 0-1.529-1.535h-42.94Zm-73.515 49.543a1.533 1.533 0 0 0-1.529 1.535 1.533 1.533 0 0 0 1.529 1.535h157.707a1.533 1.533 0 0 0 1.53-1.535 1.533 1.533 0 0 0-1.53-1.535H127.76Zm0 9.212a1.537 1.537 0 0 0 0 3.071h116.537a1.533 1.533 0 0 0 1.529-1.535 1.537 1.537 0 0 0-1.529-1.536H127.76Zm0 9.005a1.533 1.533 0 0 0-1.529 1.535 1.533 1.533 0 0 0 1.529 1.535h157.707a1.533 1.533 0 0 0 1.53-1.535 1.533 1.533 0 0 0-1.53-1.535H127.76Zm0 9.212a1.533 1.533 0 0 0-1.529 1.536 1.533 1.533 0 0 0 1.529 1.535h116.537a1.533 1.533 0 0 0 1.529-1.535 1.533 1.533 0 0 0-1.529-1.536H127.76Zm0 9.244a1.533 1.533 0 0 0-1.529 1.536 1.533 1.533 0 0 0 1.529 1.535h157.707a1.533 1.533 0 0 0 1.53-1.535 1.537 1.537 0 0 0-1.53-1.536H127.76Zm0 9.213a1.533 1.533 0 0 0-1.529 1.535 1.536 1.536 0 0 0 1.529 1.535h116.537a1.533 1.533 0 0 0 1.529-1.535 1.533 1.533 0 0 0-1.529-1.535H127.76Z"/>
    <path fill="#996EC5" d="M152.739 75.152a21.995 21.995 0 0 1-12.235-3.717 22.05 22.05 0 0 1-8.112-9.9 22.096 22.096 0 0 1-1.253-12.744 22.07 22.07 0 0 1 6.027-11.294 21.994 21.994 0 0 1 24.001-4.782 22.03 22.03 0 0 1 9.883 8.124 22.083 22.083 0 0 1 3.712 12.255 22.101 22.101 0 0 1-6.458 15.59 22.028 22.028 0 0 1-15.565 6.468Z"/>
    <path fill="#A0616A" d="M85.888 158.555a5.517 5.517 0 0 0-4.335-5.128 5.5 5.5 0 0 0-2.385.013l-7.28-10.275-7.313 2.908 10.483 14.366a5.54 5.54 0 0 0 2.39 3.127 5.525 5.525 0 0 0 7.243-1.26 5.547 5.547 0 0 0 1.197-3.751Z"/>
    <path fill="#3F3D56" d="m71.7 157.794-22.026-28.621 8.254-25.979c.604-6.532 4.685-8.356 4.859-8.43l.264-.114 7.182 19.182-5.273 14.084 12.943 21.802-6.202 8.076Z"/>
    <path fill="#A0616A" d="M148.194 69.567a5.498 5.498 0 0 0-3.942 2.484 5.521 5.521 0 0 0-.629 4.622l-9.666 8.064 3.46 7.078 13.49-11.58a5.538 5.538 0 0 0 2.928-2.628 5.553 5.553 0 0 0 .447-3.913 5.542 5.542 0 0 0-2.261-3.222 5.527 5.527 0 0 0-3.827-.905Z"/>
    <path fill="#3F3D56" d="M148.533 83.793 121.747 108l-26.498-6.233c-6.549-.099-8.68-4.033-8.767-4.2l-.134-.256 18.539-8.655 14.427 4.177 20.702-14.61 8.517 5.569Z"/>
    <path fill="#A0616A" d="m102.136 255.89 7.197-.001 3.423-27.804-10.622.001.002 27.804Z"/>
    <path fill="#2F2E41" d="m123.212 262.582-22.618.001-.001-8.753 16.273-.001c1.683 0 3.297.67 4.488 1.862a6.36 6.36 0 0 1 1.858 4.494v2.397Z"/>
    <path fill="#A0616A" d="m73.37 255.89 7.198-.001 3.424-27.804-10.622.001v27.804Z"/>
    <path fill="#2F2E41" d="m94.448 262.582-22.62.001v-8.753l16.274-.001a6.345 6.345 0 0 1 5.862 3.924c.32.771.484 1.597.484 2.432v2.397Zm-23.637-108.18.587 41.158.588 54.094 12.914-1.176 6.457-74.672 8.22 74.672h13.332l1.343-75.26-4.696-16.464-38.745-2.352Z"/>
    <path fill="#3F3D56" d="M96.089 159.929c-14.052.001-26.987-6.369-27.162-6.456l-.145-.073-1.18-28.345c-.341-1.002-7.075-20.767-8.215-27.049-1.156-6.365 15.59-11.95 17.624-12.604l.462-5.12 18.766-2.025 2.378 6.551 6.732 2.529a3.333 3.333 0 0 1 2.064 3.918l-3.741 15.241 9.138 50.424-1.967.085c-4.716 2.134-9.806 2.924-14.754 2.924Z"/>
    <path fill="#A0616A" d="M94.071 73.356c6.548-3.586 8.954-11.808 5.375-18.366-3.58-6.559-11.79-8.969-18.337-5.384-6.548 3.585-8.954 11.808-5.375 18.366 3.58 6.558 11.79 8.969 18.337 5.384Z"/>
    <path fill="#2F2E41" d="M76.647 74.582c2.575 2.747 7.357 1.272 7.692-2.48a4.534 4.534 0 0 0-.005-.876c-.174-1.663-1.133-3.172-.903-4.928.052-.437.215-.853.472-1.21 2.052-2.751 6.869 1.232 8.805-1.26 1.188-1.527-.208-3.933.703-5.64 1.203-2.254 4.765-1.142 6.999-2.376 2.486-1.373 2.337-5.193.701-7.516-1.996-2.833-5.494-4.345-8.949-4.563-3.455-.218-6.886.717-10.111 1.976-3.665 1.43-7.299 3.408-9.554 6.635-2.743 3.925-3.007 9.202-1.635 13.792.834 2.792 3.682 6.203 5.785 8.446Z"/>
    <path fill="#CACACA" d="M171.688 262.931H.449a.451.451 0 0 1 0-.9h171.239a.45.45 0 1 1 0 .9Z"/>
    <path fill="#fff" d="M151.467 61.425a1.568 1.568 0 0 1-1.07-.42l-7.262-6.756a1.576 1.576 0 0 1 1.013-2.728 1.57 1.57 0 0 1 1.128.419l6.151 5.722 12.17-12.188a1.573 1.573 0 0 1 2.229-.005 1.58 1.58 0 0 1-.005 2.233L152.58 60.964a1.569 1.569 0 0 1-1.113.462Z"/>
  </g>
  <defs>
    <clipPath id="a">
      <path fill="#fff" d="M0 0h306v263H0z"/>
    </clipPath>
  </defs>
</svg>
