<svg xmlns="http://www.w3.org/2000/svg" width="200" height="250" fill="none" viewBox="0 0 244 279">
  <g clip-path="url(#a)">
    <path fill="#F2F2F2" d="m117.093 261.736-.311-7-.097-.051c-3.332-1.75-7.151 1.418-6.086 5.032 1.001 3.399 1.674 7.064 3.507 10.04a13.581 13.581 0 0 0 9.96 6.284l4.234 2.595a22.796 22.796 0 0 0-.376-9.759 22.783 22.783 0 0 0-4.422-8.706 22.016 22.016 0 0 0-4.04-3.758c-1.014 2.676-2.369 5.323-2.369 5.323Z"/>
    <path fill="#E6E6E6" d="M79.192 190.701c-8.15-8.415-19.962-13.241-32.405-13.241l-.48.001a46.224 46.224 0 0 1-23.326-6.306l-.737-.43.594-.612a45.132 45.132 0 0 0 7.953-11.273 13.627 13.627 0 0 1-11.006 3.56 13.962 13.962 0 0 1-10.252-6.574C5.184 148.762 0 138.738 0 131.103a46.506 46.506 0 0 1 3.964-18.74 46.462 46.462 0 0 1 11.178-15.546 28.96 28.96 0 0 0 9.547-21.574l-.002-.579c0-5.353.653-10.685 1.946-15.88l.131-.524.539.02a44.259 44.259 0 0 0 10.362-.87 34.946 34.946 0 0 1-9.293-2.474l-.58-.235.197-.595c13.566-8.409 44.188-4.054 61.962-44.765 14.412-33.01 65.264 29.304 65.264 65.323 0 3.675-3.633 8.532-.914 10.962 29.403 26.26 9.116 43.122 2.719 60.09-1.517 4.026 1.773 8.445 1.773 12.801 0 .739-.019 1.502-.056 2.267l-.056 1.177-.981-.653a32.491 32.491 0 0 1-5.362-4.403 28.346 28.346 0 0 1 2.325 12.33 28.339 28.339 0 0 1-3.223 12.127c-3.081 5.822-6.062 9.99-8.86 12.388a46.228 46.228 0 0 1-63.388-3.049Z"/>
    <path fill="#3F3D56" d="M128.417 278.29a.833.833 0 0 0 .824-.716c.035-.249 3.501-25.27.388-58.525-2.874-30.712-12.105-74.948-39.757-111.278a.82.82 0 0 0-.551-.321.826.826 0 0 0-.617.163.825.825 0 0 0-.32.552.837.837 0 0 0 .163.617c27.413 36.016 36.57 79.927 39.424 110.422 3.094 33.062-.344 57.888-.379 58.135a.83.83 0 0 0 .479.876c.109.05.227.076.346.075Z"/>
    <path fill="#3F3D56" d="M105.851 159.016a.828.828 0 0 0 .793-.575.842.842 0 0 0-.302-.933c-.101-.073-10.217-7.37-25.34-12.913-13.98-5.124-35.239-9.769-57.125-2.796a.841.841 0 0 0-.488.411.84.84 0 0 0 .103.922.854.854 0 0 0 .255.203.842.842 0 0 0 .636.053c21.437-6.83 42.31-2.262 56.046 2.773 14.908 5.464 24.835 12.625 24.933 12.696.142.104.314.16.489.159Zm38.117-95.036a.835.835 0 0 0-1.468-.598c-.08.095-8.078 9.67-14.69 24.372-6.112 13.59-12.271 34.483-6.9 56.838a.834.834 0 0 0 1.62-.39c-5.261-21.897.794-42.41 6.799-55.763 6.517-14.492 14.366-23.888 14.445-23.982a.837.837 0 0 0 .194-.476Z"/>
    <path fill="#2F2E41" d="M142.84 106.969c.703 5.676 4.631 10.355 10.344 10.355 2.743 0 5.374-1.091 7.313-3.033a10.36 10.36 0 0 0 3.03-7.322c0-5.718-4.656-9.825-10.343-10.354-6.036-.561-11.246 3.068-10.344 10.354Z"/>
    <path fill="#FFD9B6" d="m157.973 273.73 3.939-.001 1.874-15.209-5.813.001v15.209Z"/>
    <path fill="#2F2E41" d="M157.835 277.843h12.112v-.154a4.72 4.72 0 0 0-4.714-4.719l-2.213-1.68-4.128 1.68h-1.057v4.873Z"/>
    <path fill="#FFD9B6" d="m142.459 273.73 3.939-.001 1.873-15.209-5.813.001.001 15.209Z"/>
    <path fill="#2F2E41" d="M142.321 277.843h12.112v-.154a4.723 4.723 0 0 0-1.381-3.337 4.711 4.711 0 0 0-3.334-1.382l-2.212-1.68-4.128 1.68h-1.058l.001 4.873Zm29.207-99.372 2.785 9.559-3.281 40.48s1.689 2.531.496 2.531-2.724.561-1.76 2.072c.964 1.512-2.331 6.938-2.331 6.938l-4.661 28.824-5.939-.088s-3.019-1.684-1.325-3.387c1.695-1.703 2.888-1.703 1.297-3.296-1.591-1.593-1.591-1.113-1.591-2.348 0-1.236-1.595-16.335 2.186-22.127l-1.139-23.614-2.683 23.163-5.525 30.9-5.721-.047s-2.643-2.55-2.638-4.437c.005-1.888 1.633-2.045.421-3.161s-1.212-18.266 2.369-27.799c0 0 2.025-5.326-.005-7.152-2.03-1.825-.003-3.913-.003-3.913s3.216-1.163-.002-4.516c-3.218-3.352-.018-27.061-.018-27.061s-3.518-9.57.045-13.333c3.563-3.763 29.023 1.812 29.023 1.812Z"/>
    <path fill="#FFD9B6" d="m121.931 194.939 4.969-12.02 3.914 2.177-2.364 12.227a4.36 4.36 0 0 1-1.167 4.435 4.347 4.347 0 0 1-6.413-.47 4.358 4.358 0 0 1 1.061-6.349Zm83.371-95.051-7.559 10.58-3.32-3.008 5.07-11.373a4.362 4.362 0 0 1 2.14-4.055 4.347 4.347 0 0 1 6.14 1.913 4.362 4.362 0 0 1-.535 4.554 4.353 4.353 0 0 1-1.936 1.389Z"/>
    <path fill="#996EC5" d="M172.278 179.451c4.903 7.614-19.744 17.277-29.201 13.398-1.656-.68-7.353-2.923-3.459-6.034 3.894-3.11-.452-3.548-.554-5.573-.069-1.354.978-4.323-.114-4.196-1.093.127-2.371-1.745.008-2.55 2.379-.806.025-1.541.046-2.305.228-8.346 6.624-21.62 6.624-21.62l-11.525 29.493s.085 5.102-1.385 3.543c-1.47-1.559-1.363 3.488-1.363 3.488s-2.185 1.526-.928 2.376c1.256.85-1.353 3.463-1.353 3.463l-6.09-.436s.096-4.528 1.135-5.53c1.04-1.001.529-2.577.529-2.577s2.707-2.399.893-4.347c-2.334-2.505 6.175-44.815 9.112-44.396a11.2 11.2 0 0 1 7.988-8.543l6.577-1.813 1.168-4.639h9.26l1.613 3.048 7.041 3.181c1.326-1.873 2.317-3.847 7.747-4.487 0 0 14.633-13.328 13.919-14.369-.715-1.04 1.553-3.477 1.553-3.477s1.938-.635.844-.974c-1.093-.338.974-1.122.974-1.122s1.913-.503 1.011-1.166c-.903-.663 3.012-1.098 3.012-1.098l5.078 4.148-1.026 1.743s.626 2.372-.191 1.506c-.817-.866-.971 1.648-.971 1.648s-.417 2.753-2.89 3.582c-2.474.829-4.35 8.708-4.35 8.708-5.834 7.594-12.718 13.518-20.877 17.417 3.18 3.654.145 40.51.145 40.51Z"/>
    <path fill="#FFD9B6" d="M154.326 117.939c5.066 0 9.172-4.111 9.172-9.182 0-5.071-4.106-9.182-9.172-9.182-5.065 0-9.172 4.111-9.172 9.182 0 5.071 4.107 9.182 9.172 9.182Z"/>
    <path fill="#2F2E41" d="M144.829 109.757c.29 1.995 1.989 4.779 1.591 4.779-.398 0-3.226-8.225-.398-8.761 2.052-.389 2.51-.048 4.428-.88l-.271.254c1.269.924 3.036.355 4.484-.246 1.452-.598 3.214-1.167 4.487-.247.8.577 1.138 1.581 1.635 2.433.497.856 1.416 1.665 2.363 1.402.76-.211 1.197-1.064 1.193-1.852-.004-.789-1.029-1.539-.684-2.246 1.024-2.097.103-3.526-2.128-4.512-.812-.124-1.623-.25-2.435-.379a6.902 6.902 0 0 1 1.528-1.537 3.498 3.498 0 0 0-1.233-1.581c-.649-.386-1.452-.359-2.204-.319l-5.033.263c-1.241.064-2.526.14-3.636.71-1.384.712-2.291 2.102-2.951 3.516-1.48 3.178-1.246 5.734-.736 9.203Z"/>
    <path fill="#CACACA" d="m106.675 278.878 90.204.122a.473.473 0 1 0 0-.948l-90.204-.123a.473.473 0 0 0-.335.81.473.473 0 0 0 .335.139Z"/>
    <path fill="#E6E6E6" d="M74.05 237.543c.166-1.145-1.031-2.266-2.674-2.505-1.643-.24-3.11.494-3.276 1.638-.166 1.144 1.03 2.266 2.674 2.505 1.643.239 3.11-.494 3.276-1.638Z"/>
    <path fill="#3F3D56" d="M93.611 235.632c.166-1.144-1.03-2.266-2.674-2.505-1.643-.24-3.11.494-3.276 1.638-.166 1.144 1.031 2.266 2.674 2.505 1.643.239 3.11-.494 3.276-1.638Z"/>
    <path fill="#7BCAB1" d="M68.694 221.689c.166-1.144-1.03-2.266-2.674-2.505-1.643-.239-3.11.494-3.275 1.638-.167 1.145 1.03 2.266 2.673 2.505 1.643.24 3.11-.494 3.276-1.638Z"/>
    <path fill="#E6E6E6" d="M60.194 215.195c.008-1.05-.578-1.906-1.308-1.912-.73-.005-1.328.842-1.336 1.892-.007 1.05.578 1.906 1.308 1.912.73.005 1.328-.842 1.336-1.892Z"/>
    <path fill="#3F3D56" d="M57.31 203.099c.009-1.05-.576-1.906-1.306-1.911-.73-.006-1.328.841-1.336 1.891-.008 1.051.577 1.907 1.307 1.912.73.006 1.328-.841 1.336-1.892Z"/>
    <path fill="#E6E6E6" d="M79.726 224.387c.008-1.051-.577-1.907-1.307-1.912-.73-.006-1.328.841-1.336 1.892-.008 1.05.577 1.906 1.307 1.912.73.005 1.328-.842 1.336-1.892Z"/>
    <path fill="#7BCAB1" d="M70.274 229.112c.008-1.051-.578-1.907-1.308-1.912-.73-.006-1.328.841-1.335 1.892-.008 1.05.577 1.906 1.307 1.912.73.005 1.328-.842 1.336-1.892Z"/>
    <path fill="#3F3D56" d="M83.432 237.844c.008-1.05-.577-1.906-1.307-1.912-.73-.005-1.328.842-1.336 1.892-.008 1.051.577 1.907 1.307 1.912.73.006 1.328-.841 1.336-1.892Z"/>
    <path fill="#E6E6E6" d="M224.424 176.212c.166-1.144-1.031-2.266-2.674-2.505-1.643-.24-3.11.494-3.276 1.638-.166 1.144 1.031 2.266 2.674 2.505 1.643.239 3.109-.494 3.276-1.638Z"/>
    <path fill="#3F3D56" d="M243.984 174.301c.166-1.144-1.031-2.266-2.674-2.505-1.643-.239-3.109.494-3.276 1.638-.166 1.145 1.031 2.266 2.674 2.505 1.643.24 3.11-.494 3.276-1.638Z"/>
    <path fill="#7BCAB1" d="M219.067 160.358c.166-1.144-1.031-2.266-2.674-2.505-1.643-.239-3.109.494-3.275 1.638-.167 1.145 1.03 2.266 2.673 2.506 1.643.239 3.11-.495 3.276-1.639Z"/>
    <path fill="#E6E6E6" d="M210.568 153.864c.008-1.05-.578-1.906-1.307-1.912-.73-.005-1.329.842-1.336 1.892-.008 1.051.577 1.907 1.307 1.912.73.006 1.328-.841 1.336-1.892Z"/>
    <path fill="#3F3D56" d="M207.685 141.769c.008-1.051-.577-1.907-1.307-1.912-.73-.006-1.328.841-1.336 1.892-.008 1.05.577 1.906 1.307 1.912.73.005 1.328-.842 1.336-1.892Z"/>
    <path fill="#E6E6E6" d="M230.1 163.056c.008-1.05-.577-1.906-1.307-1.912-.73-.006-1.328.842-1.336 1.892-.008 1.05.577 1.906 1.307 1.912.73.005 1.328-.842 1.336-1.892Z"/>
    <path fill="#7BCAB1" d="M220.647 167.781c.008-1.051-.577-1.907-1.307-1.912-.73-.006-1.328.841-1.336 1.892-.008 1.05.577 1.906 1.307 1.912.73.005 1.328-.842 1.336-1.892Z"/>
    <path fill="#3F3D56" d="M233.805 176.514c.008-1.051-.577-1.907-1.307-1.912-.73-.006-1.328.841-1.336 1.892-.008 1.05.577 1.906 1.307 1.911.73.006 1.328-.841 1.336-1.891Z"/>
    <path fill="#fff" d="M151.624 62.71c.166-1.144-1.031-2.266-2.674-2.505-1.643-.24-3.11.494-3.276 1.638-.166 1.144 1.031 2.266 2.674 2.505 1.643.24 3.109-.494 3.276-1.638Z"/>
    <path fill="#3F3D56" d="M171.184 60.8c.167-1.145-1.03-2.267-2.673-2.506-1.643-.24-3.11.494-3.276 1.639-.167 1.144 1.03 2.265 2.673 2.505 1.643.239 3.11-.495 3.276-1.639Z"/>
    <path fill="#7BCAB1" d="M146.267 46.856c.167-1.144-1.03-2.266-2.673-2.505-1.643-.24-3.11.494-3.276 1.639-.167 1.144 1.03 2.265 2.673 2.505 1.643.239 3.11-.495 3.276-1.639Z"/>
    <path fill="#E6E6E6" d="M137.767 40.362c.008-1.05-.577-1.906-1.307-1.912-.73-.005-1.328.842-1.336 1.892-.008 1.05.577 1.907 1.307 1.912.73.006 1.328-.841 1.336-1.892Z"/>
    <path fill="#3F3D56" d="M134.885 28.267c.008-1.05-.577-1.907-1.307-1.912-.73-.006-1.328.841-1.336 1.892-.008 1.05.577 1.906 1.307 1.912.73.005 1.328-.842 1.336-1.892Z"/>
    <path fill="#E6E6E6" d="M157.3 49.554c.008-1.05-.577-1.906-1.307-1.912-.73-.005-1.328.842-1.336 1.892-.008 1.05.577 1.907 1.307 1.912.73.006 1.328-.841 1.336-1.892Z"/>
    <path fill="#7BCAB1" d="M147.847 54.279c.008-1.05-.577-1.906-1.307-1.912-.73-.005-1.328.842-1.336 1.892-.008 1.05.577 1.906 1.307 1.912.73.005 1.328-.842 1.336-1.892Z"/>
    <path fill="#3F3D56" d="M161.005 63.012c.008-1.05-.577-1.907-1.307-1.912-.73-.006-1.328.841-1.336 1.892-.008 1.05.577 1.906 1.307 1.912.73.005 1.328-.842 1.336-1.892Z"/>
  </g>
  <defs>
    <clipPath id="a">
      <path fill="#fff" d="M0 0h244v279H0z"/>
    </clipPath>
  </defs>
</svg>
