<svg xmlns="http://www.w3.org/2000/svg" width="305" height="264" fill="none" viewBox="0 0 305 264">
  <g clip-path="url(#a)">
    <path fill="#F2F2F2" d="m282.393 244.674 8.216-2.599a27.671 27.671 0 0 0-.198-13.343c-3.301 7.319-12.985 9.112-18.503 14.954a16.65 16.65 0 0 0-4.279 13.816l-1.728 5.847a28.099 28.099 0 0 0 11.473-3.554 27.996 27.996 0 0 0 8.927-8.019 26.956 26.956 0 0 0 3.173-5.989c-3.504-.35-7.081-1.113-7.081-1.113Z"/>
    <path fill="#F2F2F2" d="m273.613 233.86 6.192-5.98a27.707 27.707 0 0 0-6.144-11.854c.318 8.019-7.547 13.931-9.873 21.613a16.65 16.65 0 0 0 2.348 14.269l1.068 6.003a28 28 0 0 0 8.68-8.285 27.913 27.913 0 0 0 4.404-11.147c.339-2.241.393-4.517.161-6.772-3.292 1.245-6.836 2.153-6.836 2.153Z"/>
    <path fill="#3F3D56" d="M232.457 17.529H.901a.922.922 0 0 1-.902-.919.917.917 0 0 1 .902-.918h231.556a.924.924 0 0 1 .902.918.92.92 0 0 1-.902.919ZM16.663 11.003c2.98 0 5.397-2.463 5.397-5.501C22.06 2.463 19.644 0 16.663 0c-2.98 0-5.396 2.463-5.396 5.502 0 3.038 2.416 5.501 5.396 5.501Zm18.643 0c2.98 0 5.396-2.463 5.396-5.501C40.702 2.463 38.286 0 35.306 0s-5.397 2.463-5.397 5.502c0 3.038 2.416 5.501 5.397 5.501Zm18.642 0c2.98 0 5.397-2.463 5.397-5.501C59.345 2.463 56.929 0 53.948 0c-2.98 0-5.396 2.463-5.396 5.502 0 3.038 2.416 5.501 5.396 5.501Zm167.285-9.639H207.99a1.005 1.005 0 0 0-.983 1 .998.998 0 0 0 .983 1h13.243a1.005 1.005 0 0 0 .983-1 .998.998 0 0 0-.983-1Zm0 3.753H207.99a1.005 1.005 0 0 0-.983 1 .998.998 0 0 0 .983 1h13.243a1.005 1.005 0 0 0 .983-1 .998.998 0 0 0-.983-1Zm0 3.749H207.99a1.005 1.005 0 0 0-.983 1 .998.998 0 0 0 .983 1h13.243a1.005 1.005 0 0 0 .983-1 .998.998 0 0 0-.983-1Z"/>
    <path fill="#E6E7E8" d="M17.938 54.84c3.685 0 6.672-2.98 6.672-6.654 0-3.675-2.987-6.654-6.672-6.654-3.684 0-6.671 2.979-6.671 6.654 0 3.674 2.987 6.653 6.671 6.653Zm169.897 8.079H13.253a1.99 1.99 0 0 1-1.404-.58 1.978 1.978 0 0 1 0-2.803 1.99 1.99 0 0 1 1.404-.58h174.582a1.99 1.99 0 0 1 1.405.58 1.977 1.977 0 0 1 0 2.802c-.372.372-.878.58-1.405.58Zm-45.787 7.829H13.253a1.99 1.99 0 0 1-1.405-.58 1.978 1.978 0 0 1 0-2.803 1.99 1.99 0 0 1 1.405-.58h128.795a1.99 1.99 0 0 1 1.405.58 1.977 1.977 0 0 1 0 2.802 1.99 1.99 0 0 1-1.405.58ZM17.938 158.69c3.685 0 6.672-2.979 6.672-6.654 0-3.674-2.987-6.653-6.672-6.653-3.684 0-6.671 2.979-6.671 6.653 0 3.675 2.987 6.654 6.671 6.654Zm169.897 8.079H13.253a1.98 1.98 0 1 1 0-3.962h174.582a2.225 2.225 0 0 1 1.464.661c.388.395.614.92.633 1.473a1.947 1.947 0 0 1-1.333 1.732 1.96 1.96 0 0 1-.764.096Zm-45.787 7.829H13.253a1.98 1.98 0 1 1 0-3.963h128.795a1.99 1.99 0 0 1 1.987 1.982c0 .525-.209 1.029-.582 1.401-.373.371-.878.58-1.405.58ZM17.938 102.85c3.685 0 6.672-2.979 6.672-6.654 0-3.674-2.987-6.653-6.672-6.653-3.684 0-6.671 2.979-6.671 6.653 0 3.675 2.987 6.654 6.671 6.654Zm169.897 8.079H13.253a1.987 1.987 0 0 1-1.986-1.981 1.98 1.98 0 0 1 1.986-1.981h174.582a1.99 1.99 0 0 1 1.405.58 1.979 1.979 0 0 1-1.405 3.382Zm-24.311 7.83H13.254a1.989 1.989 0 0 1-1.987-1.982 1.98 1.98 0 0 1 1.986-1.981h150.271a1.99 1.99 0 0 1 1.404.58 1.979 1.979 0 0 1 0 2.802 1.987 1.987 0 0 1-1.404.581Zm-10.2 7.828H13.254a1.988 1.988 0 0 1-1.987-1.981 1.98 1.98 0 0 1 1.986-1.981h140.071a1.99 1.99 0 0 1 1.405.58 1.979 1.979 0 0 1-1.405 3.382Z"/>
    <path fill="#996EC5" d="M156.223 214.18c27.287 0 49.407-22.06 49.407-49.273 0-27.212-22.12-49.272-49.407-49.272-27.288 0-49.408 22.06-49.408 49.272 0 27.213 22.12 49.273 49.408 49.273Z"/>
    <path fill="#3F3D56" d="M156.155 182.098c3.898 0 7.058-3.151 7.058-7.039 0-3.887-3.16-7.038-7.058-7.038-3.898 0-7.059 3.151-7.059 7.038 0 3.888 3.161 7.039 7.059 7.039Z"/>
    <path fill="#996EC5" d="M156.155 178.308a3.252 3.252 0 0 0 3.257-3.249 3.252 3.252 0 0 0-3.257-3.248 3.252 3.252 0 0 0-3.258 3.248 3.253 3.253 0 0 0 3.258 3.249Z"/>
    <path fill="#fff" d="M169.257 190.728h-26.069a9.757 9.757 0 0 1-6.881-2.847 9.708 9.708 0 0 1-2.855-6.862V169.1a9.71 9.71 0 0 1 2.855-6.863 9.762 9.762 0 0 1 6.881-2.847h26.069a9.762 9.762 0 0 1 6.881 2.847 9.712 9.712 0 0 1 2.855 6.863v11.919a9.708 9.708 0 0 1-2.855 6.862 9.757 9.757 0 0 1-6.881 2.847Zm-26.069-30.321a8.733 8.733 0 0 0-6.16 2.549 8.683 8.683 0 0 0-2.556 6.144v11.919a8.685 8.685 0 0 0 2.556 6.144 8.737 8.737 0 0 0 6.16 2.549h26.069a8.737 8.737 0 0 0 6.16-2.549 8.685 8.685 0 0 0 2.556-6.144V169.1a8.683 8.683 0 0 0-2.556-6.144 8.733 8.733 0 0 0-6.16-2.549h-26.069Z"/>
    <path fill="#3F3D56" d="M141.644 184.258h23.139a9.154 9.154 0 0 0 6.467-2.671 9.119 9.119 0 0 0 2.678-6.449v-9.975a9.067 9.067 0 0 0-.603-3.236 9.082 9.082 0 0 1 3.635 7.267v9.975a9.113 9.113 0 0 1-5.646 8.426 9.176 9.176 0 0 1-3.5.694h-23.138a9.155 9.155 0 0 1-5.19-1.616 9.116 9.116 0 0 1-3.352-4.269 9.109 9.109 0 0 0 5.51 1.854Z"/>
    <path fill="#A0616A" d="m212.502 257.482-5.686-.001-2.705-21.871h8.392l-.001 21.872Z"/>
    <path fill="#2F2E41" d="M212.702 263.396h-17.484v-.221c0-1.8.717-3.526 1.993-4.799a6.816 6.816 0 0 1 4.812-1.987l3.194-2.417 5.959 2.417h1.527l-.001 7.007Z"/>
    <path fill="#A0616A" d="m252.732 257.482 5.686-.001 2.705-21.871h-8.392l.001 21.872Z"/>
    <path fill="#2F2E41" d="M252.532 263.396h17.484v-.221c0-1.8-.717-3.526-1.993-4.799a6.816 6.816 0 0 0-4.812-1.987l-3.194-2.417-5.959 2.417h-1.526v7.007Zm-48.671-43.858c.084-1.248.752-8.15.752-8.15l1.599-14.636 2.819-38.799.184-2.539 14.764-2.827 10.091-4.825 11.995 3.824 9.339 3.493s.016 1.495.088 3.301c.096 2.364.264 5.263.664 6.017.667 1.331.499 8.48.499 8.48s.664 14.545 1.5 16.14c.835 1.595 1.003 4.916.751 5.582-.252.666.836 18.133.836 18.133s2.791 30.911 1.04 35.572c-1.751 4.661-8.369 1.608-8.369 1.608s.32-1.244-1.599-1.83c-1.919-.586-7.764-44.417-7.764-44.417s-1.087-8.987-2.087-11.562c-1-2.576-1.919-9.812-1.919-9.812s-6.173-11.978-6.253-14.641c0 0-.808-2.492-1.571.251-.764 2.743-3.015 9.314-3.015 9.314l-2.195 8.07-2.582 12.057-1.672 10.151s-2.502 13.473-2.902 14.055c-.4.582 0 12.89 0 12.89s-1.935 10.482-4.67 12.312-9.98.029-9.98.029-.427-25.993-.343-27.241Z"/>
    <path fill="#2F2E41" d="m210.16 120.028 3.282 9.86-4.05 4.808 1.784 1.831-1.316 2.587-3.43 27.12 18.807 7.113 6.333-7.918 4.993 7.918 21.762-5.302-5.55-34.585v-2.26l-1.567-4.366v-9.243l4.138-27.51-12.35-4.315-5.905-4.66-1.911 6.555-8.136-1.444-.212-4.924-6.225 5.865-5.242 1.491-6.276 1.432-.8 1.993 1.599-.398-.26 25.936.532 2.416Z"/>
    <path fill="#A0616A" d="m204.539 156.105 3.158-30.49.834-12.548-8.841-1.594s.35 8.972-.808 14.035c-1.143 4.995-.151 29.927-.081 30.594a4.284 4.284 0 0 0 .427 6.73 4.31 4.31 0 0 0 4.878.002 4.28 4.28 0 0 0 .433-6.729Z"/>
    <path fill="#2F2E41" d="m195.915 131.933 2.459.507 8.436 1.742.467.096.996-3.948 1.155-1.228 2.199-11.49.116-.598 3.323-7.082 2.298-21.283-8.548 1.531a2.358 2.358 0 0 0-.123.14c-1.228 1.387-2.103 3.317-3.535 5.259-4.657 6.319-8.231 21.674-8.091 30.087.004.135-.136.283-.304.434a4.66 4.66 0 0 0-.848 5.833Z"/>
    <path fill="#A0616A" d="m259.496 156.105-3.158-30.49-.834-12.548 8.841-1.594s-.351 8.972.808 14.035c1.142 4.995.151 29.927.081 30.594a4.284 4.284 0 0 1-.427 6.73 4.306 4.306 0 0 1-4.878.002 4.28 4.28 0 0 1-.433-6.729Z"/>
    <path fill="#2F2E41" d="m268.12 131.933-2.459.507-8.436 1.742-.468.096-.995-3.948-1.156-1.228-2.199-11.49-.116-.598-3.322-7.082.76-21.283 5.489 1.531c.044.044.084.092.124.14 1.228 1.387 2.103 3.317 3.534 5.259 4.658 6.319 8.232 21.674 8.092 30.087-.004.135.136.283.304.434a4.66 4.66 0 0 1 .848 5.833Z"/>
    <path fill="#996EC5" d="m222.816 91.798 4.016-10.505 10.259-.187 3.404 10.692 12.236 68.167s-37.486 10.41-37.106-2.104c.4-13.157 2.204-30.634 2.204-30.634l4.987-35.429Z"/>
    <path fill="#A0616A" d="M231.732 78.355c6.675 0 12.085-5.396 12.085-12.052 0-6.657-5.41-12.052-12.085-12.052-6.674 0-12.085 5.395-12.085 12.052 0 6.656 5.411 12.052 12.085 12.052Z"/>
    <path fill="#2F2E41" d="M218.934 57.56c1.968-2.136 4.429-6.045 11.883-7.687 9.21-2.028 13.563 6.27 11.24 6.406 6.792 2.05 2.429 16.068.482 14.892a9.551 9.551 0 0 1-2.632-2.9 9.526 9.526 0 0 1-1.238-3.647l-.37-3.317c-.052 2.699-2.818 3.056-5.644 2.062a3.534 3.534 0 0 1 2.505-2.46 12.14 12.14 0 0 1-7.122 3.09 4.825 4.825 0 0 1 2.358-3.235l-.112-.109a11.648 11.648 0 0 1-3.736 2.11c-1.558.445-3.424.204-4.491-1.012a3.293 3.293 0 0 1-.639-1.145c.231 2.137-1.207 4.577-2.323 4.158-.929-.18-1.471-5.785-.161-7.206Z"/>
    <path fill="#CCC" d="M305 263.395a.596.596 0 0 1-.177.428.601.601 0 0 1-.43.177H161.528a.608.608 0 0 1-.607-.605.606.606 0 0 1 .607-.605h142.865a.62.62 0 0 1 .43.177.602.602 0 0 1 .177.428Z"/>
    <path fill="#3F3D56" d="M156.624 138.191c-4.833 0-9.08 2.182-11.485 5.457a14.87 14.87 0 0 1 8.855-2.834c7.483 0 13.571 5.228 13.571 11.653v5.342h2.63v-7.965c0-6.425-6.088-11.653-13.571-11.653Z"/>
    <path fill="#fff" d="M172.003 160.542h-31.56v-9.26c0-7.471 7.078-13.55 15.78-13.55 8.701 0 15.78 6.079 15.78 13.55v9.26Zm-30.541-1.016h29.521v-8.244c0-6.911-6.621-12.533-14.76-12.533-8.14 0-14.761 5.622-14.761 12.533v8.244Z"/>
    <path fill="#fff" d="M164.305 157.007H148.14a2.738 2.738 0 0 1-2.743-2.736v-3.685c0-5.138 4.856-9.318 10.826-9.318 5.969 0 10.825 4.18 10.825 9.318v3.685a2.738 2.738 0 0 1-2.743 2.736Zm-8.082-14.723c-5.408 0-9.807 3.724-9.807 8.302v3.685a1.721 1.721 0 0 0 1.724 1.719h16.165a1.726 1.726 0 0 0 1.724-1.719v-3.685c0-4.578-4.399-8.302-9.806-8.302Z"/>
  </g>
  <defs>
    <clipPath id="a">
      <path fill="#fff" d="M0 0h305v264H0z"/>
    </clipPath>
  </defs>
</svg>
