<svg xmlns="http://www.w3.org/2000/svg" width="422" height="253" fill="none" viewBox="0 0 422 253">
  <g clip-path="url(#a)">
    <path fill="#E6E6E6" d="M163.844 226.682a14.002 14.002 0 0 1-13.534-2.385c-4.74-3.981-6.226-10.539-7.436-16.611l-3.576-17.961 7.488 5.158c5.385 3.71 10.892 7.539 14.62 12.913 3.729 5.374 5.357 12.709 2.361 18.524"/>
    <path fill="#F2F2F2" d="M163.204 248.428c.758-5.524 1.537-11.118 1.005-16.701-.472-4.958-1.984-9.801-5.062-13.771a22.896 22.896 0 0 0-5.874-5.327c-.588-.371-1.128.561-.544.93a21.773 21.773 0 0 1 8.611 10.395c1.874 4.77 2.175 9.97 1.852 15.038-.195 3.065-.609 6.109-1.026 9.15a.556.556 0 0 0 .376.662.543.543 0 0 0 .662-.376Z"/>
    <path fill="#E6E6E6" d="M155.903 238.654a10.312 10.312 0 0 1-8.989 4.642c-4.55-.216-8.344-3.394-11.759-6.411l-10.101-8.923 6.686-.32c4.807-.23 9.739-.445 14.318 1.039 4.579 1.483 8.802 5.053 9.639 9.795"/>
    <path fill="#F2F2F2" d="M165.346 251.603c-3.648-6.458-7.88-13.636-15.44-15.93a17.25 17.25 0 0 0-6.495-.671c-.689.06-.517 1.123.171 1.064a16 16 0 0 1 10.364 2.743c2.922 1.99 5.198 4.757 7.123 7.691 1.18 1.797 2.237 3.671 3.293 5.542.338.598 1.325.166.984-.439Z"/>
    <path fill="#CCC" d="m263.122 122.228-79.532 65.951a4.903 4.903 0 0 1-6.896-.646l-33.527-40.473a4.91 4.91 0 0 1 .646-6.9l79.532-65.951a4.903 4.903 0 0 1 6.896.646l33.527 40.473a4.909 4.909 0 0 1-.646 6.9Z"/>
    <path fill="#fff" d="m259.935 120.242-77.704 64.435a2.523 2.523 0 0 1-3.552-.333L146.667 145.7a2.529 2.529 0 0 1 .333-3.554l77.704-64.435a2.524 2.524 0 0 1 3.552.333l32.012 38.643a2.531 2.531 0 0 1-.333 3.555Z"/>
    <path fill="#CCC" d="m263.517 133.73-15.982-1.497 11.439-9.007 6.162 7.439a1.842 1.842 0 0 1 .214 2.073 1.85 1.85 0 0 1-1.833.992Zm-32.094-28.641-39.309 32.596a2.375 2.375 0 1 1-3.031-3.658l39.309-32.597a2.375 2.375 0 1 1 3.031 3.659Zm-19.238 2.838-26.511 21.984a2.374 2.374 0 0 1-3.88-2.051 2.378 2.378 0 0 1 .849-1.608l26.511-21.983a2.373 2.373 0 0 1 3.88 2.05 2.38 2.38 0 0 1-.849 1.608Z"/>
    <path fill="#996EC5" d="M171.106 152.887a7.423 7.423 0 0 0 7.421-7.425c0-4.1-3.322-7.424-7.421-7.424a7.422 7.422 0 0 0-7.42 7.424 7.422 7.422 0 0 0 7.42 7.425Z"/>
    <path fill="#E6E6E6" d="M230.136 130.58a2.375 2.375 0 1 0-.002-4.75 2.375 2.375 0 0 0 .002 4.75Zm6.399-5.307a2.375 2.375 0 1 0-.002-4.75 2.375 2.375 0 0 0 .002 4.75Zm6.399-5.306a2.376 2.376 0 1 0-.002-4.752 2.376 2.376 0 0 0 .002 4.752Z"/>
    <path fill="#FFB8B8" d="m205.085 247.466 5.452-.001 2.593-21.039-8.046.001.001 21.039Z"/>
    <path fill="#2F2E41" d="M203.694 245.685h10.737a6.835 6.835 0 0 1 4.838 2.005 6.848 6.848 0 0 1 2.004 4.84v.223h-17.578l-.001-7.068Z"/>
    <path fill="#FFB8B8" d="m185.519 247.466 5.452-.001 2.593-21.039-8.046.001.001 21.039Z"/>
    <path fill="#2F2E41" d="M184.129 245.685h10.736a6.844 6.844 0 0 1 6.842 6.845v.223h-17.578v-7.068Zm6.861-4.657h-.001l-4.636-.001a1.992 1.992 0 0 1-1.999-1.93l-.146-4.058c-1.172-32.452-2.384-66.009 5.122-81.091l.058-.119 24.849-.9 4.989 45.786a19.873 19.873 0 0 1-.231 5.857l-6.595 34.769a2.001 2.001 0 0 1-2.044 1.628l-5.208-.169a2.006 2.006 0 0 1-1.828-1.393 2.001 2.001 0 0 1-.085-.806l4.091-32.158c.139-1.388.013-2.79-.371-4.131l-5.088-17.794a.668.668 0 0 0-.688-.482.669.669 0 0 0-.614.574l-7.593 54.692a2.009 2.009 0 0 1-1.982 1.726Z"/>
    <path fill="#FFB8B8" d="M193.961 107.153c6.032 0 10.922-4.892 10.922-10.927 0-6.035-4.89-10.928-10.922-10.928-6.031 0-10.921 4.893-10.921 10.928 0 6.035 4.89 10.927 10.921 10.927Z"/>
    <path fill="#2F2E41" d="M198.909 82.434s-11.421-6.154-17.647 1.109c-6.225 7.262 2.372 18.618 2.372 18.618l12.25 1.546s.445-8.332 3.362-8.17c2.916.162 11.974-10.352-.337-13.103Z"/>
    <path fill="#996EC5" d="M213.072 156.309h-22.6a2.007 2.007 0 0 1-1.513-.693 2.003 2.003 0 0 1-.467-1.598l1.117-7.651-6.557-18.043a13.302 13.302 0 0 1-.736-5.826 13.283 13.283 0 0 1 11.413-11.867 13.217 13.217 0 0 1 13.794 7.482l1.44 3.065 6.077 32.764a2.011 2.011 0 0 1-.429 1.645 2.006 2.006 0 0 1-1.539.722Z"/>
    <path fill="#FFB8B8" d="M165.364 175.501a4.78 4.78 0 0 0 3.311-6.538l17.61-39.807-10.074-2.539-14.143 39.928a4.803 4.803 0 0 0-2.328 5.942 4.8 4.8 0 0 0 5.624 3.014Z"/>
    <path fill="#996EC5" d="m183.901 136.275-9.798-4.589a2.137 2.137 0 0 1-1.154-1.36 2.161 2.161 0 0 1 .276-1.764l5.955-8.997a5.949 5.949 0 0 1 10.76 5.078l-3.079 10.306a2.144 2.144 0 0 1-2.07 1.528 2.128 2.128 0 0 1-.89-.202Z"/>
    <path fill="#FFB8B8" d="M238.826 73.065a4.772 4.772 0 0 1-.514 4.011 4.773 4.773 0 0 1-3.403 2.181l-25.155 35.52-7.339-7.357 27.034-32.6a4.804 4.804 0 0 1 9.377-1.754Z"/>
    <path fill="#996EC5" d="M215.571 110.608a2.137 2.137 0 0 1-.549 1.698l-7.271 7.923a5.945 5.945 0 0 1-10.762-2.187 5.953 5.953 0 0 1 .893-4.459l4.674-9.725a2.147 2.147 0 0 1 2.284-1.185c.304.051.593.167.848.34l8.957 6.07a2.134 2.134 0 0 1 .926 1.525Z"/>
    <path fill="#CCC" d="M243.684 253h-93.827a.448.448 0 0 1-.315-.13.448.448 0 0 1 0-.629.445.445 0 0 1 .315-.131h93.827c.118 0 .231.047.314.131a.441.441 0 0 1 0 .629.444.444 0 0 1-.314.13Z"/>
    <path fill="#A0616A" d="M338.209 34.555a4.472 4.472 0 0 1 4.886 4.814l14.544 6.404-6.938 4.48-12.748-6.768a4.495 4.495 0 0 1-3.836-4.579 4.503 4.503 0 0 1 4.092-4.35Zm58.667-7.989c6.032 0 10.922-4.892 10.922-10.928 0-6.035-4.89-10.927-10.922-10.927-6.031 0-10.921 4.892-10.921 10.927 0 6.036 4.89 10.928 10.921 10.928ZM377.11 171.453l-5.452-.001-2.593-21.039 8.046.001-.001 21.039Z"/>
    <path fill="#2F2E41" d="m378.5 176.74-17.578-.001v-.222a6.85 6.85 0 0 1 6.842-6.846l10.736.001v7.068Z"/>
    <path fill="#A0616A" d="m399.788 171.453-5.451-.001-2.594-21.039 8.046.001-.001 21.039Z"/>
    <path fill="#2F2E41" d="m401.179 176.74-17.579-.001v-.222a6.85 6.85 0 0 1 4.224-6.325 6.84 6.84 0 0 1 2.618-.521l10.737.001v7.068Zm-1.649-9.768c-.082 0-.163-.006-.244-.016l-7.98-.982a2.002 2.002 0 0 1-1.754-1.885l-2.326-52.394a.666.666 0 0 0-1.27-.246l-5.974 19.925-1.231 32.005a1.992 1.992 0 0 1-.698 1.444 1.993 1.993 0 0 1-1.535.467l-6.911-.814a1.996 1.996 0 0 1-1.766-2.027l.586-30.127 4.682-47.29.209.007 28.47 1.098-.257 78.839a2.001 2.001 0 0 1-2.001 1.996Z"/>
    <path fill="#3F3D56" d="M400.709 90.459h-.052l-28.673-.752a2.002 2.002 0 0 1-1.93-2.271l5.51-40.573a19.63 19.63 0 0 1 8.306-13.7 16.979 16.979 0 0 1 13.833-2.467c10.008 2.537 16.012 13.29 13.384 23.968l-8.435 34.271a2.014 2.014 0 0 1-1.943 1.524Z"/>
    <path fill="#3F3D56" d="M363.093 58.24a9.702 9.702 0 0 1-5.32-1.58l-16.721-10.977a2.013 2.013 0 0 1-.89-1.442 2.007 2.007 0 0 1 .535-1.608l2.519-2.66a1.996 1.996 0 0 1 2.193-.484l18.677 7.44 17.302-12.361a7.182 7.182 0 0 1 11.304 4.97 7.189 7.189 0 0 1-3.991 7.344l-21.383 10.392a9.667 9.667 0 0 1-4.225.967Z"/>
    <path fill="#2F2E41" d="M400.661 26.089c1.863.44 4.111.778 5.443-.599.236-.26.447-.541.629-.84l1.741-2.66c1.334-2.037 2.691-4.128 3.256-6.497a10.57 10.57 0 0 0-4.166-11.068 10.561 10.561 0 0 0-3.797-1.689c-2.6-.582-5.143-1.584-7.801-1.401-2.657.182-5.774.122-8.004-1.335.139.65.891 3.52.891 3.52s-3.354 3.079-4.027 3.847a6.3 6.3 0 0 1 8.771 4.747c.19 1.168.078 2.464.772 3.423.66.912 1.843 1.231 2.838 1.758a6.926 6.926 0 0 1 3.045 8.473l.409.32Z"/>
    <path fill="#CCC" d="M387.548 94.372h-90.532a4.297 4.297 0 0 1-4.293-4.294v-46.07a4.303 4.303 0 0 1 4.293-4.296h90.532a4.299 4.299 0 0 1 4.292 4.295v46.07a4.299 4.299 0 0 1-4.292 4.295Z"/>
    <path fill="#fff" d="M386.507 91.249h-88.451a2.215 2.215 0 0 1-2.211-2.213V45.048a2.215 2.215 0 0 1 2.211-2.212h88.451a2.215 2.215 0 0 1 2.211 2.212v43.988a2.21 2.21 0 0 1-2.211 2.213Z"/>
    <path fill="#CCC" d="m381.385 102.355-9.948-9.953 12.753.323v8.467a1.616 1.616 0 0 1-1.014 1.519 1.616 1.616 0 0 1-1.791-.356Zm-5.647-37.285h-44.746a2.083 2.083 0 0 1 0-4.165h44.746a2.079 2.079 0 0 1 2.081 2.082 2.08 2.08 0 0 1-2.081 2.083Zm-14.569-8.85h-30.177a2.082 2.082 0 1 1 0-4.165h30.177a2.081 2.081 0 0 1 1.472 3.555c-.39.39-.92.61-1.472.61Z"/>
    <path fill="#996EC5" d="M312.469 65.07a6.506 6.506 0 0 0 6.504-6.507 6.506 6.506 0 0 0-6.504-6.508 6.505 6.505 0 0 0-6.503 6.508 6.505 6.505 0 0 0 6.503 6.507Z"/>
    <path fill="#E6E6E6" d="M361.948 82.03a2.082 2.082 0 1 0 0-4.165 2.082 2.082 0 0 0 0 4.164Zm7.285 0a2.082 2.082 0 1 0-.002-4.165 2.082 2.082 0 0 0 .002 4.164Zm7.284 0a2.082 2.082 0 1 0-.002-4.165 2.082 2.082 0 0 0 .002 4.164Z"/>
    <path fill="#A0616A" d="M386.146 88.893a4.477 4.477 0 0 1 3.775-3.931 4.473 4.473 0 0 1 1.934.132l9.242-12.933 2.964 7.711-9.231 11.1a4.493 4.493 0 0 1-7.905 1.021 4.501 4.501 0 0 1-.779-3.1Z"/>
    <path fill="#3F3D56" d="M396.732 88.196a2.013 2.013 0 0 1-1.25-.31 1.992 1.992 0 0 1-.611-.618l-1.953-3.1a1.99 1.99 0 0 1 .075-2.246l11.829-16.263-7.689-19.833a7.153 7.153 0 0 1 3.919-9.227 7.183 7.183 0 0 1 9.816 5.186l4.77 23.302a9.74 9.74 0 0 1-2.957 9.1l-14.768 13.492c-.325.298-.741.48-1.181.517Z"/>
    <path fill="#CCC" d="M421.555 177.81h-93.827a.444.444 0 0 1 0-.89h93.827c.118 0 .231.047.315.13a.448.448 0 0 1 0 .63.448.448 0 0 1-.315.13ZM114.112 67.082H23.58a4.296 4.296 0 0 1-4.292-4.295v-46.07a4.3 4.3 0 0 1 4.292-4.295h90.532a4.297 4.297 0 0 1 4.293 4.295v46.07a4.303 4.303 0 0 1-4.293 4.295Z"/>
    <path fill="#fff" d="M113.072 63.959h-88.45a2.213 2.213 0 0 1-2.212-2.213V17.758a2.215 2.215 0 0 1 2.211-2.212h88.451a2.215 2.215 0 0 1 2.211 2.212v43.988a2.215 2.215 0 0 1-2.211 2.212Z"/>
    <path fill="#CCC" d="m107.949 75.065-9.947-9.953 12.753.322v8.468a1.615 1.615 0 0 1-1.015 1.52 1.617 1.617 0 0 1-1.791-.356Zm-5.647-37.285H57.557a2.08 2.08 0 0 1-2.082-2.083 2.083 2.083 0 0 1 2.082-2.082h44.745a2.081 2.081 0 0 1 1.472 3.554c-.39.391-.92.61-1.472.61Zm-14.568-8.85H57.557a2.08 2.08 0 0 1-1.472-3.555c.39-.39.92-.61 1.472-.61h30.177a2.08 2.08 0 0 1 1.472 3.555c-.39.39-.92.61-1.472.61Z"/>
    <path fill="#996EC5" d="M39.034 37.78a6.505 6.505 0 0 0 6.504-6.508 6.505 6.505 0 0 0-6.504-6.507 6.505 6.505 0 0 0-6.504 6.507 6.505 6.505 0 0 0 6.504 6.508Z"/>
    <path fill="#E6E6E6" d="M88.513 54.739a2.082 2.082 0 1 0-.001-4.163 2.082 2.082 0 0 0 .001 4.163Zm7.284 0a2.082 2.082 0 1 0 0-4.163 2.082 2.082 0 0 0 0 4.163Zm7.284 0a2.082 2.082 0 1 0 0-4.164 2.082 2.082 0 0 0 0 4.164Z"/>
    <path fill="#FFB8B8" d="M110.358 7.996a4.476 4.476 0 0 0-2.361 6.44L97.582 26.445l8.186 1.085 8.635-11.57a4.501 4.501 0 0 0-.851-7.929 4.494 4.494 0 0 0-3.194-.035ZM40.82 12.803a4.478 4.478 0 0 1-1.654 5.195 4.469 4.469 0 0 1-1.794.735l-2.591 15.686-6.06-5.612 3.39-14.036a4.5 4.5 0 0 1 3.481-4.854 4.493 4.493 0 0 1 5.229 2.886Zm16.276 158.65 5.452-.001 2.593-21.039-8.046.001.001 21.039Z"/>
    <path fill="#2F2E41" d="m55.706 169.672 10.736-.001a6.84 6.84 0 0 1 6.322 4.226c.343.831.52 1.721.52 2.62v.222l-17.578.001v-7.068Z"/>
    <path fill="#FFB8B8" d="m29.081 171.453 5.452-.001 2.594-21.039-8.046.001v21.039Z"/>
    <path fill="#2F2E41" d="m27.69 169.672 10.737-.001a6.84 6.84 0 0 1 6.843 6.846v.222l-17.579.001v-7.068Z"/>
    <path fill="#FFB8B8" d="M55.958 27.81c6.032 0 10.922-4.892 10.922-10.927 0-6.035-4.89-10.927-10.922-10.927-6.032 0-10.922 4.892-10.922 10.927 0 6.035 4.89 10.928 10.922 10.928Z"/>
    <path fill="#2F2E41" d="m54.649 164.464-.903-57.575a.665.665 0 0 0-.594-.654.67.67 0 0 0-.722.51L37.626 163.06a2.03 2.03 0 0 1-2.032 1.539l-8.134-.348a2.003 2.003 0 0 1-1.9-2.251l12.562-72.369.026-.204 34.988 1.656.229.01-7.503 73.491a2.01 2.01 0 0 1-1.996 1.853H56.65a2.007 2.007 0 0 1-2.001-1.973Z"/>
    <path fill="#2F2E41" d="M82.284 95.96 31.51 91.791a2 2 0 0 1-1.718-2.676l7.996-22.117.46-26.251a7.202 7.202 0 0 1 4.621-6.597 7.19 7.19 0 0 1 2.79-.473l3.377-3.062h12.37l1.078 1.413 8.607 1.323a7.235 7.235 0 0 1 6.04 6.155l7.298 54.192a2.003 2.003 0 0 1-2.147 2.262Z"/>
    <path fill="#2F2E41" d="M72.391 35.896 94.04 29.55l9.797-12.906a2.003 2.003 0 0 1 2.38-.63l6.117 2.616a2.002 2.002 0 0 1 .943 2.849l-7.322 12.571a11.205 11.205 0 0 1-5.182 4.637L75.31 49.95l-2.92-14.054Zm-41.533 9.493a9.283 9.283 0 0 1-3.826-8.265l.95-12.594a2.008 2.008 0 0 1 1.995-1.851h.018l7.173.064a2.001 2.001 0 0 1 1.946 2.387l-1.33 6.794 9.498 4.016-7.999 15.569-8.425-6.12ZM62.312 3.78S50.89-2.373 44.665 4.889c-6.226 7.262 2.372 18.618 2.372 18.618l12.25 1.546s.444-8.331 3.361-8.17c2.917.162 11.975-10.351-.336-13.103Z"/>
    <path fill="#CCC" d="M94.272 177.365H.445A.446.446 0 0 1 0 176.92a.443.443 0 0 1 .445-.445h93.827a.443.443 0 0 1 .444.445.447.447 0 0 1-.444.445Z"/>
  </g>
  <defs>
    <clipPath id="a">
      <path fill="#fff" d="M0 0h422v253H0z"/>
    </clipPath>
  </defs>
</svg>
