<svg xmlns="http://www.w3.org/2000/svg" width="26" height="26" fill="none" viewBox="0 0 75 75">
  <circle cx="37.5" cy="37.5" r="37.5" fill="#4AB0BA" opacity=".25"/>
  <path stroke="#FBFBFB" stroke-width="3" d="M29.718 23.244C33.368 21.08 35.195 20 37.2 20s3.83 1.081 7.482 3.244l1.236.731c3.651 2.163 5.477 3.244 6.48 5.025 1.002 1.781 1.002 3.944 1.002 8.269v1.462c0 4.326 0 6.488-1.002 8.269-1.003 1.78-2.829 2.862-6.48 5.025l-1.236.731C41.031 54.92 39.205 56 37.2 56s-3.83-1.081-7.483-3.244l-1.234-.731c-3.652-2.163-5.478-3.244-6.48-5.025C21 45.22 21 43.057 21 38.731V37.27c0-4.325 0-6.488 1.003-8.269 1.002-1.781 2.828-2.862 6.48-5.025l1.235-.731Z"/>
  <path stroke="#FBFBFB" stroke-width="3" d="M37.2 43.4a5.4 5.4 0 1 0 0-10.8 5.4 5.4 0 0 0 0 10.8Z"/>
</svg>
