<svg xmlns="http://www.w3.org/2000/svg" width="26" height="26" fill="none" viewBox="0 0 75 75">
  <circle cx="37.5" cy="37.5" r="37.5" fill="#4AB0BA" opacity=".25"/>
  <path fill="#FBFBFB" d="M56 31.032a1.742 1.742 0 1 0-3.484 0H56ZM35.677 52.516a1.742 1.742 0 0 0 0 3.484v-3.484Zm16.84-21.484a1.742 1.742 0 0 0 3.483 0h-3.484ZM35.676 20a1.742 1.742 0 0 0 0 3.484V20Zm18.581 12.774a1.742 1.742 0 0 0 0-3.484v3.484Zm-18.58-3.484a1.742 1.742 0 0 0 0 3.484V29.29ZM23.483 38A1.742 1.742 0 0 0 20 38h3.484Zm12.193 18a1.742 1.742 0 0 0 0-3.484V56ZM20 38a1.742 1.742 0 0 0 3.484 0H20Zm15.677-14.516a1.742 1.742 0 0 0 0-3.484v3.484ZM21.742 36.258a1.742 1.742 0 0 0 0 3.484v-3.484Zm13.935 3.484a1.742 1.742 0 0 0 0-3.484v3.484ZM37.42 38a1.742 1.742 0 0 0-3.483 0h3.483Zm-3.483 16.258a1.742 1.742 0 0 0 3.483 0h-3.483Zm0-16.258a1.742 1.742 0 0 0 3.483 0h-3.483Zm3.483-6.968a1.742 1.742 0 0 0-3.483 0h3.483Zm0-9.29a1.742 1.742 0 0 0-3.483 0h3.483Zm-3.483 9.29a1.742 1.742 0 0 0 3.483 0h-3.483Zm18.58 0v13.936H56V31.032h-3.484Zm0 13.936a7.548 7.548 0 0 1-7.548 7.548V56C51.06 56 56 51.06 56 44.968h-3.484Zm-7.548 7.548h-9.29V56h9.29v-3.484ZM56 31.032C56 24.94 51.06 20 44.968 20v3.484a7.548 7.548 0 0 1 7.548 7.548H56ZM44.968 20h-9.29v3.484h9.29V20Zm9.29 9.29h-18.58v3.484h18.58V29.29ZM20 38v6.968h3.484V38H20Zm0 6.968C20 51.06 24.94 56 31.032 56v-3.484a7.548 7.548 0 0 1-7.548-7.548H20ZM31.032 56h4.645v-3.484h-4.645V56Zm-7.548-18v-6.968H20V38h3.484Zm0-6.968a7.548 7.548 0 0 1 7.548-7.548V20C24.94 20 20 24.94 20 31.032h3.484Zm7.548-7.548h4.645V20h-4.645v3.484Zm-9.29 16.258h13.935v-3.484H21.742v3.484ZM33.935 38v16.258h3.484V38h-3.483Zm3.484 0v-6.968h-3.483V38h3.483Zm-3.483-16.258v9.29h3.483v-9.29h-3.483Z"/>
</svg>
