<svg xmlns="http://www.w3.org/2000/svg" width="21" height="25" fill="none" viewBox="0 0 21 25">
  <path stroke="#4AB0BA" stroke-linecap="round" stroke-width="2" d="M7.9 24c-3.253 0-4.879 0-5.89-1.01C1 21.979 1 20.352 1 17.1V7.9c0-3.253 0-4.879 1.01-5.89C3.021 1 4.647 1 7.9 1h4.6c3.253 0 4.879 0 5.89 1.01C19.4 3.021 19.4 4.647 19.4 7.9M12.5 24c3.253 0 4.879 0 5.89-1.01 1.01-1.011 1.01-2.637 1.01-5.89v-4.6"/>
  <path stroke="#4AB0BA" stroke-width="2" d="M19.282 17.1h-13.8c-1.069 0-1.604 0-2.042.117A3.45 3.45 0 0 0 1 19.658"/>
  <path stroke="#4AB0BA" stroke-linecap="round" stroke-width="2" d="M4.45 17.1V9.05m0-7.475V4.45m6.9 12.65v4.06c0 .317 0 .476-.11.54-.108.064-.257-.007-.556-.149l-1.428-.678c-.101-.048-.152-.072-.206-.072-.054 0-.105.024-.206.072l-1.428.678c-.299.142-.448.213-.557.149-.109-.064-.109-.223-.109-.54v-3.543"/>
</svg>
