<svg xmlns="http://www.w3.org/2000/svg" width="26" height="26" fill="none" viewBox="0 0 75 75">
  <circle cx="37.5" cy="37.5" r="37.5" fill="#4AB0BA" opacity=".25"/>
  <path stroke="#FBFBFB" stroke-width="3" d="M31.8 24.5H30c-4.243 0-6.364 0-7.682 1.318C21 27.136 21 29.258 21 33.5v9c0 4.243 0 6.364 1.318 7.682C23.636 51.5 25.758 51.5 30 51.5h1.8m0-23.442c0-4.13 0-6.194 1.273-7.322 1.273-1.129 3.219-.79 7.11-.11l4.192.73c4.31.752 6.465 1.128 7.745 2.709 1.28 1.58 1.28 3.867 1.28 8.44v10.99c0 4.573 0 6.86-1.28 8.44-1.28 1.581-3.435 1.957-7.745 2.709l-4.191.73c-3.892.68-5.838 1.019-7.111-.11-1.273-1.128-1.273-3.193-1.273-7.322V28.059Z"/>
  <path stroke="#FBFBFB" stroke-linecap="round" stroke-width="3" d="M37.2 36.2v3.6"/>
</svg>
