<svg xmlns="http://www.w3.org/2000/svg" width="26" height="26" fill="none" viewBox="0 0 75 75">
  <circle cx="37.5" cy="37.5" r="37.5" fill="#4AB0BA" opacity=".25"/>
  <path fill="#FBFBFB" d="M38 30.615V38l4.615 4.615"/>
  <path stroke="#FBFBFB" stroke-linecap="round" stroke-linejoin="round" stroke-width="2" d="M38 30.615V38l4.615 4.615"/>
  <path fill="#FBFBFB" d="m23.855 28.53-1.385.007c.004.76.618 1.374 1.378 1.378l.007-1.385Zm4.692 1.409a1.385 1.385 0 0 0 .014-2.77l-.014 2.77Zm-3.332-6.115a1.385 1.385 0 0 0-2.769.014l2.77-.014ZM22.77 38A1.385 1.385 0 1 0 20 38h2.77Zm24.232 15.591a1.385 1.385 0 1 0-1.386-2.397L47 53.591Zm4.193-7.977a1.384 1.384 0 1 0 2.397 1.387l-2.397-1.386ZM25.336 25.21a1.385 1.385 0 1 0 1.948 1.967l-1.948-1.967Zm25.333.122c-7.053-7.052-18.45-7.124-25.456-.118l1.959 1.959c5.905-5.907 15.549-5.872 21.539.118l1.958-1.959Zm-25.456-.118-2.338 2.338 1.959 1.958 2.338-2.337-1.959-1.959Zm-1.366 4.702 4.7.024.014-2.77-4.7-.023-.014 2.769Zm1.392-1.392-.024-4.7-2.769.015.024 4.7 2.77-.015ZM38 22.77c8.412 0 15.23 6.82 15.23 15.231H56c0-9.941-8.059-18-18-18v2.77Zm0 30.462c-8.412 0-15.23-6.82-15.23-15.231H20c0 9.941 8.059 18 18 18v-2.77Zm7.614-2.037A15.155 15.155 0 0 1 38 53.231V56c3.276 0 6.352-.877 9-2.409l-1.386-2.397ZM53.231 38c0 2.776-.742 5.376-2.037 7.614l2.397 1.387A17.923 17.923 0 0 0 56 38h-2.77ZM27.284 27.176A15.178 15.178 0 0 1 38 22.77V20c-4.938 0-9.413 1.99-12.664 5.209l1.948 1.967Z"/>
</svg>
