<svg xmlns="http://www.w3.org/2000/svg" width="20" height="22" fill="none" viewBox="0 0 20 22">
  <path stroke="#4AB0BA" stroke-linecap="round" stroke-width="2" d="M5.843 19.198C7.872 20.399 8.886 21 10 21c1.114 0 2.128-.6 4.157-1.802l.686-.407c2.029-1.2 3.043-1.802 3.6-2.791.557-.99.557-2.19.557-4.594M18.815 7a3.556 3.556 0 0 0-.372-1c-.557-.99-1.571-1.59-3.6-2.792l-.686-.406C12.128 1.601 11.114 1 10 1c-1.114 0-2.128.6-4.157 1.802l-.686.406C3.128 4.41 2.114 5.011 1.557 6 1 6.99 1 8.19 1 10.594v.812c0 2.403 0 3.605.557 4.594.226.402.528.74.943 1.08"/>
  <path stroke="#4AB0BA" stroke-width="2" d="M10 14a3 3 0 1 0 0-6 3 3 0 0 0 0 6Z"/>
</svg>
