<svg xmlns="http://www.w3.org/2000/svg" width="26" height="26" fill="none" viewBox="0 0 75 75">
  <circle cx="37.5" cy="37.5" r="37.5" fill="#4AB0BA" opacity=".25"/>
  <g clip-path="url(#a)">
    <path fill="#FBFBFB" d="m25.938 47.884 16.627-7.655 6.208-14.164-14.825 5.933-8.01 15.886Zm14.043-8.676L30.4 43.62l4.617-9.158 4.964 4.746ZM37.5 16c-4.45 0-8.8 1.261-12.5 3.623-3.7 2.363-6.584 5.72-8.287 9.65a20.614 20.614 0 0 0-1.28 12.421c.867 4.171 3.01 8.002 6.157 11.009 3.147 3.007 7.156 5.054 11.52 5.884 4.365.83 8.889.404 13-1.224 4.112-1.627 7.626-4.383 10.098-7.918C58.68 45.909 60 41.752 60 37.5c-.007-5.7-2.38-11.165-6.597-15.196-4.218-4.03-9.938-6.298-15.903-6.304Zm0 41.01a21.099 21.099 0 0 1-11.343-3.289c-3.357-2.143-5.974-5.19-7.52-8.755a18.706 18.706 0 0 1-1.161-11.272c.787-3.785 2.732-7.26 5.587-9.99 2.856-2.727 6.494-4.586 10.454-5.338a21.3 21.3 0 0 1 11.796 1.11c3.73 1.476 6.92 3.977 9.163 7.185 2.243 3.208 3.44 6.98 3.44 10.839-.005 5.173-2.158 10.132-5.985 13.79-3.828 3.657-9.018 5.714-14.431 5.72Z"/>
  </g>
  <defs>
    <clipPath id="a">
      <path fill="#fff" d="M8 8h60v60H8z"/>
    </clipPath>
  </defs>
</svg>
