<svg xmlns="http://www.w3.org/2000/svg" width="26" height="28" fill="none" viewBox="0 0 31 34">
  <path stroke="#000" stroke-linecap="round" stroke-linejoin="round" stroke-width="3" d="M15.333 21.167V24.5M7 13.715c.786-.048 1.754-.048 3-.048h10.667c1.245 0 2.214 0 3 .048M7 13.715c-.98.06-1.676.194-2.27.497a4.999 4.999 0 0 0-2.185 2.185C2 17.467 2 18.867 2 21.667V24c0 2.8 0 4.2.545 5.27a5 5 0 0 0 2.185 2.185C5.8 32 7.2 32 10 32h10.667c2.8 0 4.2 0 5.27-.545a5 5 0 0 0 2.185-2.185c.545-1.07.545-2.47.545-5.27v-2.333c0-2.8 0-4.2-.545-5.27a5 5 0 0 0-2.185-2.185c-.594-.303-1.29-.438-2.27-.497M7 13.715v-3.382a8.333 8.333 0 0 1 16.667 0v3.382"/>
</svg>
