<svg xmlns="http://www.w3.org/2000/svg" width="24" height="26" fill="none" viewBox="0 0 28 32">
  <path stroke="#000" stroke-linecap="round" stroke-linejoin="round" stroke-width="3" d="M4.576 15.605c-.203-5.679 4.113-10.455 9.65-10.68 5.537.225 9.853 5.001 9.65 10.68 0 2.36 2.5 4.657 2.572 7.022v.1c.054 1.515-1.097 2.788-2.574 2.848H18.3a4.627 4.627 0 0 1-1.192 3.129A3.873 3.873 0 0 1 14.226 30a3.87 3.87 0 0 1-2.881-1.296 4.625 4.625 0 0 1-1.193-3.13H4.576c-1.477-.059-2.628-1.332-2.574-2.847v-.1c.075-2.357 2.574-4.66 2.574-7.021Z" clip-rule="evenodd"/>
  <path fill="#000" d="M10.151 24.232a1.343 1.343 0 0 0 0 2.686v-2.686Zm8.149 2.686a1.343 1.343 0 0 0 0-2.686v2.686ZM15.972 2.687a1.343 1.343 0 0 0 0-2.687v2.687ZM12.479 0a1.343 1.343 0 0 0 0 2.687V0Zm-2.328 26.918H18.3v-2.686h-8.15v2.686ZM15.971 0H12.48v2.687h3.493V0Z"/>
</svg>
