<svg xmlns="http://www.w3.org/2000/svg" width="30" height="25" fill="none" viewBox="0 0 44 25">
  <path stroke="silver" stroke-linecap="round" stroke-linejoin="round" stroke-width="2" d="M17.853 5.887c-2.913 4.38-2.344 10.13 1.372 13.89 3.657 3.708 9.54 4.287 13.888 1.37a11.006 11.006 0 0 0 4.05-4.937 11 11 0 0 0 .622-6.37 10.997 10.997 0 0 0-3.015-5.618 10.999 10.999 0 0 0-5.625-3.011 11 11 0 0 0-11.292 4.677Z" clip-rule="evenodd"/>
  <path fill="silver" d="M36.473 16.351a2.136 2.136 0 0 0-2.974.465 2.11 2.11 0 0 0 .467 2.958l2.507-3.423Zm4.144 8.243c.95.688 2.282.48 2.975-.465a2.11 2.11 0 0 0-.468-2.958l-2.507 3.423ZM7.807 13.706a2.123 2.123 0 0 0 2.128-2.118c0-1.17-.953-2.118-2.129-2.118v4.236ZM2.128 9.47A2.123 2.123 0 0 0 0 11.588c0 1.17.953 2.118 2.129 2.118V9.47Zm5.677 12.706a2.123 2.123 0 0 0 2.13-2.117c0-1.17-.954-2.118-2.13-2.118v4.235ZM2.13 17.941A2.123 2.123 0 0 0 0 20.059c0 1.17.953 2.117 2.129 2.117v-4.235Zm8.516-12.706c1.176 0 2.13-.948 2.13-2.117 0-1.17-.954-2.118-2.13-2.118v4.235ZM2.13 1A2.123 2.123 0 0 0 0 3.118c0 1.17.953 2.117 2.129 2.117V1Zm31.837 18.774 6.651 4.82 2.507-3.423-6.65-4.82-2.508 3.423ZM7.806 9.47H2.13v4.236h5.677V9.47Zm0 8.471H2.13v4.235h5.677v-4.235ZM10.646 1H2.128v4.235h8.516V1Z"/>
</svg>
