<svg xmlns="http://www.w3.org/2000/svg" width="638" height="490" fill="none" viewBox="0 0 638 490">
  <g clip-path="url(#a)">
    <path fill="#4AB0BA" d="M378.716 80.788c-39.672-1.63-77.456-16.78-113.535-33.359-36.08-16.578-71.842-34.946-110.545-43.732-24.905-5.647-53.384-6.444-73.471 9.35-19.31 15.204-25.55 41.445-28.902 65.797-2.526 18.32-4.01 37.602 2.905 54.75 4.8 11.906 13.326 21.918 19.223 33.322 20.516 39.686 6.013 88.617-16.213 127.371-10.42 18.172-22.527 35.517-30.576 54.866-8.048 19.349-11.769 41.519-4.726 61.255 6.976 19.564 23.606 34.26 41.622 44.596 36.588 20.993 79.687 26.977 121.743 30.404 93.063 7.529 186.628 4.292 279.941 1.005 34.529-1.226 69.218-2.452 103.189-8.755 18.868-3.507 38.342-9.073 52.036-22.519 17.39-17.062 21.699-45.982 10.046-67.355-19.541-35.89-73.557-44.805-87.232-83.326-7.516-21.201.202-44.817 11.131-64.479 23.434-42.181 62.726-79.188 64.792-127.402 1.422-33.107-17.464-66.276-46.666-81.94-30.606-16.425-73.055-14.36-95.625 12.825-23.244 27.995-64.105 38.767-99.137 37.326Z" opacity=".1"/>
    <path fill="url(#b)" d="m261.061 160.35-32.659 5.119-16.735 1.594-4.462.429s-7.969 1.263-8.747 0c-.779-1.263-16.134 0-16.134 0s-9.329-11.121-31.495-5.248a16.366 16.366 0 0 1-7.355 2.256 1.014 1.014 0 0 1 0-.135c.079-2.556-.239-11.373-8.018-16.198a17.103 17.103 0 0 0-6.32 1.938l-.178.098-.527.306-.067.074c.229-1.009.385-2.034.466-3.066 0-.386 0-.772.042-1.158a4.058 4.058 0 0 0 2.213-1.545 2.73 2.73 0 0 0 .276-1.441v-.54a.749.749 0 0 1 0-.116v.037a35.867 35.867 0 0 0-.797-5.396l2.403 1.594c.576.381 1.3.785 1.986.571a1.51 1.51 0 0 0 .932-.975c.429-1.165.116-2.557 1.024-3.519.214-.227.484-.411.668-.65.25-.328.37-.736.337-1.147a4.131 4.131 0 0 0-.055-.711v.049a4.244 4.244 0 0 1-.074-1.839 1.592 1.592 0 0 0 1.839-.509c.33-.517.492-1.123.466-1.735a41.72 41.72 0 0 0 .074-3.151.215.215 0 0 0 0-.062c-.062-2.495-.534-4.954-2.25-6.946.447-2.857-2.66-5.972-6.13-6.364-.852-.092-1.9-.141-2.28-.785a2.172 2.172 0 0 1-.166-.969c-.085-1.085-.833-2.047-1.551-2.961a4.79 4.79 0 0 0-1.042-1.042c-1.14-.736-2.758-.54-4.168-.288-2.582.453-5.149.96-7.699 1.52a7.364 7.364 0 0 1 .055-3.752 6.613 6.613 0 0 0 .429-1.913 1.867 1.867 0 0 0-.067-.613v.08a3.016 3.016 0 0 0-.123-.301 1.535 1.535 0 0 0-1.226-.797 1.722 1.722 0 0 0-1.606.969 19 19 0 0 0-2.972 7.051 7.125 7.125 0 0 0-6.749-.761 5.84 5.84 0 0 1-1.772.614 2.962 2.962 0 0 1-2.556-1.453c-.705-1.049-1.018-2.3-2.378-2.992a2.145 2.145 0 0 0-1.962 0 1.329 1.329 0 0 0-.662.809.471.471 0 0 0 0-.092c-.01.09-.01.18 0 .27v.245c-.049 1.183.779 2.716-.16 3.648a3.506 3.506 0 0 1-1.287.68l-3.334 1.196a18.892 18.892 0 0 1-5.584 1.373c-1.747.062-3.513-.325-5.235-.282a1.781 1.781 0 0 1-.233-.141 9.194 9.194 0 0 0-1.146.135 1.2 1.2 0 0 0 .122.135h-.122a6.374 6.374 0 0 0 3.316 1.95c.79.196 1.624.257 2.39.502.767.246 1.496.736 1.63 1.411a3.204 3.204 0 0 1-.391 1.618l-.031-.049c-.08.218-.12.449-.117.681a1.231 1.231 0 0 0 0 .331 1.686 1.686 0 0 0 1.93 1.097l-3.94 2.483a5.107 5.107 0 0 0-.821.613l-.11-.03a1.142 1.142 0 0 0-.344.846.8.8 0 0 0 .043.355l1.269.362-3.464 4.794a5.687 5.687 0 0 0-.551.889l-.037-.061c-.079.195-.12.403-.123.613a1.343 1.343 0 0 0 0 .313 1.23 1.23 0 0 0 1.06 1.01c.173.021.349.005.516-.048a8.696 8.696 0 0 0-1.802 2.643l-.056-.037-.055.129c-.086.193-.13.402-.129.613a.687.687 0 0 0 .092.466 1.414 1.414 0 0 0 1.226.423c1.84 0 3.55-1.257 3.838-2.759.564.613-.043 1.343-.577 1.974-2.17 2.538-4.376 5.12-5.516 8.081a10.774 10.774 0 0 0-.724 3.176v-.074.239a7.867 7.867 0 0 0 1.79 5.616c.482.489.913 1.025 1.287 1.6.687 1.276.295 2.913 1.361 3.992a46.284 46.284 0 0 1 3.114-6.646 7.397 7.397 0 0 1-.257 1.704v-.049c0 .147-.05.288-.061.429a2.636 2.636 0 0 0 0 .313 1.748 1.748 0 0 0 1.084 1.753c1.085.387 2.207-.398 2.943-1.183.104.27.208.533.325.797a21.962 21.962 0 0 0 11.536 11.25l.098.203c-4.138 2.452-13.755 8.418-14.38 10.704-.803 2.919-.516 10.595 5.246 12.152 1.247.34 2.541.477 3.832.405-.246.386-.485.778-.718 1.158-1.593 2.588-2.93 4.985-3.334 6.272-1.165 3.759-12.051 8.308-12.051 8.308s-9.918 7.97-12.051 23.298c0 0-10.5 13.647-16.33 16.492-5.83 2.845-15.938 20.281-15.938 20.281s-10.01 7.026-12.137 13.875c-2.127 6.848-7.355 8.534-7.355 8.534s.478.233 1.226.699c-.24.129-.49.276-.773.447C8.533 291.338-1.968 299.094.355 311.19c2.256 11.649 15.423.313 21.822-6.027l.577-.576c-.098.653-.233 1.3-.405 1.937a24.36 24.36 0 0 1 5.088-5.714 19.835 19.835 0 0 0 5.155-6.321c.968-1.839 2.52-3.678 4.904-4.291 5.247-1.325 31.875-21.796 37.716-32.415 5.842-10.619 18.077-14.714 18.077-14.714l5.615 17.565a16.402 16.402 0 0 1 .435 8.307c-1.226 5.984-2.764 17.547.95 26.542 0 0 .172-.16.485-.424a394.927 394.927 0 0 1 1.747 8.228c.141.724.275 1.447.404 2.158.374 2.005.687 3.887.864 5.389.779 6.45 2.918 21.238 4.665 22.753 1.747 1.514 11.647 32.224 11.647 32.224s8.747 20.097 7.392 29.006a12.727 12.727 0 0 0 .055 3.28 51.17 51.17 0 0 0 1.337 6.566c.171.65.343 1.312.539 1.986.16.583.331 1.178.503 1.772 4.235 14.377 12.339 33.598 12.339 33.598s.674 1.747 1.551 4.083c.288.785.613 1.637.925 2.514 1.441 3.924 2.961 8.326 2.961 9.325 0 .227.307.478.84.736a59.143 59.143 0 0 0-3.678 7.185c-1.704 4.022-6.608 8.007-6.608 8.007s-5.835 1.656-5.835 6.744v3.888s12.394-.24 16.476.901c4.083 1.14 9.526-.81 9.526-.81l1.165-1.508s14.141.613 15.018-2.9c.257-1.03.245-3.225.037-5.842a75.464 75.464 0 0 0-1.41-9.497c.931-.037 1.569-.098 1.569-.098s6.467 4.169 7.141 8.295a8.499 8.499 0 0 0 4.034 5.873s6.712 3.066 19.584 1.662c6.743-.718 8.012-4.151 7.393-7.204-.564-2.796-2.722-5.273-3.746-5.071-2.133.43-10.739-11.943-10.739-11.943l-4.371-9.196c.393-4.905-.76-7.229-2.378-8.216 1.11-10.343 1.257-24.205 1.257-24.205s.974-16.682 0-31.66c-.975-14.978-.975-44.358-4.291-54.216-1.533-4.586-3.752-17.431-5.676-29.852-.147-.932-.295-1.839-.429-2.777a1127.32 1127.32 0 0 1-1.306-8.749c.19-.092.386-.184.558-.282l-1.042-9.099-.147-1.257c.036.037.085.062.122.092 3.5 3.219-1.164-14.597-1.164-14.597s-2.103-20.49-1.962-32.274c.013-4.193-.21-8.383-.668-12.55-.356-3.507.472-8.062 5.768-11.269a26.128 26.128 0 0 0 3.899-3.01c1.477-1.343 4.701-3.066 11.646-3.268 11.647-.374 23.293-6.444 23.293-6.444s13.418.761 19.616-7.203c6.197-7.965 21.773-9.853 21.773-9.853l-1.907-16.124ZM20.896 294.857l-1.722-2.415a17.93 17.93 0 0 1 1.722 2.415Zm146.606 98.617a60.037 60.037 0 0 0-.184 4.292c-.049 5.076.454 11.845 2.74 18.313l-.974 25.474h-.08c-.821-.086-1.587 2.514-2.182 5.941a27.022 27.022 0 0 0-1.802-4.102c-1.165-1.704-.19-11.176-.19-11.176s-4.867-7.775-5.247-9.485c-.38-1.711-6.228-29.386-6.228-29.386s-.386-21.605-2.526-27.099c-2.139-5.493-2.721-29.386-2.721-29.386s10.69 17.247 11.475 25.971l8.355 26.731s-.258 1.46-.436 3.912Z"/>
    <path fill="#63667E" d="M190.887 413.951s-.318 30.33-3.512 34.456c-3.194 4.127-19.897.191-19.897.191l1.226-33.335c-2.213-6.4-2.703-13.108-2.648-18.135 0-1.606.079-3.066.171-4.249.178-2.452.423-3.899.423-3.899l-8.073-26.474c-.754-8.644-11.076-25.75-11.076-25.75s.564 23.66 2.63 29.104c2.065 5.444 2.451 26.848 2.451 26.848s5.634 27.417 6.008 29.109c.374 1.693 5.069 9.387 5.069 9.387s-.938 9.386.19 11.079c1.128 1.692 5.817 14.837 4.689 17.277-1.128 2.44-21.399-.944-21.399-2.821 0-.987-1.471-5.352-2.862-9.239l-.895-2.489c-.846-2.311-1.502-4.04-1.502-4.04s-7.822-19.043-11.91-33.286l-.491-1.747a88.637 88.637 0 0 1-.515-1.974 52.646 52.646 0 0 1-1.293-6.499 13.036 13.036 0 0 1-.055-3.249c1.312-8.829-7.135-28.73-7.135-28.73s-9.575-30.422-11.267-31.924c-1.692-1.502-3.757-16.143-4.505-22.531-.172-1.496-.472-3.36-.834-5.34-.122-.706-.257-1.423-.392-2.146-1.146-5.917-2.556-12.042-2.556-12.042l21.056-13.898 55.382-6.009s1.545 11.87 3.488 24.953c.135.908.276 1.84.417 2.753 1.839 12.299 4.003 25.027 5.48 29.564 3.187 9.766 3.187 38.87 4.131 53.701.944 14.831.006 31.384.006 31.384Z"/>
    <path fill="#000" d="m136.412 288.941 6.97 35.59h3.31l-6.62-36.829-3.66 1.239ZM103.9 305.697c-.123-.705-.258-1.423-.392-2.146 3.242-.662 10.58-3.366 9.439-14.206h2.25s2.133 14.279-11.297 16.352Zm77.394-6.37c-4.205.772-17.347 3.034-20.099 1.538-3.28-1.784-6.522-11.452-6.522-11.452l3.003-.472s-2.648 14.181 23.202 7.633c.135.907.276 1.827.416 2.753Z" opacity=".1"/>
    <path fill="#33363D" d="M180.16 287.629c-3.788 2.201-12.682 3.261-23.035 3.678-.944.037-1.894.074-2.863.098-16.783.528-36.38-.423-44.19-.87-2.2-.123-3.463-.209-3.463-.209l6.853-4.739 11.267-4.132 23.698-4.647 30.366-.847.307 2.606 1.06 9.062Z"/>
    <path fill="#63667E" d="M157.125 291.332a212.9 212.9 0 0 1-2.863.098c-1.189-5.04-4.94-13.096-4.94-13.096l3.187-.423 4.616 13.421Z"/>
    <path fill="#FFA2A2" d="M29.264 301.785s-1.325 1.533-3.36 3.605c-6.178 6.284-18.898 17.51-21.068 5.972-2.25-11.962 7.896-19.619 12.487-22.452a29.61 29.61 0 0 1 2.151-1.226l9.79 14.101Z"/>
    <path fill="#CED7E7" d="M143.032 166.658s-7.178-4.506-8.514-4.083c-1.336.423 0 6.468 0 6.468a17.565 17.565 0 0 1-7.815 7.615 109.817 109.817 0 0 0-11.126 6.683 19.938 19.938 0 0 0-15.324 5.07 12.26 12.26 0 0 1-9.924 1.692c-5.566-1.545-5.842-9.147-5.07-12.035.613-2.268 9.894-8.154 13.89-10.606 1.104-.675 1.802-1.086 1.802-1.086s18.034-.613 22.104-8.307a15.037 15.037 0 0 1 5.407-5.788l.104-.055.515-.307.166-.091a16.207 16.207 0 0 1 6.129-1.926c8.809 5.629 7.656 16.756 7.656 16.756Z"/>
    <path fill="#000" d="M143.032 166.658s-7.178-4.506-8.514-4.083c-1.336.423 0 6.468 0 6.468a17.565 17.565 0 0 1-7.815 7.615 109.817 109.817 0 0 0-11.126 6.683 19.938 19.938 0 0 0-15.324 5.07 12.26 12.26 0 0 1-9.924 1.692c-5.566-1.545-5.842-9.147-5.07-12.035.613-2.268 9.894-8.154 13.89-10.606 1.104-.675 1.802-1.086 1.802-1.086s18.034-.613 22.104-8.307a15.037 15.037 0 0 1 5.407-5.788l.104-.055.515-.307.166-.091a16.207 16.207 0 0 1 6.129-1.926c8.809 5.629 7.656 16.756 7.656 16.756ZM179.1 278.592c-3.377-3.195-24.403 2.624-24.403 2.624s-14.478 4.156-25.524 4.831c-1.504.1-3.012.118-4.518.055-4.64-.239-9.476 1.637-13.534 3.887l-1.024.613c-2.2-.122-3.463-.208-3.463-.208l6.853-4.739 11.266-4.133 23.698-4.647 30.367-.846.282 2.563ZM25.904 305.39c1.404-9.356-5.854-14.794-8.581-16.48a29.61 29.61 0 0 1 2.151-1.226l9.808 14.101s-1.343 1.533-3.378 3.605Z" opacity=".1"/>
    <path fill="#CED7E7" d="M258.493 177.927s-15.024 1.839-21.025 9.761c-6.001 7.921-18.966 7.136-18.966 7.136s-11.266 6.008-22.527 6.382c-6.687.221-9.807 1.901-11.23 3.231a25.136 25.136 0 0 1-3.763 2.986c-5.112 3.176-5.915 7.682-5.566 11.159.438 4.13.653 8.28.644 12.433-.135 11.649 1.894 31.967 1.894 31.967s4.505 17.651 1.121 14.463c-3.383-3.188-24.402 2.624-24.402 2.624s-14.479 4.157-25.525 4.838a41.76 41.76 0 0 1-4.517.049c-4.641-.24-9.477 1.637-13.535 3.893a54.995 54.995 0 0 0-9.74 6.995c-3.592-8.908-2.096-20.367-.92-26.289.55-2.735.407-5.563-.416-8.228l-5.425-17.4s-11.825 4.034-17.458 14.549c-5.633 10.515-31.354 30.796-36.43 32.114-2.322.613-3.818 2.422-4.756 4.224a19.477 19.477 0 0 1-4.971 6.266 23.962 23.962 0 0 0-4.904 5.659c3.384-12.771-9.195-18.969-9.195-18.969s5.064-1.692 7.13-8.437c2.065-6.744 11.646-13.702 11.646-13.702s9.765-17.277 15.398-20.098c5.633-2.82 15.772-16.333 15.772-16.333 2.06-15.21 11.646-23.095 11.646-23.095s10.52-4.506 11.647-8.228c.392-1.275 1.68-3.648 3.218-6.21a189.424 189.424 0 0 1 4.383-6.99c1.318-2.005 2.354-3.55 2.354-3.55l16.857-.159 3.065-.031 8.98-16.909s3.193-3.188 8.728.564a8.887 8.887 0 0 0 5.395 1.484 15.617 15.617 0 0 0 7.092-2.232c21.405-5.824 30.416 5.199 30.416 5.199s14.828-1.257 15.576 0c.747 1.257 8.446 0 8.446 0l20.468-2.011 31.544-5.064 1.851 15.959Z"/>
    <path fill="#FFA2A2" d="m135.333 172.293-9.574 15.769s-26.095 18.969-22.337 4.132a24.76 24.76 0 0 0 .643-7.633c-.055-1-.171-1.999-.318-2.986a48.465 48.465 0 0 0-3.58-11.863c-.19-.454-.386-.889-.613-1.319-.294-.613-.582-1.226-.87-1.802a59.961 59.961 0 0 0-4.114-7.069s28.351-23.095 29.288-8.639a29.624 29.624 0 0 0 2.207 9.497l.221.509a29.468 29.468 0 0 0 6.675 9.46c.74.708 1.533 1.358 2.372 1.944Z"/>
    <path fill="#CED7E7" d="m97.415 186.94 4.413 13.138 17.954 2.913 10.298-11.331s5.915-8.448 6.289-8.638c.374-.19 1.312-8.258 1.312-8.258l1.103-4.562-6.945-2.336-9.764 10.607-3.991 2.452-4.432 1.079-14.711 4.292-1.526.644Z"/>
    <path fill="#000" d="M143.032 167.786s-4.903-.049-6.209.374-2.305 2.005-2.305 2.005a17.563 17.563 0 0 1-7.815 7.621 109.817 109.817 0 0 0-11.126 6.683 19.91 19.91 0 0 0-15.324 5.07 12.498 12.498 0 0 1-6.945 2.121 190.189 190.189 0 0 1 4.382-6.989c6.057-.662 18.874-3.01 18.874-3.01l.337-.699c1.189-2.452 5.217-10.735 6.7-13.237 1.729-2.918 7.147-12.035 7.319-12.323l-5.321 4.868 2.845-6.855.104-.055.515-.306.165-.092a16.198 16.198 0 0 1 6.13-1.925c6.712 4.291 7.668 11.71 7.742 15.051.01.567-.013 1.134-.068 1.698ZM99.13 166.34l1.392 3.065s-.116.098-.361.282c-.19-.454-.386-.889-.613-1.318-.295-.613-.583-1.226-.87-1.803.146-.085.281-.177.416-.251l.037.025Z" opacity=".1"/>
    <path fill="#000" d="M132.986 170.349a18.725 18.725 0 0 1-6.283 5.181 109.285 109.285 0 0 0-11.126 6.689 19.918 19.918 0 0 0-11.512 2.342c-.055-1-.171-1.999-.318-2.986 6.031-.932 12.817-2.176 12.817-2.176s5.284-10.981 7.037-13.936c.613-.993 1.618-2.728 2.709-4.574a29.47 29.47 0 0 0 6.676 9.46Z" opacity=".1"/>
    <path fill="#CED7E7" d="M143.032 166.658s-4.903-.049-6.215.374c-1.312.423-2.299 2.011-2.299 2.011a17.565 17.565 0 0 1-7.815 7.615 109.817 109.817 0 0 0-11.126 6.683 19.933 19.933 0 0 0-15.324 5.07 12.26 12.26 0 0 1-9.924 1.692c-5.566-1.545-5.842-9.147-5.07-12.035.613-2.268 9.894-8.154 13.89-10.606l1.392 3.096a86.953 86.953 0 0 1-9.09 6.1c-5.99 3.587-2.961 7.461-2.961 7.461a30.968 30.968 0 0 1 6.528-.429c3.102.209 21.546-3.17 21.546-3.17s5.284-10.986 7.037-13.935c1.753-2.949 7.147-12.035 7.319-12.323l-5.321 4.904 2.845-6.854.104-.055.515-.307.165-.092a16.215 16.215 0 0 1 6.13-1.925c8.827 5.598 7.674 16.725 7.674 16.725Z"/>
    <path fill="#000" d="M126.09 160.393a21.415 21.415 0 0 1-26.536 8 62.233 62.233 0 0 0-4.984-8.871s28.351-23.095 29.288-8.639a29.585 29.585 0 0 0 2.232 9.51Z" opacity=".1"/>
    <path fill="#FFA2A2" d="M128.977 147.634a21.457 21.457 0 0 1-22.598 21.471 21.45 21.45 0 0 1-14.68-6.938 21.461 21.461 0 0 1 1.047-30.047 21.447 21.447 0 0 1 30.056.494 21.462 21.462 0 0 1 6.175 15.02Z"/>
    <path fill="#000" d="M73.386 216.607s4.714 8.823 10.512 13.679c5.8 4.855 9.195 12.396 9.195 12.396s-1.686-14.622-19.707-26.075Z" opacity=".1"/>
    <path fill="#000" d="M66.06 238.765s16.551-4.132 24.881 0h-24.88Zm-6.007 24.628 17.808-6.131s-11.408 8.166-17.808 6.131Zm-30.789 24.003s7.699-.374 10.138 2.066c0 0-7.509.564-10.138-2.066Zm179.651-118.782s-17.261 10.251-18.028 26.774l18.028-26.774Zm20.854 15.505s-21.405 4.323-24.973 6.573c-3.567 2.25-11.26 3.378-11.26 3.378s30.973-4.126 36.233-9.951Zm-62.788 90.622c-1.557 1.619-20.773 6.18-37.949 9.994a43.29 43.29 0 0 1-4.683.055c-4.812-.245-9.808 1.686-14.037 4.004-5.186 1.103-8.539 1.796-8.539 1.796s-5.646-4.451 2.139-14.5c7.785-10.048 9.152-25.903 9.152-25.903l34.658-8.866s9.348 12.875 13.822 14.942c4.475 2.066 8.318 15.499 5.437 18.478Z" opacity=".1"/>
    <path fill="#CED7E7" d="M165.755 275.189c-1.507 1.582-20.038 6.008-36.6 9.718a41.775 41.775 0 0 1-4.518.049c-4.64-.24-9.477 1.637-13.535 3.893-5.002 1.067-8.238 1.741-8.238 1.741s-5.443-4.322 2.066-14.101c7.509-9.779 8.82-25.168 8.82-25.168l33.42-8.632s9.011 12.507 13.326 14.518c4.316 2.011 8.018 15.094 5.259 17.982Z"/>
    <path fill="#000" d="m138.625 398.274-9.648 5.714a52.82 52.82 0 0 1-1.294-6.498c1.404 1.171 10.942.784 10.942.784Zm-9.121 7.689c3.408-.65 11.499-2.269 15.937-3.789-4.021 1.962-11.297 5.242-15.428 5.518-.19-.571-.35-1.159-.509-1.729Zm18.782-5.236c-.356.435-1.398.926-2.838 1.422a55.72 55.72 0 0 0 2.838-1.422Zm5.823 47.208c-2.734.227-7.178-.141-9.808-.41l-.895-2.49c2.814.301 8.398.773 10.703.086 3.144-.932 4.088 2.489 0 2.814Zm24.427-49.9c-.454-.061-7.748-.883-12.443-.907 0-1.606.079-3.066.171-4.249 3.237 1.367 11.788 4.991 12.272 5.156Z" opacity=".1"/>
    <path fill="#CED7E7" d="M173.166 478.78c-.846 3.489-14.503 2.876-14.503 2.876l-1.128 1.496s-5.253 1.925-9.194.797c-3.942-1.128-15.938-.889-15.938-.889v-3.857c0-5.021 5.634-6.664 5.634-6.664s4.738-3.942 6.381-7.934a59.454 59.454 0 0 1 3.561-7.179s-4.407-5.352 7.417-6.744c11.647-1.349 7.08 9.227 6.951 9.521.19-.171 4.561-4.101 6.988-2.863 1.753.902 3.341 9.436 3.838 15.616.226 2.624.239 4.8-.007 5.824Z"/>
    <path fill="#000" d="M173.166 478.78c-.846 3.489-14.503 2.876-14.503 2.876l-1.128 1.496s-5.253 1.925-9.194.797c-3.942-1.128-15.938-.889-15.938-.889v-3.679c7.221.356 21.675.834 24.924-.84 0 0 3.892-.987 4.787-1.643.754-.558 8.686-3.151 11.034-3.918.251 2.6.264 4.776.018 5.8Z" opacity=".1"/>
    <path fill="#CED7E7" d="M203.061 479.167c-12.437 1.361-18.916-1.65-18.916-1.65a8.378 8.378 0 0 1-3.893-5.818c-.655-4.083-6.902-8.209-6.902-8.209s-7.693.748-8.637-1.509a10.197 10.197 0 0 1-.257-2.924c0-6.051 1.514-18.761 3.261-18.577 2.06.227 8.428 8.663 9.066 9.509-.558-.907-6.099-10.355 6.191-11.477 0 0 10.041-5.677 9.011 7.56l4.223 9.104s8.312 12.262 10.372 11.833c.987-.202 3.065 2.25 3.616 5.021.595 3.023-.637 6.425-7.135 7.137Z"/>
    <path fill="#000" d="M128.977 147.634c0 .535-.019 1.063-.055 1.582l-.521.196-2.017.736c-.34.145-.703.229-1.073.245a1.904 1.904 0 0 1-1.465-.791 4.399 4.399 0 0 1-.613-1.453l-1.526-5.867c-.307-1.165-.779-2.508-2.084-2.943a8.25 8.25 0 0 1-1.122-.331c-.815-.387-.987-1.294-1.263-2.054-.613-1.772-2.249-3.188-4.021-4.292a7.252 7.252 0 0 0-4.082-1.312 3.535 3.535 0 0 0-2.152.773c-1.281 1.085-1.103 2.55-.95 4.095.153 1.545.564 3.194.11 4.739-.306 1.006-.962 1.944-1.078 2.986-.099.84.177 1.692.128 2.532a2.007 2.007 0 0 1-1.593 1.925c-.08-.509-.822-.674-1.318-.95-1.122-.613-1.183-1.95-1.134-3.065.085-1.668.165-3.342.245-5.009a76.912 76.912 0 0 1-2.299 11.035 3.627 3.627 0 0 1-.846 1.692 1.777 1.777 0 0 1-1.955.374 1.869 1.869 0 0 1-.79-1.036 12.21 12.21 0 0 1-.786-6.131c-.68 2.716-1.36 5.463-2.672 8.013-.521 1.012-1.312 2.11-2.593 2.312a4.42 4.42 0 0 0-1.152.19c-.15.071-.285.169-.399.288a21.407 21.407 0 0 1 15.342-29.388 21.394 21.394 0 0 1 23.638 11.735 21.42 21.42 0 0 1 2.09 9.168l.006.006Z" opacity=".1"/>
    <path fill="#896363" d="M106.983 131.025a3.524 3.524 0 0 1 2.152-.779 7.286 7.286 0 0 1 4.082 1.313c1.772 1.079 3.384 2.489 4.021 4.291.276.76.442 1.674 1.226 2.06a9.72 9.72 0 0 0 1.122.325c1.312.435 1.784 1.778 2.084 2.943l1.539 5.867c.1.517.297 1.011.582 1.453a1.906 1.906 0 0 0 1.465.797 3 3 0 0 0 1.079-.251l2.017-.736c1.06-.386 2.212-.846 2.697-1.741a3.333 3.333 0 0 0 .245-1.839 36.413 36.413 0 0 0-.785-5.567l2.317 1.576c.558.374 1.257.772 1.919.564a1.485 1.485 0 0 0 .901-.969c.417-1.153.116-2.532.987-3.482.208-.221.466-.411.65-.644.79-1.018-.147-2.397.177-3.587a1.528 1.528 0 0 0 1.79-.509 3 3 0 0 0 .448-1.716c.184-3.464.27-7.217-2.103-10.037.436-2.832-2.568-5.916-5.89-6.302-.828-.099-1.839-.148-2.201-.779a2.16 2.16 0 0 1-.166-.963c-.085-1.073-.803-2.029-1.495-2.93a4.473 4.473 0 0 0-1.005-1.036c-1.098-.724-2.661-.528-4.022-.282a166.85 166.85 0 0 0-7.441 1.502 7.464 7.464 0 0 1 .055-3.679c.251-.907.68-1.839.215-2.747a1.468 1.468 0 0 0-1.226-.79 1.658 1.658 0 0 0-1.551.962 19.05 19.05 0 0 0-2.869 6.977 6.75 6.75 0 0 0-6.449-.736 5.439 5.439 0 0 1-1.704.614 2.882 2.882 0 0 1-2.452-1.441c-.674-1.043-.98-2.281-2.292-2.962a2.03 2.03 0 0 0-1.894 0c-1.735 1.012.429 3.52-.858 4.838a3.397 3.397 0 0 1-1.226.674l-3.218 1.184a17.686 17.686 0 0 1-5.395 1.354c-2.133.086-4.29-.57-6.387-.128a6.17 6.17 0 0 0 3.206 1.931c.76.19 1.563.251 2.305.497a2.164 2.164 0 0 1 1.575 1.397c.166.865-.668 1.699-.502 2.563a1.637 1.637 0 0 0 1.838 1.085l-3.806 2.453c-.687.441-1.453 1.085-1.195 1.784l1.225.355-3.303 4.74a2.727 2.727 0 0 0-.693 1.741 1.22 1.22 0 0 0 .553.806 1.228 1.228 0 0 0 .967.144 8.857 8.857 0 0 0-1.839 2.857 1.008 1.008 0 0 0-.03.914 1.352 1.352 0 0 0 1.159.423c1.777 0 3.426-1.226 3.677-2.741.546.613-.037 1.337-.558 1.956-2.09 2.514-4.223 5.076-5.333 8.007-1.11 2.931-1.06 6.352 1.018 8.872.46.487.87 1.019 1.226 1.588.662 1.263.282 2.881 1.311 3.954a46.377 46.377 0 0 1 3.004-6.585 19.653 19.653 0 0 1-.325 2.214 1.838 1.838 0 0 0 1.048 1.9c1.08.393 2.201-.447 2.906-1.226.175-.232.4-.422.656-.558a4.642 4.642 0 0 1 1.146-.19c1.281-.202 2.066-1.294 2.593-2.311 1.312-2.545 1.998-5.291 2.672-8.02a12.13 12.13 0 0 0 .791 6.131c.127.43.406.798.785 1.036a1.791 1.791 0 0 0 1.955-.38c.428-.478.72-1.062.846-1.692a77.626 77.626 0 0 0 2.299-11.036l-.245 5.009c-.056 1.129 0 2.453 1.128 3.066.508.276 1.225.441 1.324.944a1.982 1.982 0 0 0 1.587-1.919c.055-.846-.22-1.692-.122-2.538.116-1.036.778-1.974 1.078-2.986.454-1.539.056-3.151-.11-4.733-.165-1.582-.257-3.035 1.042-4.114Z"/>
    <path fill="#000" d="M203.061 479.167c-12.437 1.361-18.916-1.65-18.916-1.65a8.37 8.37 0 0 1-3.893-5.818c-.655-4.083-6.902-8.209-6.902-8.209s-7.693.748-8.637-1.509a10.197 10.197 0 0 1-.257-2.924c2.844.681 9.397 2.244 11.426 2.826 2.636.748 10.335 13.237 10.335 13.237 7.411 3.899 19.676-1.103 23.979-3.065.595 2.998-.637 6.4-7.135 7.112Zm-55.082-21.741s-3.788 5.812 14.368 2.808l-14.368-2.808Zm28.81-7.437s19.149 4.163 15.202-3.917l-15.202 3.917ZM84.842 119.033a1.698 1.698 0 0 0-.098.852 1.3 1.3 0 0 0 .576.797l1.294-.834a1.706 1.706 0 0 1-1.772-.815Zm-3.506-3.599c.766.19 1.57.251 2.31.497a2.45 2.45 0 0 1 1.478 1.116c.106-.269.14-.561.098-.847a2.169 2.169 0 0 0-1.575-1.397c-.742-.246-1.545-.307-2.311-.497a6.515 6.515 0 0 1-2.09-.938 6.68 6.68 0 0 0-1.11.135 6.183 6.183 0 0 0 3.2 1.931Zm2.684 35.682a46.37 46.37 0 0 0-3.009 6.585c-1.023-1.073-.65-2.691-1.312-3.954a9.737 9.737 0 0 0-1.225-1.588 7.703 7.703 0 0 1-1.723-4.519 7.974 7.974 0 0 0 1.722 5.647 9.78 9.78 0 0 1 1.226 1.588c.662 1.263.288 2.875 1.312 3.954a46.722 46.722 0 0 1 2.79-6.174 6.562 6.562 0 0 0 .22-1.539Zm-5.068-19.839a1.538 1.538 0 0 0-.13.772 1.234 1.234 0 0 0 .67.877c.255-.373.54-.726.851-1.055a1.18 1.18 0 0 1-1.391-.594Zm36.282-24.15a6.92 6.92 0 0 1 .227-1.423c.22-.785.563-1.582.349-2.379-.086.417-.233.84-.349 1.227a7.308 7.308 0 0 0-.227 2.575Zm-20.645-.687a6.17 6.17 0 0 0 .165 2.127 6.075 6.075 0 0 0-.165-2.127Zm-11.261 26.884c-.276 1.49-1.93 2.71-3.678 2.741-.386.03-.77-.088-1.072-.331l-.055.122a1.025 1.025 0 0 0-.037.914 1.361 1.361 0 0 0 1.164.417 4.163 4.163 0 0 0 2.054-.583c.362-.447.73-.889 1.091-1.324.192-.22.368-.454.527-.699a.977.977 0 0 0 .03-.129v.031a.922.922 0 0 0-.024-1.159Zm-1.446-9.153a1.016 1.016 0 0 0-.295 1.042l.577.166.65-.939-.932-.269Zm55.431 10.76c-.184.233-.441.423-.65.613-.876.95-.57 2.329-.986 3.482a1.49 1.49 0 0 1-.902.969c-.662.208-1.36-.19-1.918-.564l-2.317-1.576c.092.429.178.865.257 1.3l2.06 1.398c.558.38 1.256.778 1.918.57a1.5 1.5 0 0 0 .902-.969c.416-1.152.11-2.532.986-3.482.209-.227.466-.411.65-.644a2.08 2.08 0 0 0 .264-1.692 1.44 1.44 0 0 1-.264.595Zm-6.001 9.521c-.026.28-.105.553-.233.803-.484.895-1.637 1.355-2.703 1.741l-2.011.736a3.136 3.136 0 0 1-1.078.251 1.893 1.893 0 0 1-1.466-.797 4.277 4.277 0 0 1-.612-1.453l-1.533-5.867c-.306-1.165-.772-2.508-2.084-2.943a9.72 9.72 0 0 1-1.122-.325c-.815-.392-.987-1.3-1.226-2.06-.613-1.778-2.249-3.188-4.021-4.292a7.319 7.319 0 0 0-4.082-1.312 3.51 3.51 0 0 0-2.152.779c-1.024.865-1.116 1.974-1.036 3.176a2.91 2.91 0 0 1 1.036-2.054 3.587 3.587 0 0 1 2.152-.779 7.405 7.405 0 0 1 4.082 1.312c1.772 1.086 3.384 2.496 4.021 4.292.27.76.442 1.668 1.226 2.06a9.72 9.72 0 0 0 1.122.325c1.312.435 1.778 1.778 2.084 2.943l1.533 5.861c.111.519.319 1.012.612 1.453a1.885 1.885 0 0 0 1.466.803 3.286 3.286 0 0 0 1.078-.251l1.999-.723c1.066-.387 2.219-.847 2.703-1.742a3.333 3.333 0 0 0 .245-1.839.248.248 0 0 0 0-.098Zm8.416-15.327a2.991 2.991 0 0 1-.447 1.716 1.534 1.534 0 0 1-1.79.509 2.88 2.88 0 0 0 0 1.226v-.086a1.528 1.528 0 0 0 1.79-.508 3.012 3.012 0 0 0 .447-1.717c.056-.999.099-2.023.074-3.035a62.506 62.506 0 0 1-.074 1.895Zm-45.01 13.782a36.174 36.174 0 0 1-2.673 8.019c-.527 1.018-1.312 2.109-2.6 2.312a4.692 4.692 0 0 0-1.145.19 2.022 2.022 0 0 0-.65.558c-.705.797-1.84 1.637-2.906 1.226a1.588 1.588 0 0 1-.987-1.196c0 .147-.049.288-.06.429a1.796 1.796 0 0 0 1.047 1.895c1.08.398 2.2-.448 2.906-1.226a2.08 2.08 0 0 1 .65-.552c.371-.116.757-.18 1.146-.19 1.287-.202 2.072-1.294 2.599-2.311a34.692 34.692 0 0 0 2.568-7.609c.001-.517.036-1.033.105-1.545Zm6.675-5.923a77.626 77.626 0 0 1-2.299 11.036 3.552 3.552 0 0 1-.852 1.692 1.785 1.785 0 0 1-1.955.38 1.868 1.868 0 0 1-.779-1.036 12.261 12.261 0 0 1-.858-3.991c-.08 1.75.22 3.496.877 5.119.127.429.403.799.778 1.043a1.8 1.8 0 0 0 1.955-.38 3.573 3.573 0 0 0 .852-1.693 77.308 77.308 0 0 0 2.22-10.49l.061-1.68Zm4.744 1.595c-.3 1.011-.956 1.943-1.072 2.985-.04.336-.04.676 0 1.012.147-.993.766-1.895 1.054-2.869a6.147 6.147 0 0 0 .19-2.189 5.301 5.301 0 0 1-.172 1.061Zm-2.537 7.443c-.086-.503-.822-.669-1.324-.945a2.445 2.445 0 0 1-1.122-2.096v.141c-.055 1.128 0 2.452 1.128 3.065.502.276 1.226.435 1.324.944a2 2 0 0 0 1.587-1.925 5.16 5.16 0 0 0-.03-.87 1.935 1.935 0 0 1-1.563 1.686Z" opacity=".1"/>
    <path fill="#4E5A86" d="M294.665 490h-71.406a5.982 5.982 0 0 1-2.447-.52 5.97 5.97 0 0 1-3.487-6.144l17.384-147.757.362-3.121a5.97 5.97 0 0 1 5.927-5.272h37.49a5.967 5.967 0 0 1 5.934 5.334l.312 2.961 15.877 147.91a5.981 5.981 0 0 1-1.498 4.632 5.964 5.964 0 0 1-4.448 1.977Z"/>
    <path fill="#000" d="M239.638 344.855s2.623 67.03-7.509 92.578c0 0 1.054 5.444 3.904 0 2.851-5.444 12.615-62.156 7.92-91.634 0-.006-.962-3.2-4.315-.944Zm12.578 0s2.624 67.03-7.509 92.578c0 0 1.054 5.444 3.905 0 2.85-5.444 12.615-62.156 7.919-91.634 0-.006-.937-3.2-4.315-.944Zm30.618 0s-2.629 67.03 7.509 92.578c0 0-1.06 5.444-3.91 0-2.851-5.444-12.628-62.162-7.939-91.64 0 0 .944-3.194 4.34-.938Zm-12.596 0s-2.63 67.03 7.509 92.578c0 0-1.061 5.444-3.911 0-2.851-5.444-12.609-62.162-7.92-91.64 0 0 .944-3.194 4.322-.938Z" opacity=".1"/>
    <path fill="#4E5A86" d="M276.453 11.906h-33.934v296.145h33.934V11.906Z"/>
    <path fill="#000" d="M284.735 335.499a4.585 4.585 0 0 1-1.171.154h-48.15a4.39 4.39 0 0 1-.705-.056l.362-3.12a5.972 5.972 0 0 1 5.928-5.273h37.489a5.974 5.974 0 0 1 5.934 5.334l.313 2.961Zm-7.932-33.364h-34.284v5.916h34.284v-5.916Z" opacity=".1"/>
    <path fill="#4E5A86" d="M283.165 303.263h-47.358a4.904 4.904 0 0 0-4.904 4.904v21.453a4.904 4.904 0 0 0 4.904 4.905h47.358a4.904 4.904 0 0 0 4.904-4.905v-21.453a4.904 4.904 0 0 0-4.904-4.904Z"/>
    <path fill="#000" d="M249.678 11.906h-4.879v282.062h4.879V11.906Zm8.165 0h-4.879v282.062h4.879V11.906Zm8.165 0h-4.879v282.062h4.879V11.906Zm8.171 0H269.3v282.062h4.879V11.906Z" opacity=".1"/>
    <path fill="#FFA2A2" d="M278.574 153.305s-11.168-3.476-9.477 8.823c1.692 12.298 6.008 13.052 6.008 13.052s3.751-.846 4.223-5.726-.754-16.149-.754-16.149Z"/>
    <g opacity=".1">
      <path fill="#4AB0BA" d="M533.224 415.294c9.397 13.874 6.393 63.548 6.393 63.548s-47.199-15.634-56.627-29.509a30.362 30.362 0 0 1 8.116-42.156 30.347 30.347 0 0 1 42.148 8.117h-.03Z"/>
      <path fill="#000" d="M533.224 415.294c9.397 13.874 6.393 63.548 6.393 63.548s-47.199-15.634-56.627-29.509a30.362 30.362 0 0 1 8.116-42.156 30.347 30.347 0 0 1 42.148 8.117h-.03Z" opacity=".1"/>
      <path stroke="#535461" stroke-miterlimit="10" d="M491.278 407.226s35.393 27.332 48.523 71.652"/>
      <path fill="#4AB0BA" d="M548.714 441.228s-25.133-4.292-7.969 37.344c0 0 17.464-6.652 18.824-23.218a13.212 13.212 0 0 0-10.512-14.052l-.343-.074Z"/>
      <path stroke="#535461" stroke-miterlimit="10" d="M549.087 441.191s4.788 23.028-8.312 37.399"/>
    </g>
    <g opacity=".1">
      <path stroke="#535461" stroke-miterlimit="10" stroke-width="2" d="M273.67 373.751s37.748-96.257 109.914-132.669c30.293-15.278 55.204-39.483 70.278-69.893a263.702 263.702 0 0 0 17.298-44.977"/>
      <path fill="#4AB0BA" d="M516.502 102.994c-7.454 9.608-46.452 23.954-46.452 23.954S474.28 85.601 481.734 76a21.998 21.998 0 0 1 14.678-8.67 22.006 22.006 0 0 1 24.836 19.27 22.023 22.023 0 0 1-4.746 16.376v.018Zm-12.554 75.509c-11.475 4.01-52.011-5.15-52.011-5.15s26.021-32.402 37.496-36.411a22 22 0 0 1 28.034 13.521 22.01 22.01 0 0 1-.953 16.821 22.017 22.017 0 0 1-12.566 11.219Zm-71.81 89.923c-11.935-2.329-42.296-30.703-42.296-30.703s38.82-14.837 50.748-12.502a22.007 22.007 0 0 1 17.348 17.239c.573 2.833.582 5.751.027 8.588a22.004 22.004 0 0 1-25.821 17.378h-.006Zm-69.659 55.805c-12.15-.282-46.875-23.114-46.875-23.114s35.749-21.183 47.904-20.901c2.89.068 5.738.704 8.381 1.873a22 22 0 0 1 11.63 12.189 22.006 22.006 0 0 1 1.477 8.46 22.006 22.006 0 0 1-14.058 20.015 22.025 22.025 0 0 1-8.459 1.478Zm51.533-177.327c1.691 12.035 28.393 43.88 28.393 43.88s16.887-37.976 15.196-50.017a22.01 22.01 0 0 0-39.224-9.972 22.014 22.014 0 0 0-4.365 16.109Zm-80.65 66.258c5.217 10.993 40.193 33.377 40.193 33.377s4.757-41.292-.466-52.273a22.019 22.019 0 0 0-12.5-11.29 22.021 22.021 0 0 0-16.821.858 22.013 22.013 0 0 0-10.43 29.328h.024Zm-69.53 75.19c3.286 11.704 34.008 39.698 34.008 39.698s11.647-39.894 8.373-51.598a22.01 22.01 0 0 0-40.222-4.667 22.018 22.018 0 0 0-2.159 16.567Z"/>
    </g>
    <g opacity=".1">
      <path stroke="#535461" stroke-miterlimit="10" stroke-width="2" d="M267.424 200.379s13.639-34.781 39.709-47.926a56.614 56.614 0 0 0 25.389-25.247 95.243 95.243 0 0 0 6.253-16.248"/>
      <path fill="#4AB0BA" d="M355.166 102.577c-2.697 3.471-16.784 8.651-16.784 8.651s1.527-14.935 4.224-18.393a7.973 7.973 0 0 1 5.349-3.458 7.965 7.965 0 0 1 8.283 4.044 7.976 7.976 0 0 1 .566 6.345 7.974 7.974 0 0 1-1.638 2.811Zm-4.549 27.277c-4.143 1.447-18.787-1.839-18.787-1.839s9.397-11.71 13.54-13.157a7.957 7.957 0 0 1 8.977 1.926 7.977 7.977 0 0 1 2.093 5.988 7.98 7.98 0 0 1-2.942 5.62 7.975 7.975 0 0 1-2.881 1.481v-.019Zm-25.947 32.488c-4.291-.846-15.275-11.097-15.275-11.097s14.019-5.358 18.328-4.512a7.97 7.97 0 0 1 6.755 6.204 7.976 7.976 0 0 1-3.557 8.455 7.962 7.962 0 0 1-6.263.95h.012Zm-25.163 20.159c-4.389-.104-16.93-8.351-16.93-8.351s12.915-7.657 17.304-7.553a7.97 7.97 0 0 1-.374 15.904Zm18.61-64.075c.613 4.347 10.262 15.855 10.262 15.855s6.129-13.721 5.516-18.068a7.972 7.972 0 0 0-5.824-7.101 7.958 7.958 0 0 0-6.281.883 7.973 7.973 0 0 0-3.642 8.431h-.031Zm-29.153 23.948c1.888 3.966 14.534 12.059 14.534 12.059s1.716-14.916-.172-18.883a7.968 7.968 0 0 0-14.359.976 7.975 7.975 0 0 0-.003 5.848Zm-25.095 27.166c1.189 4.224 12.259 14.34 12.259 14.34s4.254-14.414 3.029-18.644a7.966 7.966 0 0 0-3.685-5.109 7.96 7.96 0 0 0-6.243-.838 7.978 7.978 0 0 0-4.901 3.958 7.987 7.987 0 0 0-.895 3.089 7.987 7.987 0 0 0 .399 3.192l.037.012Z"/>
    </g>
    <g opacity=".1">
      <path stroke="#535461" stroke-miterlimit="10" stroke-width="2" d="M382.29 488.866s.576-37.35 20.382-58.809a56.572 56.572 0 0 0 14.932-32.543 95.362 95.362 0 0 0 .153-17.412"/>
      <path fill="#4AB0BA" d="M430.158 366.51c-1.306 4.175-12.683 13.985-12.683 13.985s-3.8-14.531-2.495-18.724a7.97 7.97 0 0 1 15.178 4.733v.006Zm5.308 27.136c-3.378 2.808-18.248 4.849-18.248 4.849s4.695-14.261 8.072-17.075a7.971 7.971 0 0 1 10.816 1.344 7.97 7.97 0 0 1-.64 10.882Zm-12.873 39.52c-4.333.723-18.199-5.028-18.199-5.028s11.254-9.938 15.582-10.661a7.968 7.968 0 0 1 7.426 12.346 7.971 7.971 0 0 1-4.809 3.343Zm-16.55 27.706c-4.15 1.44-18.788-1.883-18.788-1.883s9.44-11.667 13.584-13.138a7.972 7.972 0 0 1 9.016 1.916 7.975 7.975 0 0 1 1.177 9.144 7.973 7.973 0 0 1-4.989 3.961Zm-5.008-66.534c2.096 3.863 15.165 11.251 15.165 11.251s.901-14.984-1.226-18.847a7.966 7.966 0 0 0-14.288 1.755 7.973 7.973 0 0 0 .318 5.841h.031Zm-18.898 32.648c3.157 3.065 17.837 6.192 17.837 6.192s-3.622-14.567-6.779-17.626a7.965 7.965 0 0 0-10.8.617 7.972 7.972 0 0 0-.234 10.817h-.024Zm-13.988 34.247c2.593 3.544 16.55 9.123 16.55 9.123s-1.109-14.978-3.678-18.521a7.969 7.969 0 0 0-12.829 9.398h-.043Z"/>
    </g>
    <g opacity=".1">
      <path stroke="#535461" stroke-miterlimit="10" stroke-width="2" d="M290.374 482.992s.576-37.356 20.381-58.814a56.562 56.562 0 0 0 14.932-32.543 95.208 95.208 0 0 0 .154-17.406"/>
      <path fill="#4AB0BA" d="M338.241 360.63c-1.305 4.194-12.682 13.991-12.682 13.991s-3.801-14.524-2.495-18.718a7.968 7.968 0 1 1 15.177 4.727Zm5.321 27.136c-3.378 2.814-18.249 4.85-18.249 4.85s4.696-14.261 8.073-17.069a7.97 7.97 0 0 1 10.176 12.219Zm-12.915 39.526c-4.334.718-18.2-5.033-18.2-5.033s11.255-9.939 15.582-10.656a7.97 7.97 0 1 1 2.618 15.689Zm-16.496 27.7c-4.15 1.447-18.787-1.882-18.787-1.882s9.415-11.692 13.559-13.145a7.975 7.975 0 0 1 8.975 1.936 7.966 7.966 0 0 1 1.194 9.106 7.976 7.976 0 0 1-2.057 2.503 7.985 7.985 0 0 1-2.884 1.476v.006Zm-5.032-66.527c2.096 3.862 15.165 11.25 15.165 11.25s.901-14.984-1.226-18.846a7.972 7.972 0 0 0-7.977-4.769 7.959 7.959 0 0 0-3.145.944 7.974 7.974 0 0 0-2.817 11.421Zm-18.886 32.641c3.157 3.066 17.838 6.199 17.838 6.199s-3.623-14.574-6.78-17.627a7.967 7.967 0 0 0-13.942 5.726 7.962 7.962 0 0 0 2.908 5.702h-.024Zm-14.001 34.248c2.593 3.544 16.551 9.123 16.551 9.123s-1.11-14.978-3.678-18.522a7.978 7.978 0 0 0-5.25-3.556 7.969 7.969 0 0 0-7.58 12.955h-.043Z"/>
    </g>
    <path fill="#4AB0BA" d="M248.508 47.497c1.226 3.776-2.097 16.921-2.097 16.921s-10.347-8.749-11.561-12.544a7.173 7.173 0 0 1 .275-5.637 7.175 7.175 0 0 1 7.128-4.008 7.18 7.18 0 0 1 6.255 5.268Zm-50.878 84.08c1.226 3.777-2.096 16.921-2.096 16.921s-10.359-8.748-11.573-12.525a7.175 7.175 0 0 1 2.189-7.673 7.167 7.167 0 0 1 5.231-1.682 7.171 7.171 0 0 1 4.888 2.51 7.172 7.172 0 0 1 1.361 2.449Zm107.186-37.062c1.226 3.777-2.103 16.922-2.103 16.922s-10.353-8.743-11.567-12.52a7.186 7.186 0 0 1 4.634-9.037 7.18 7.18 0 0 1 9.036 4.635Zm55.45 63.535c1.226 3.771-2.097 16.916-2.097 16.916s-10.359-8.743-11.585-12.52a7.166 7.166 0 0 1 .365-5.552 7.17 7.17 0 0 1 4.222-3.624 7.169 7.169 0 0 1 5.543.482 7.184 7.184 0 0 1 3.533 4.298h.019ZM322.849 53.714c-2.016 3.415-14.043 9.662-14.043 9.662s-.337-13.55 1.68-16.965a7.18 7.18 0 1 1 12.363 7.303ZM458.471 43.48c-2.017 3.416-14.043 9.663-14.043 9.663s-.331-13.555 1.685-16.964a7.19 7.19 0 0 1 4.395-3.408 7.175 7.175 0 0 1 8.827 5.216 7.18 7.18 0 0 1-.864 5.494Zm-273.1 26.315c-3.838 1-16.771-3.065-16.771-3.065s9.323-9.84 13.16-10.84a7.182 7.182 0 1 1 3.611 13.905Zm124.263 155.157c-2.017 3.415-14.043 9.662-14.043 9.662s-.338-13.549 1.679-16.964a7.177 7.177 0 0 1 11.92-.665 7.177 7.177 0 0 1 1.37 5.323 7.188 7.188 0 0 1-.926 2.644Z"/>
  </g>
  <defs>
    <linearGradient id="b" x1="131.502" x2="131.502" y1="485.764" y2="100.125" gradientUnits="userSpaceOnUse">
      <stop stop-color="gray" stop-opacity=".25"/>
      <stop offset=".54" stop-color="gray" stop-opacity=".12"/>
      <stop offset="1" stop-color="gray" stop-opacity=".1"/>
    </linearGradient>
    <clipPath id="a">
      <path fill="#fff" d="M0 0h638v490H0z"/>
    </clipPath>
  </defs>
</svg>
