<svg xmlns="http://www.w3.org/2000/svg" width="156" height="125" fill="none" viewBox="0 0 156 125">
  <g clip-path="url(#a)">
    <path fill="#996EC5" d="M28.107 82.363a1.33 1.33 0 0 1-1.175-.712l-1.274-2.46a1.309 1.309 0 0 1 .568-1.769L46.828 66.85a1.326 1.326 0 0 1 1.777.565l1.274 2.46a1.309 1.309 0 0 1-.568 1.769L28.71 82.216a1.315 1.315 0 0 1-.602.147Z"/>
    <path fill="#2F2E41" d="M35.58 72.777c.056.076.103.157.14.243l2.178 4.732a1.307 1.307 0 0 1-.673 1.732l-7.323 2.547a3.309 3.309 0 0 1-2.34-.063 3.288 3.288 0 0 1-1.706-1.595 3.262 3.262 0 0 1-.18-2.424 3.28 3.28 0 0 1 1.547-1.88l6.751-3.716a1.327 1.327 0 0 1 1.607.424Z"/>
    <path fill="#E6E6E6" d="M121.8 60.39H86.528a3.336 3.336 0 0 1-2.181-.82L69.819 46.816a2.734 2.734 0 0 0-1.807-.68H55.474V3.096a3.09 3.09 0 0 1 .911-2.188A3.12 3.12 0 0 1 58.583 0h60.108a3.12 3.12 0 0 1 2.198.907c.583.58.911 1.367.911 2.188V60.39Z"/>
    <path fill="#fff" d="M69.888 19.974c3.642 0 6.595-2.94 6.595-6.564 0-3.626-2.953-6.565-6.595-6.565s-6.595 2.94-6.595 6.565c0 3.625 2.953 6.564 6.595 6.564ZM95.515 9.893H83.267a.85.85 0 0 0-.848.844.842.842 0 0 0 .848.844h12.248a.842.842 0 1 0 0-1.688Zm17.78 5.345h-30.19c-.379 0-.686.379-.686.844 0 .465.307.844.686.844h30.19c.379 0 .686-.379.686-.844 0-.465-.307-.844-.686-.844Zm-2.373 11.3H66.351c-.362 0-.656.379-.656.844 0 .465.294.844.656.844h44.571c.362 0 .656-.379.656-.844 0-.465-.294-.844-.656-.844Zm0 5.252H66.351c-.362 0-.656.378-.656.843 0 .465.294.844.656.844h44.571c.362 0 .656-.379.656-.844 0-.465-.294-.844-.656-.844Zm0 5.25H66.351c-.362 0-.656.38-.656.845 0 .465.294.843.656.843h44.571c.362 0 .656-.378.656-.843 0-.466-.294-.844-.656-.844Zm0 5.252H66.351c-.362 0-.656.379-.656.844 0 .465.294.844.656.844h44.571c.362 0 .656-.38.656-.844 0-.465-.294-.844-.656-.844Z"/>
    <path fill="#996EC5" d="M151.007 60.39H86.528a3.285 3.285 0 0 1-1.806-.537l-.042-.028v-43.79c0-.82.328-1.607.911-2.187a3.12 3.12 0 0 1 2.198-.907h60.108a3.12 3.12 0 0 1 2.198.907 3.09 3.09 0 0 1 .912 2.187V60.39Z"/>
    <path fill="#fff" d="M99.095 32.914c3.642 0 6.595-2.938 6.595-6.564 0-3.625-2.953-6.564-6.595-6.564S92.5 22.726 92.5 26.35c0 3.626 2.953 6.564 6.595 6.564Zm25.626-10.08h-12.248a.841.841 0 0 0-.6 1.44.85.85 0 0 0 .6.248h12.248a.848.848 0 0 0 .848-.844.848.848 0 0 0-.848-.844Zm17.78 5.345h-30.19c-.379 0-.686.379-.686.844 0 .465.307.844.686.844h30.19c.379 0 .686-.379.686-.844 0-.465-.307-.844-.686-.844Zm-2.372 11.3h-44.57c-.363 0-.657.379-.657.844 0 .465.294.844.656.844h44.571c.362 0 .656-.38.656-.844 0-.465-.294-.844-.656-.844Zm0 5.251h-44.57c-.363 0-.657.379-.657.844 0 .465.294.844.656.844h44.571c.362 0 .656-.379.656-.844 0-.465-.294-.844-.656-.844Zm0 5.251h-44.57c-.363 0-.657.38-.657.844 0 .465.294.844.656.844h44.571c.362 0 .656-.379.656-.844 0-.465-.294-.844-.656-.844Zm0 5.252h-44.57c-.363 0-.657.378-.657.844 0 .465.294.843.656.843h44.571c.362 0 .656-.378.656-.843 0-.466-.294-.844-.656-.844Z"/>
    <path fill="#3F3D56" d="M152.797 59.921H86.528a2.824 2.824 0 0 1-1.869-.703l-5.61-4.923-8.92-7.83a3.207 3.207 0 0 0-2.118-.797H51.8a3.216 3.216 0 0 0-2.264.935 3.186 3.186 0 0 0-.94 2.253v72.956c.002.845.34 1.655.94 2.253.6.598 1.415.934 2.264.935h100.998a3.21 3.21 0 0 0 2.263-.935 3.183 3.183 0 0 0 .94-2.253V63.109a3.182 3.182 0 0 0-.94-2.253 3.213 3.213 0 0 0-2.263-.935Zm2.826 61.891a2.808 2.808 0 0 1-.829 1.988 2.838 2.838 0 0 1-1.997.825H51.799a2.839 2.839 0 0 1-1.998-.825 2.808 2.808 0 0 1-.828-1.988V48.856c0-.746.299-1.46.828-1.988a2.837 2.837 0 0 1 1.998-.825h16.212c.689 0 1.354.25 1.87.703l8.6 7.549 5.927 5.204a3.24 3.24 0 0 0 2.12.797h66.269a2.838 2.838 0 0 1 1.997.825 2.81 2.81 0 0 1 .829 1.988v58.703Z"/>
    <path fill="#996EC5" d="M19.456 71.191c5.57 0 10.084-4.494 10.084-10.037 0-5.544-4.515-10.038-10.084-10.038-5.57 0-10.085 4.494-10.085 10.038 0 5.543 4.515 10.037 10.085 10.037Zm-.081 53.7h-2.782a1.327 1.327 0 0 1-.932-.385 1.311 1.311 0 0 1-.387-.928v-23.071c0-.348.14-.682.387-.928s.583-.384.932-.385h2.782a1.315 1.315 0 0 1 1.319 1.313v23.071c0 .348-.14.682-.387.928a1.327 1.327 0 0 1-.932.385Zm6.029 0h-2.781a1.327 1.327 0 0 1-.933-.385 1.311 1.311 0 0 1-.386-.928v-23.071c0-.348.14-.682.387-.928s.582-.384.932-.385h2.78a1.315 1.315 0 0 1 1.32 1.313v23.071c0 .348-.14.682-.387.928a1.327 1.327 0 0 1-.932.385Z"/>
    <path fill="#2F2E41" d="M35.503 95.4c0 8.182-7.733 10.821-15.954 10.821-8.222 0-13.818-2.639-13.818-10.822s5.534-22.13 13.756-22.13c8.221 0 16.016 13.947 16.016 22.13ZM19.244 64.874l-.01-.375c.7-.02 1.319-.063 1.783-.401a1.156 1.156 0 0 0 .449-.85.657.657 0 0 0-.218-.542c-.308-.26-.804-.175-1.166-.01l-.311.142.598-4.35.373.051-.509 3.7c.492-.144.947-.082 1.259.18a1.026 1.026 0 0 1 .35.843 1.52 1.52 0 0 1-.603 1.139c-.596.434-1.372.456-1.995.473Zm5.375-6.015h-2.03v.375h2.03v-.375Zm-6.408 0h-2.03v.375h2.03v-.375Z"/>
    <path fill="#E6E6E6" d="M131.505 112.059H76.107a2.834 2.834 0 0 1-1.998-.825 2.808 2.808 0 0 1-.829-1.988V78.864c.001-.746.3-1.461.83-1.989a2.836 2.836 0 0 1 1.997-.825h55.398a2.838 2.838 0 0 1 1.997.825 2.81 2.81 0 0 1 .829 1.989v30.382a2.808 2.808 0 0 1-.829 1.988 2.834 2.834 0 0 1-1.997.825ZM76.107 76.425a2.462 2.462 0 0 0-1.732.715 2.436 2.436 0 0 0-.718 1.724v30.382c0 .646.26 1.266.718 1.723a2.46 2.46 0 0 0 1.732.715h55.398a2.46 2.46 0 0 0 1.731-.715 2.433 2.433 0 0 0 .718-1.723V78.864c0-.647-.259-1.267-.718-1.724a2.458 2.458 0 0 0-1.731-.715H76.107Z"/>
    <path fill="#E6E6E6" d="M85.057 93.867c3.642 0 6.595-2.939 6.595-6.564s-2.953-6.564-6.595-6.564-6.595 2.939-6.595 6.564 2.953 6.564 6.595 6.564Zm25.626-10.08H98.435a.85.85 0 0 0-.848.843c0 .224.09.439.248.597a.85.85 0 0 0 .6.248h12.248a.848.848 0 0 0 .848-.844.843.843 0 0 0-.848-.844Zm17.78 5.345h-30.19c-.379 0-.686.378-.686.844 0 .465.307.844.686.844h30.19c.379 0 .686-.38.686-.844 0-.466-.307-.844-.686-.844Zm-2.372 11.299H81.52c-.362 0-.656.379-.656.844 0 .465.294.844.656.844h44.571c.362 0 .656-.379.656-.844 0-.465-.294-.844-.656-.844Zm0 5.252H81.52c-.362 0-.656.379-.656.844 0 .465.294.844.656.844h44.571c.362 0 .656-.379.656-.844 0-.465-.294-.844-.656-.844Z"/>
    <path fill="#2F2E41" d="M11.408 58.396c.784-1.175 2.164-1.673 3.525-1.794 1.532-.137 3.012.157 4.507.443 1.646.314 3.388.608 5.046.21a4.985 4.985 0 0 0 2.005-.972 4.954 4.954 0 0 0 1.377-1.746 6.307 6.307 0 0 0 .37-4.223c-.388-1.498-1.353-2.816-2.522-3.812-2.387-2.031-5.617-2.944-8.723-2.858a14.792 14.792 0 0 0-8.55 2.992 13.815 13.815 0 0 0-4.927 7.684 14.346 14.346 0 0 0 .701 9.063c.68 1.57 1.663 2.985 2.422 4.515.706 1.425 1.25 3.08.81 4.67-.385 1.394-1.517 2.633-2.939 3.012-1.353.36-2.69-.23-3.432-1.395-.71-1.115-.728-2.576.34-3.477a2.623 2.623 0 0 1 2.976-.306c.31.17.583.403.801.682.433.56.627 1.266.54 1.967-.053.354.492.507.545.15a3.161 3.161 0 0 0-.399-2.15 3.186 3.186 0 0 0-1.701-1.385 3.203 3.203 0 0 0-2.197.04 3.184 3.184 0 0 0-1.649 1.445c-.643 1.204-.296 2.656.52 3.686a3.626 3.626 0 0 0 3.68 1.317c1.487-.342 2.703-1.518 3.275-2.9.637-1.539.345-3.256-.276-4.749-.67-1.614-1.667-3.061-2.455-4.616a13.103 13.103 0 0 1-1.34-4.493 14.16 14.16 0 0 1 2.036-9.003 13.266 13.266 0 0 1 7.311-5.53c2.978-.931 6.263-.902 9.179.241 2.872 1.127 5.646 3.581 5.613 6.879-.015 1.408-.54 2.844-1.624 3.784-1.295 1.122-3.099 1.218-4.727 1.043-1.638-.176-3.23-.653-4.875-.774-1.432-.106-2.976.004-4.254.712a4.245 4.245 0 0 0-1.478 1.364c-.201.302.288.584.489.284Z"/>
    <path fill="#996EC5" d="M8.503 105.44c-.067 0-.134-.005-.2-.015l-2.75-.416a1.32 1.32 0 0 1-.863-.521 1.309 1.309 0 0 1-.242-.975l3.488-22.808a1.316 1.316 0 0 1 1.503-1.1l2.75.416a1.313 1.313 0 0 1 1.105 1.496l-3.488 22.808a1.32 1.32 0 0 1-1.303 1.115Z"/>
    <path fill="#2F2E41" d="M11.788 89.896c-.094 0-.188-.01-.28-.03L6.382 88.84a1.321 1.321 0 0 1-1.02-1.048 1.307 1.307 0 0 1 .007-.513L7.6 79.885a3.28 3.28 0 0 1 1.427-1.847 3.307 3.307 0 0 1 4.376.841c.502.676.724 1.517.62 2.351l-.946 7.621a1.325 1.325 0 0 1-1.289 1.045Z"/>
    <path fill="#3F3D56" d="M36.152 125H6.568a.19.19 0 0 1-.188-.188.187.187 0 0 1 .188-.187h29.584a.19.19 0 0 1 .188.187.187.187 0 0 1-.188.188Z"/>
  </g>
  <defs>
    <clipPath id="a">
      <path fill="#fff" d="M0 0h156v125H0z"/>
    </clipPath>
  </defs>
</svg>
