<svg xmlns="http://www.w3.org/2000/svg" width="140" height="125" fill="none" viewBox="0 0 140 125">
  <g clip-path="url(#a)">
    <path fill="#E6E6E6" d="M100.734 112.212H32.058a8.785 8.785 0 0 1-6.209-2.583 8.83 8.83 0 0 1-2.576-6.225v-80.87a8.83 8.83 0 0 1 2.576-6.225 8.782 8.782 0 0 1 6.209-2.583H95.95l13.57 10.844v78.834a8.83 8.83 0 0 1-2.576 6.225 8.786 8.786 0 0 1-6.209 2.583Z"/>
    <path fill="#fff" d="M32.058 16.262a6.254 6.254 0 0 0-4.421 1.839 6.288 6.288 0 0 0-1.834 4.433v80.87a6.288 6.288 0 0 0 1.834 4.433 6.254 6.254 0 0 0 4.421 1.839h68.677a6.255 6.255 0 0 0 4.421-1.839 6.283 6.283 0 0 0 1.834-4.433V25.792l-11.924-9.53H32.058Z"/>
    <path fill="#CCC" d="M86.406 39.777H40.353A1.46 1.46 0 0 1 39 38.872a1.47 1.47 0 0 1 .793-1.918c.178-.073.368-.111.56-.11h46.053a1.46 1.46 0 0 1 1.462 1.466 1.469 1.469 0 0 1-1.462 1.467Zm6.034 4.95H40.353a1.46 1.46 0 0 1-1.351-.905 1.47 1.47 0 0 1 .792-1.917 1.46 1.46 0 0 1 .56-.111H92.44a1.46 1.46 0 0 1 1.352.905A1.47 1.47 0 0 1 93 44.615a1.46 1.46 0 0 1-.56.112Z"/>
    <path fill="#996EC5" d="M86.406 61.96H40.353A1.458 1.458 0 0 1 39 61.057a1.47 1.47 0 0 1 .793-1.918 1.46 1.46 0 0 1 .56-.11h46.053a1.461 1.461 0 0 1 1.462 1.466 1.461 1.461 0 0 1-1.463 1.467Z"/>
    <path fill="#CCC" d="M92.44 66.91H40.353a1.46 1.46 0 0 1-1.351-.905 1.47 1.47 0 0 1 .792-1.916 1.46 1.46 0 0 1 .56-.112H92.44a1.46 1.46 0 0 1 1.352.906A1.47 1.47 0 0 1 93 66.799a1.46 1.46 0 0 1-.56.112Zm-6.034 17.235H40.353a1.468 1.468 0 0 1 0-2.933h46.053a1.46 1.46 0 0 1 1.463 1.466 1.469 1.469 0 0 1-1.463 1.467Zm6.034 4.95H40.353A1.46 1.46 0 0 1 39 88.19a1.47 1.47 0 0 1 .793-1.917 1.46 1.46 0 0 1 .56-.111H92.44a1.468 1.468 0 0 1 0 2.933Z"/>
    <path fill="#E6E6E6" d="M109.254 24.919H98.626a2.918 2.918 0 0 1-2.069-.86 2.932 2.932 0 0 1-.857-2.073v-7.872a.184.184 0 0 1 .203-.182.182.182 0 0 1 .094.039l13.371 10.621a.184.184 0 0 1-.008.293.182.182 0 0 1-.106.034Z"/>
    <path fill="#fff" d="M42.53 20.68a20.17 20.17 0 0 1-3.384 11.186 20.09 20.09 0 0 1-9.011 7.414 20.029 20.029 0 0 1-11.6 1.146 20.062 20.062 0 0 1-10.281-5.51 20.149 20.149 0 0 1-5.495-10.308A20.182 20.182 0 0 1 3.9 12.977a20.12 20.12 0 0 1 7.395-9.035A20.04 20.04 0 0 1 22.451.549a20.058 20.058 0 0 1 14.196 5.898 20.166 20.166 0 0 1 5.883 14.234Z"/>
    <path fill="#996EC5" d="M31.731 24.125c-.22 12.876-19.32 12.874-19.538 0 .22-12.875 19.32-12.873 19.538 0Z"/>
    <path fill="#2F2E41" d="m21.575 28.122-.01-.366c2.515.337 3.057-2.79.52-1.621l.58-4.244.36.05-.492 3.61c2.672-.399 1.684 2.937-.958 2.57Zm5.205-5.87h-1.966v.366h1.967v-.366Zm-6.205 0h-1.967v.366h1.966v-.366Zm4.554 15.568c.383-2.593-2.645-2.08-4.248-2.106a1.734 1.734 0 0 0-1.684 1.337c-.06.252-.063.514-.01.767a9.492 9.492 0 0 0-3.375 1.867 20.114 20.114 0 0 0 12.856.143 9.444 9.444 0 0 0-3.54-2.008ZM17.37 19.493c1.81-1.05 4.005-.244 5.875.196 3.548 1.093 8.524-.276 8.955-4.514.45-3.941-4.928-6.138-6.647-2.215l.5-.066c-5.573-8.305-15.269-7.99-15.205 3.428-.02.353.527.352.548 0-.206-6.729 4.236-11.328 10.514-7.004 1.437 1.051 2.6 2.443 3.671 3.853.654.735.796-2.43 3.925-1.6 3.445 1.338 2.32 6.282-.758 7.368-3.803 1.948-7.923-1.83-11.655.08a.274.274 0 0 0 .276.474Z"/>
    <path fill="#CCC" d="M22.451 41.362a20.578 20.578 0 0 1-13.982-5.5A20.701 20.701 0 0 1 6.292 7.898 20.598 20.598 0 0 1 19.252.287a20.565 20.565 0 0 1 14.67 3.233 20.663 20.663 0 0 1 8.586 12.357 20.711 20.711 0 0 1-2.06 14.918 20.62 20.62 0 0 1-11.611 9.554 20.525 20.525 0 0 1-6.387 1.012Zm0-40.264c-3.863 0-7.64 1.148-10.853 3.3a19.574 19.574 0 0 0-7.195 8.79A19.634 19.634 0 0 0 3.29 24.503c.753 3.8 2.614 7.29 5.346 10.029a19.518 19.518 0 0 0 10.002 5.36c3.789.756 7.717.367 11.286-1.115a19.545 19.545 0 0 0 8.766-7.215 19.622 19.622 0 0 0 3.291-10.882 19.631 19.631 0 0 0-5.727-13.84A19.527 19.527 0 0 0 22.45 1.097Z"/>
    <path fill="#fff" d="M139.452 62.042c0 4.25-1.34 8.391-3.83 11.83a20.088 20.088 0 0 1-11.984 7.847c-.974.212-1.964.35-2.959.411a19.99 19.99 0 0 1-8.128-1.15 20.082 20.082 0 0 1-8.812-6.3 20.18 20.18 0 0 1-2.759-20.716 20.122 20.122 0 0 1 6.853-8.397 20.038 20.038 0 0 1 20.799-1.388 20.105 20.105 0 0 1 7.903 7.414 20.17 20.17 0 0 1 2.917 10.45Z"/>
    <path fill="#996EC5" d="M118.893 75.38c5.395 0 9.769-4.385 9.769-9.794 0-5.41-4.374-9.795-9.769-9.795-5.395 0-9.769 4.385-9.769 9.795s4.374 9.794 9.769 9.794Z"/>
    <path fill="#2F2E41" d="m119.464 70.863.01-.366c-.679-.019-1.278-.061-1.728-.391a1.13 1.13 0 0 1-.435-.829.65.65 0 0 1 .211-.53c.299-.252.779-.17 1.129-.01l.302.14-.579-4.245-.362.05.493 3.61c-.476-.14-.917-.08-1.219.176a1.002 1.002 0 0 0-.339.822 1.48 1.48 0 0 0 .584 1.112c.578.423 1.329.444 1.933.461Zm-3.24-5.87h-1.966v.366h1.966v-.366Zm6.206 0h-1.966v.366h1.966v-.366Zm-.762 14.286a1.74 1.74 0 0 0-1.694-2.105h-2.555a1.733 1.733 0 0 0-1.734 1.739c0 .124.013.247.04.368a9.785 9.785 0 0 0-2.703 1.341c-.161.112-.32.233-.471.359l.184.066a19.996 19.996 0 0 0 7.944 1.083 19.714 19.714 0 0 0 4.548-.827 9.88 9.88 0 0 0-3.559-2.024Z"/>
    <path fill="#2F2E41" d="M121.34 81.898a1.341 1.341 0 0 0-.66.232 19.67 19.67 0 0 0 2.958-.411l-2.298.179Zm6.412-18.639-16.97-6.225a.722.722 0 0 1-.411-.38.723.723 0 0 1-.024-.559l.058-.272c1.325-3.633 5.718-5.919 9.341-4.59l5.222 1.916c3.623 1.328 5.197 5.63 3.872 9.262l-.151.412a.732.732 0 0 1-.937.436Z"/>
    <path fill="#2F2E41" d="M128.667 63.604c-23.654.875-25.72-2.105-18.513-6.79l1.529-2.821 17.522 6.405-.538 3.206Zm-4.638-10.902c.131-.436-.428-.99-1.249-1.237-.821-.247-1.592-.094-1.722.341-.131.436.429.99 1.249 1.237.821.247 1.592.095 1.722-.341Z"/>
    <path fill="#CCC" d="M119.374 82.723a20.53 20.53 0 0 1-6.82-1.158l-.19-.068a20.64 20.64 0 0 1-10.876-9.15 20.728 20.728 0 0 1-2.401-14.03 20.692 20.692 0 0 1 7.21-12.263 20.593 20.593 0 0 1 13.407-4.685 20.594 20.594 0 0 1 13.25 5.112 20.72 20.72 0 0 1 3.968 26.434 20.632 20.632 0 0 1-11.162 8.797c-.13.041-.252.08-.376.117a20.285 20.285 0 0 1-4.671.85c-.44.03-.891.044-1.339.044Zm0-40.263a19.502 19.502 0 0 0-12.563 4.59 19.597 19.597 0 0 0-6.675 11.617 19.629 19.629 0 0 0 2.341 13.2 19.548 19.548 0 0 0 10.26 8.598l.181.064a19.432 19.432 0 0 0 7.724 1.053 19.217 19.217 0 0 0 4.779-.914 19.54 19.54 0 0 0 10.61-8.398 19.623 19.623 0 0 0-3.975-25.119 19.504 19.504 0 0 0-12.682-4.691Z"/>
    <path fill="#fff" d="M.548 104.319a20.114 20.114 0 0 0 5.903 14.259 20.023 20.023 0 0 0 8.617 5.09 20.112 20.112 0 0 0 12.197-.344l.228-.083a20.081 20.081 0 0 0 8.793-6.316 20.182 20.182 0 0 0 2.722-20.71 20.122 20.122 0 0 0-6.86-8.385 20.035 20.035 0 0 0-20.79-1.369 20.102 20.102 0 0 0-7.896 7.414 20.174 20.174 0 0 0-2.914 10.444Z"/>
    <path fill="#2F2E41" d="M16.386 114.187a6.249 6.249 0 0 1-1.607 4.223c-1.033 1.136-2.57 1.889-4.12 1.578-1.429-.287-2.59-1.539-2.445-3.053a2.264 2.264 0 0 1 1.815-2.053c.322-.064.653-.056.972.022 1.357.353 1.897 2.314.767 3.234-.272.221-.661-.165-.388-.388.748-.609.517-1.939-.385-2.273-1.05-.389-2.163.447-2.239 1.524-.09 1.276.886 2.237 2.082 2.464 1.294.244 2.577-.42 3.453-1.336a5.672 5.672 0 0 0 1.547-3.942.272.272 0 0 1 .083-.188.272.272 0 0 1 .381 0 .272.272 0 0 1 .084.188Z"/>
    <path fill="#996EC5" d="M21.733 117.677c5.395 0 9.768-4.385 9.768-9.795s-4.373-9.795-9.768-9.795c-5.396 0-9.77 4.385-9.77 9.795s4.374 9.795 9.77 9.795Z"/>
    <path fill="#2F2E41" d="m21.233 112.061-.01-.366c.679-.019 1.277-.061 1.727-.391a1.127 1.127 0 0 0 .435-.829.644.644 0 0 0-.21-.529c-.299-.253-.78-.171-1.13-.01l-.302.139.58-4.245.361.05-.493 3.61c.476-.14.917-.08 1.22.176a1.01 1.01 0 0 1 .339.822 1.493 1.493 0 0 1-.584 1.112c-.578.423-1.33.444-1.933.461Zm5.206-5.87h-1.966v.366h1.966v-.366Zm-6.206 0h-1.966v.366h1.966v-.366Zm-5.166 17.477a20.112 20.112 0 0 0 12.197-.344l.228-.083a9.702 9.702 0 0 0-3.094-1.603c.08-.281.078-.58-.003-.86a1.72 1.72 0 0 0-1.67-1.215h-2.38a1.719 1.719 0 0 0-1.666 1.213 1.56 1.56 0 0 0-.005.862 9.724 9.724 0 0 0-3.607 2.03Z"/>
    <path fill="#3F3D56" d="M29.386 106.843c0 1.651.81 3.02 1.863 3.258.108.024.217.036.327.036 1.207 0 2.19-1.477 2.19-3.294 0-1.054-.33-1.993-.843-2.595a2.105 2.105 0 0 0-.644-.525 1.511 1.511 0 0 0-.703-.174 1.6 1.6 0 0 0-.933.314c-.743.528-1.257 1.664-1.257 2.98Zm-19.532 0c0 1.42.6 2.632 1.439 3.095a1.549 1.549 0 0 0 .927.188c1.124-.133 2.015-1.554 2.015-3.283 0-1.385-.571-2.573-1.378-3.058a1.511 1.511 0 0 0-1.515-.062 2.11 2.11 0 0 0-.646.527c-.511.602-.842 1.541-.842 2.593Z"/>
    <path fill="#3F3D56" d="M11.43 109.622a.273.273 0 0 0 .27-.234.275.275 0 0 0-.011-.128 10.736 10.736 0 0 1 1.272-9.406 10.69 10.69 0 0 1 3.566-3.311 10.657 10.657 0 0 1 13.376 2.32 10.718 10.718 0 0 1 2.355 9.193.275.275 0 0 0 .318.327.275.275 0 0 0 .218-.213 11.284 11.284 0 0 0-2.475-9.666 11.227 11.227 0 0 0-4.128-3.021 11.199 11.199 0 0 0-9.935.581 11.237 11.237 0 0 0-3.75 3.482 11.275 11.275 0 0 0-1.336 9.889.274.274 0 0 0 .26.187Z"/>
    <path fill="#2F2E41" d="M26.64 101.536c.386.529.196 1.243-.212 1.699-.53.594-1.376.632-2.11.521-.824-.123-1.698-.51-2.532-.25-.711.223-1.219.869-1.957 1.032-.655.144-1.439-.047-1.668-.747-.11-.336.418-.48.528-.146.148.453.79.444 1.157.319.59-.201 1.043-.691 1.622-.924.683-.276 1.423-.151 2.118.006.655.148 1.409.367 2.061.091.483-.205.867-.849.52-1.324-.209-.285.266-.56.473-.277Z"/>
    <path fill="#CCC" d="M20.625 125a20.504 20.504 0 0 1-6.387-1.012 20.546 20.546 0 0 1-7.682-4.546 20.703 20.703 0 0 1-6.342-12.168 20.727 20.727 0 0 1 2.32-12.876 20.645 20.645 0 0 1 9.565-8.901 20.574 20.574 0 0 1 12.978-1.364 20.614 20.614 0 0 1 11.197 6.72 20.721 20.721 0 0 1 1.627 24.77 20.631 20.631 0 0 1-10.453 8.218A20.562 20.562 0 0 1 20.625 125Zm0-40.264a19.49 19.49 0 0 0-10.857 3.305 19.572 19.572 0 0 0-7.193 8.8 19.632 19.632 0 0 0-1.1 11.322 19.596 19.596 0 0 0 9.573 13.227 19.454 19.454 0 0 0 4.167 1.749 19.56 19.56 0 0 0 11.868-.334l.221-.079a19.545 19.545 0 0 0 10.235-8.612 19.627 19.627 0 0 0 2.32-13.192 19.597 19.597 0 0 0-6.68-11.602 19.502 19.502 0 0 0-12.554-4.584Z"/>
  </g>
  <defs>
    <clipPath id="a">
      <path fill="#fff" d="M0 0h140v125H0z"/>
    </clipPath>
  </defs>
</svg>
