<svg xmlns="http://www.w3.org/2000/svg" width="479" height="362" fill="none" viewBox="0 0 479 362">
  <g clip-path="url(#a)">
    <path fill="#3F3D56" d="M478.332 354.855H287.366a.668.668 0 0 1 0-1.335h190.966a.668.668 0 1 1 0 1.335Z"/>
    <path fill="#A0616A" d="M388.576 275.553c7.612 0 13.783-6.165 13.783-13.769 0-7.603-6.171-13.768-13.783-13.768-7.613 0-13.784 6.165-13.784 13.768 0 7.604 6.171 13.769 13.784 13.769Zm20.949 6.213s-25.253-4.484-41.527 1.121l4.77 37.839-1.123 6.166 33.671-1.121-2.245-6.167 6.454-37.838Z"/>
    <path fill="#CCC" d="M391.976 322.597a169.697 169.697 0 0 1-17.396-1.101 4.762 4.762 0 0 1-4.243-4.846l.409-17.696.048-.069c4.879-7.059 2.502-12.215.674-14.991a3.58 3.58 0 0 1-.59-1.974c-.281-.39-.344.227-.17-.213a1.41 1.41 0 0 1 1.031-.862l2.785-.556a1.404 1.404 0 0 1 1.604.925c.936 2.79 4.585 11.767 12.945 11.765 6.983-.001 9.589-9.872 9.746-12.153a1.403 1.403 0 0 1 1.398-1.302h3.48a1.471 1.471 0 0 1 1.16.524 1.393 1.393 0 0 1 .136 1.542c-3.971 7.293 1.833 18.833 1.892 18.948l.037.073-1.637 16.981a4.79 4.79 0 0 1-3.69 4.191c-2.532.595-5.953.814-9.619.814Z"/>
    <path fill="#2F2E41" d="M359.931 362c-3.771.001-7.224-.415-9.967-1.395-3.26-1.166-5.307-3.051-6.085-5.603a7.397 7.397 0 0 1 .902-6.544c4.823-7.214 21.56-9.247 23.806-9.489l1.19-9.904a4.79 4.79 0 0 1 4.662-4.196l28.189-.44a4.727 4.727 0 0 1 4.767 3.911l1.602 8.801-18.484 8.952 2.795 7.818-.182.121c-5.411 3.603-20.968 7.967-33.195 7.968Z"/>
    <path fill="#2F2E41" d="M406.438 335.861s25.814-3.364 24.131 10.09c-1.684 13.454-21.325 22.983-51.067 0l3.367-6.727s16.835 4.485 23.569 1.121v-4.484Z"/>
    <path fill="#A0616A" d="M383.43 340.906s0-6.727-5.612-6.166c-5.612.56-15.713 1.121-15.713 1.121s-3.367 2.242 1.123 3.363c4.489 1.121 17.957 6.727 17.957 6.727l2.245-5.045Zm9.54-1.121s0-6.727 5.612-6.166c5.612.56 15.713 1.121 15.713 1.121s3.367 2.242-1.123 3.363c-4.489 1.121-17.957 6.727-17.957 6.727l-2.245-5.045Z"/>
    <path fill="#A0616A" d="m426.596 338.511-8.373-28.997s-1.684-10.09-3.367-19.62c-1.684-9.529-7.857-8.408-7.857-8.408l-1.122.561v15.135l1.122 14.014 11.204 30.777a5.882 5.882 0 0 0 4.612 7.535 5.897 5.897 0 0 0 5.837-2.408 5.884 5.884 0 0 0-2.056-8.589Zm-56.634-55.904s-6.173-1.121-7.857 8.409c-1.683 9.529-3.367 19.619-3.367 19.619l-8.373 28.997a5.885 5.885 0 0 0-3.119 5.48 5.877 5.877 0 0 0 3.634 5.153 5.898 5.898 0 0 0 6.216-1.089 5.881 5.881 0 0 0 1.662-6.081l11.204-30.778 1.122-14.014v-13.882a2.026 2.026 0 0 0-1.122-1.814Z"/>
    <path fill="#2F2E41" d="M373.138 254.242c6.621 2.813 13.939 4.247 21.384 4.19l-2.394-2.096c1.646.377 3.356.524 5.069.436a6.234 6.234 0 0 0 2.44-.654 5.436 5.436 0 0 0 1.867-1.529 4.028 4.028 0 0 0 .579-2.062 3.898 3.898 0 0 0-.582-2.036c-.781-1.243-1.92-2.284-3.31-3.025-2.471-1.402-5.319-2.243-8.289-2.448a20.818 20.818 0 0 0-8.735 1.269c-1.9.667-3.558 1.779-4.784 3.21a5.061 5.061 0 0 0-1.133 2.426 4.611 4.611 0 0 0 .316 2.574"/>
    <path fill="#E6E6E6" d="M266.84 341.385H19.922a19.958 19.958 0 0 1-14.08-5.835A19.912 19.912 0 0 1 0 321.485V19.9A19.912 19.912 0 0 1 5.842 5.835 19.955 19.955 0 0 1 19.922 0H266.84a19.955 19.955 0 0 1 14.08 5.835 19.911 19.911 0 0 1 5.842 14.065v301.585a19.912 19.912 0 0 1-5.842 14.065 19.958 19.958 0 0 1-14.08 5.835Z"/>
    <path fill="#fff" d="M259.545 327.931H27.217a9.276 9.276 0 0 1-6.544-2.712 9.254 9.254 0 0 1-2.715-6.537V40.642a9.254 9.254 0 0 1 2.715-6.538 9.275 9.275 0 0 1 6.544-2.712h232.328a9.274 9.274 0 0 1 6.544 2.712 9.255 9.255 0 0 1 2.715 6.537v278.041a9.255 9.255 0 0 1-2.715 6.537 9.275 9.275 0 0 1-6.544 2.712Z"/>
    <path fill="#00BFA6" d="M185.879 130.313c-3.775-9.026-9.637-16.555-18.146-21.545-8.94-5.243-19.146-9.609-29.428-11.184a76.85 76.85 0 0 0-30.845 1.725c-4.848 1.254-10.193 2.711-14.283 5.715-3.91 2.871-6.587 7.594-8.767 11.837-2.089 4.065-3.391 8.542-2.26 13.094 1.041 4.196 3.954 7.69 7.286 10.32 2.976 2.348 7.139 5.457 11.12 4.002.226-.083.442-.192.643-.324 6.875 2.089 13.711-.95 20.768-3.329 4.289-1.446 8.602-2.177 12.909-.372 4.245 1.778 7.699 5.272 10.231 9.037 2.409 3.583 3.994 7.649 6.637 11.083a15.762 15.762 0 0 0 11.144 6.286c8.527.953 19.846.075 24.758-7.99 5.235-8.594 1.81-19.801-1.767-28.355Zm-87.048-13.2 3.794.43a14.028 14.028 0 0 0-6.54 3.063 16.617 16.617 0 0 0-1.976 1.973c.017-.058.027-.113.046-.171a8.82 8.82 0 0 1 4.676-5.295Zm42.463 8.068c.28.211.607.35.953.407.041.006.081.014.122.021.235.135.471.268.707.401-.027.037-.047.078-.072.116-.578-.06-1.157-.117-1.735-.175.041-.255.049-.513.025-.77Zm15.306 18.081a2.497 2.497 0 0 0-.336.443 21.55 21.55 0 0 1-.17-.247c.156-.092.328-.159.506-.196Zm9.885 10.687 1.72.226a2.161 2.161 0 0 0-.233.595c-.406.014-.816.02-1.226.022l-.261-.843Zm8.303-4.874.692-.118a2.526 2.526 0 0 0 1.011-.402c.001.041.005.082.006.122.005.138.018.31.036.507-.057.098-.114.197-.175.294l-1.57-.403Zm-29.483-30.456a3.283 3.283 0 0 0-.921-.541 39.73 39.73 0 0 0-4.977-1.555 19.728 19.728 0 0 1-.742-.733c1.428.282 2.84.641 4.229 1.075a49.352 49.352 0 0 1 5.233 2.011 69.083 69.083 0 0 0-2.822-.257Zm15.882 1.063a133.51 133.51 0 0 0-2.502-1.524c.86.484 1.708.992 2.544 1.523l-.042.001Zm17.124 7.807a59.67 59.67 0 0 0-7.345-7.515c.206-.472.309-.983.304-1.498a37.697 37.697 0 0 1 7.041 9.013Zm-31.936-22.222c-.351-.081-.702-.163-1.054-.242-3.338-.753-6.739-1.564-10.171-2.252.184.022.368.039.552.063a59.224 59.224 0 0 1 10.673 2.431Z"/>
    <path fill="#fff" d="M143.381 21.582a6.73 6.73 0 0 0 6.734-6.727 6.73 6.73 0 0 0-6.734-6.727 6.73 6.73 0 0 0-6.734 6.727 6.73 6.73 0 0 0 6.734 6.727Z"/>
    <path fill="#00BFA6" d="M74.894 279.393h-.008c-.248.001-.487.09-.675.251l-6.532 6.039v-5.89a.401.401 0 0 0-.4-.4h-1.617a.403.403 0 0 0-.4.4v14.116a.403.403 0 0 0 .117.282.403.403 0 0 0 .283.118h1.61a.402.402 0 0 0 .4-.4v-5.85l6.531 6.006c.189.159.429.245.675.244a1.063 1.063 0 0 0 1.076-1.043v-12.798a1.067 1.067 0 0 0-1.06-1.075Zm147.737.04h-1.578a.397.397 0 0 0-.4.4v5.857l-6.532-6.006a1.043 1.043 0 0 0-.683-.251v-.04a1.064 1.064 0 0 0-.757.307 1.081 1.081 0 0 0-.318.752v12.829a1.068 1.068 0 0 0 1.067 1.067h.008c.249.003.492-.083.683-.243l6.532-6.046v5.889a.405.405 0 0 0 .117.283.393.393 0 0 0 .13.086.38.38 0 0 0 .153.031h1.57a.386.386 0 0 0 .154-.028.396.396 0 0 0 .254-.364v-14.123a.397.397 0 0 0-.4-.4Zm-81.158.274h-3.195a1.57 1.57 0 0 0-1.57 1.569v11.715a1.57 1.57 0 0 0 1.57 1.569h3.195a1.57 1.57 0 0 0 1.57-1.569v-11.715a1.57 1.57 0 0 0-1.57-1.569Zm8.581 0h-3.219a1.567 1.567 0 0 0-1.57 1.569v11.715a1.572 1.572 0 0 0 1.57 1.569h3.219a1.573 1.573 0 0 0 1.57-1.569v-11.715a1.57 1.57 0 0 0-1.57-1.569Zm87.269-16.507H51.009a1.443 1.443 0 0 1-1.433-1.439 1.44 1.44 0 0 1 1.433-1.439h186.314a1.442 1.442 0 0 1 1.338.886 1.44 1.44 0 0 1-1.338 1.992Z"/>
    <path fill="#CCC" d="M106.386 266.337a4.589 4.589 0 0 1-4.241-2.82 4.583 4.583 0 0 1 .986-4.993 4.587 4.587 0 0 1 7.832 3.225v.008a4.58 4.58 0 0 1-4.577 4.58Z"/>
    <path fill="#CCC" d="M105.024 263.96H50.2a2.2 2.2 0 0 1 0-4.398h54.824a1.157 1.157 0 0 1 1.154 1.152v2.094a1.156 1.156 0 0 1-1.154 1.152Z"/>
    <path fill="#3F3D56" d="M149.277 200.561c-3.177-.089-7.132-.2-10.177-2.422a7.803 7.803 0 0 1-3.075-5.829 5.249 5.249 0 0 1 1.787-4.313c1.592-1.343 3.915-1.659 6.419-.923l-2.594-18.938 1.904-.26 3.05 22.263-1.59-.729c-1.844-.845-4.375-1.274-5.948.053a3.373 3.373 0 0 0-1.107 2.779 5.897 5.897 0 0 0 2.288 4.347c2.37 1.73 5.522 1.953 9.097 2.053l-.054 1.919Zm-17.058-30.792h-10.352v1.92h10.352v-1.92Zm32.676 0h-10.352v1.92h10.352v-1.92Zm-61.014-26.513c-8.336-.95-14.793-8.928-15.502-17.024-.844-9.631 4.771-18.778 12.475-24.183 8.055-5.652 18.092-8.012 27.803-8.531a76.468 76.468 0 0 1 52.232 17.197c7.277 6.037 14.073 13.727 16.648 23.016 2.237 8.067.417 17.205-6.078 22.855a15.369 15.369 0 0 1-11.783 3.624c-5.039-.523-9.689-3.17-13.714-6.093-7.83-5.687-14.258-13.609-23.797-16.58-6.994-2.179-16.071-.261-20.345 6.057a11.494 11.494 0 0 0-1.838 4.818 1.49 1.49 0 0 0 1.007 1.771 1.448 1.448 0 0 0 1.773-1.005c1.122-7.958 10.918-10.928 17.792-9.11 10.022 2.649 16.75 11.583 24.973 17.259 4.324 2.984 9.241 5.371 14.544 5.799a18.075 18.075 0 0 0 12.689-3.894c7.025-5.541 9.711-15.072 8.158-23.653-1.799-9.936-8.494-18.452-15.84-25.046a79.29 79.29 0 0 0-54.15-19.982c-10.162.233-20.765 2.329-29.52 7.694-8.491 5.204-15.055 13.911-15.913 24.031-.755 8.908 4.03 18.225 12.243 22.128a19.185 19.185 0 0 0 6.143 1.732c1.84.21 1.825-2.672 0-2.88Z"/>
  </g>
  <defs>
    <clipPath id="a">
      <path fill="#fff" d="M0 0h479v362H0z"/>
    </clipPath>
  </defs>
</svg>
