<svg xmlns="http://www.w3.org/2000/svg" width="130" height="130" fill="none" viewBox="0 0 176 176">
  <circle cx="88" cy="88" r="88" fill="#4AB0BA"/>
  <path fill="#FBFBFB" d="M80.144 69h6.054v26.309c0 2.8-.657 5.28-1.972 7.441-1.316 2.148-3.165 3.841-5.547 5.078-2.383 1.224-5.176 1.836-8.38 1.836-3.19 0-5.976-.612-8.359-1.836-2.382-1.237-4.231-2.93-5.546-5.078-1.316-2.161-1.973-4.642-1.973-7.441V69h6.035v25.82c0 1.81.397 3.418 1.191 4.825.808 1.406 1.947 2.513 3.418 3.32 1.472.794 3.217 1.191 5.235 1.191 2.031 0 3.782-.397 5.254-1.191 1.484-.807 2.617-1.914 3.398-3.32.794-1.407 1.192-3.015 1.192-4.825V69Zm36.645 10.508c-.208-1.85-1.068-3.281-2.578-4.297-1.51-1.029-3.412-1.543-5.703-1.543-1.641 0-3.06.26-4.258.781-1.198.508-2.129 1.211-2.793 2.11-.651.885-.977 1.894-.977 3.027 0 .95.222 1.77.665 2.46a5.953 5.953 0 0 0 1.777 1.74c.742.455 1.536.839 2.383 1.151.846.3 1.66.547 2.441.743l3.906 1.015c1.276.313 2.585.736 3.926 1.27a15.748 15.748 0 0 1 3.731 2.11 10.113 10.113 0 0 1 2.773 3.241c.716 1.29 1.074 2.832 1.074 4.63 0 2.265-.586 4.277-1.758 6.034-1.158 1.758-2.845 3.145-5.058 4.161-2.201 1.015-4.863 1.523-7.988 1.523-2.995 0-5.586-.475-7.774-1.426-2.187-.95-3.9-2.298-5.137-4.043-1.237-1.758-1.92-3.841-2.05-6.25h6.054c.118 1.446.586 2.65 1.407 3.614.833.95 1.894 1.66 3.183 2.128 1.302.456 2.728.684 4.278.684 1.705 0 3.222-.267 4.55-.801 1.341-.547 2.396-1.302 3.164-2.265.769-.977 1.153-2.116 1.153-3.418 0-1.185-.339-2.155-1.016-2.91-.664-.756-1.569-1.38-2.715-1.875-1.133-.495-2.415-.931-3.847-1.309l-4.727-1.29c-3.203-.871-5.742-2.154-7.617-3.847-1.862-1.693-2.793-3.932-2.793-6.719 0-2.304.625-4.316 1.875-6.035 1.25-1.718 2.943-3.053 5.078-4.004 2.135-.963 4.544-1.445 7.227-1.445 2.708 0 5.097.475 7.168 1.426 2.083.95 3.723 2.259 4.921 3.926 1.198 1.653 1.823 3.554 1.875 5.703h-5.82Z"/>
</svg>
