<?xml version="1.0" encoding="utf-8"?>
<!-- Generator: Adobe Illustrator 24.1.3, SVG Export Plug-In . SVG Version: 6.00 Build 0)  -->
<svg version="1.1" id="Layer_1" xmlns="http://www.w3.org/2000/svg" xmlns:xlink="http://www.w3.org/1999/xlink" x="0px" y="0px"
	 viewBox="0 0 151.2 112.1" style="enable-background:new 0 0 151.2 112.1;" xml:space="preserve">
<style type="text/css">
	.st0{fill:#0FA3B1;}
</style>
<path class="st0" d="M150.6,0.2l-1.5,0.9L148.9,1l-1.2,1l-22.9,13.7l-0.1,0l0,0l0,0l-27.1,7.6l-15.1-2.7L80.3,9.4l1.1-3.3l3.4-0.9
	h3.3l-3.5-3h-5.7l-14,7.6l8-0.7L73,9.5v0l-4.2,11l-15.3,2.8l-27.1-7.6l-0.1-0.1l-0.1,0h-0.1L3.5,2L2.2,1L2,1.2L0.5,0.3l14.9,25.9v0
	h0l3.2,5.5l0.1,0.1l19.5,10.4l0,0l29,6.3l0,0.1l0.1,0l0.3,0.1l0.2,0.1l3.3-5.4l1.2,10.9l-5.2,24.9l1.9-3.3l0,0v0l4.7-8.2l1.9,18.2
	l0.7-6h0v-0.4l1.3-12.1l4.8,8.3l0,0l0,0l1.9,3.3l-5.2-24.9l1.2-10.9l3.3,5.4l0.5-0.1l0,0l0,0l28.8-6.3l0.1,0l19.5-10.4l0.1-0.1
	l3.2-5.6h0v-0.1L150.6,0.2z M125.5,16.4L142.9,6l-22.8,19.3L125.5,16.4z M124,16.9l-6.5,10.8l-18-3.9L124,16.9z M81.6,20.7l-5.1,4.1
	l3.2-13.4L81.6,20.7z M79.2,9.1h-5.3l-0.1-0.2l6.4-2.3L79.4,9L79.2,9.1L79.2,9.1z M69.7,8.3l9.4-5.1h5l1.2,1h-0.6l-3.8,1l-0.2,0.1
	l0,0l0,0L73.2,8L69.7,8.3z M73.2,11.6L74.8,25l-5.1-4.3L73.2,11.6z M51.6,23.8l-18,3.9l-6.5-10.7L51.6,23.8z M25.6,16.5l5.3,8.9
	L8.1,6L25.6,16.5z M3.5,3.4l27.9,23.7L16,25.2L3.5,3.4z M16.6,26.3l14.9,1.8l-12.3,2.7L16.6,26.3z M20.3,31.6l31.6-6.8L38.2,41.2
	L20.3,31.6z M39.3,41.5l13.9-16.7l13.3,22.6L39.3,41.5z M67.5,47.2L54,24.2l14.6-2.7l2.2,20.2L67.5,47.2z M72.5,57.6l0.2,2.3l-2.2,7
	L72.5,57.6z M70.3,71.3l2.7-8.8l0.4,3.4L70.3,71.3z M75.1,73.1l-0.7-7l0.1-0.3l-0.2-0.1L73.8,60l0.1-0.2l-0.1,0l-0.6-5.5l0-0.2h-0.1
	l-3.4-32l5.4,4.5L75.1,73.1L75.1,73.1z M75.7,23.7l-1.6-13.5l4.9,0L75.7,23.7z M77.7,65.7l0.4-3.4l2.8,9L77.7,65.7z M80.5,66.8
	l-2.2-7.1l0.2-2.2L80.5,66.8z M79.3,42L78,54.1h-0.1l0,0.2l-0.6,5.5h0v0l-0.6,5.9l-0.1,0.1l0.1,0.1l-0.5,4.4V26.4l5.4-4.3L79.3,42
	L79.3,42L79.3,42z M83.7,47.2l-3.3-5.4l1.3-11.6l1-8.6l14.5,2.6L83.7,47.2z M84.7,47.4l13.2-22.6l13.9,16.7L84.7,47.4z M112.9,41.1
	L99.2,24.7l31.6,6.8L112.9,41.1z M131.9,30.8l-12.3-2.7l14.9-1.8L131.9,30.8z M135.1,25.2l-15.4,1.8l28-23.7L135.1,25.2z"/>
<g>
	<path class="st0" d="M66.2,101.8h-8c0,1.4-0.4,2.5-1.3,3.3c-0.9,0.8-2.1,1.2-3.7,1.3l0.9-1c0.5-0.7,0.7-1.3,0.7-2
		c0-0.5-0.2-1.2-0.8-2.1l-1.1-2c-0.4-0.8-0.6-1.5-0.6-1.9c0-0.7,0.3-1.3,0.8-1.8l6.8-6.9c-0.3,0.8-0.4,1.5-0.4,2.2
		c0,0.5,0.4,1.5,1.1,2.9l2.7,5.3h2.8L66.2,101.8L66.2,101.8z M59.7,99l-1.3-2.5c-0.4-0.8-0.6-1.4-0.6-1.8c0,0-0.1,0.1-0.2,0.2
		c-0.1,0.1-0.3,0.3-0.4,0.4c-0.1,0.2-0.3,0.3-0.4,0.5c-0.1,0.2-0.2,0.3-0.2,0.4c0,0.3,0.1,0.7,0.3,1.1l0.9,1.7c0.2,0,0.4,0,0.5,0
		s0.3,0,0.5,0s0.3,0,0.4,0C59.4,99.1,59.6,99,59.7,99z"/>
	<path class="st0" d="M76.7,101.8h-3c-0.1,0.1-0.2,0.3-0.4,0.5c-0.2,0.2-0.4,0.4-0.6,0.6l-2.9,2.7c-0.1-0.3-0.2-0.7-0.5-1.2
		c-0.3-0.5-0.6-0.9-0.9-1.3s-0.7-0.7-1.1-1c-0.4-0.3-0.7-0.4-1-0.4h-1.3v-2.8h1.2c0.5,0,1.2,0.6,2.3,1.7l1.9,2
		c0.2-0.3,0.3-0.6,0.3-0.9c0-0.2-0.2-0.8-0.6-1.6l-0.8-1.7c-0.6-1.3-0.9-2.2-0.9-2.6c0-0.8,0.3-1.5,0.9-2.2l2.3-2.2
		c-0.2,0.6-0.3,1.1-0.3,1.5c0,0.5,0.3,1.2,0.8,2.3l1.2,2.5c0.1,0.3,0.2,0.5,0.4,0.7c0.1,0.2,0.2,0.4,0.2,0.5h2.7L76.7,101.8
		L76.7,101.8L76.7,101.8z M69.1,107.9c0,0.3-0.3,1-1,2c-0.5-0.6-1.1-1.1-1.9-1.4c-0.5-0.2-0.8-0.5-0.8-0.9c0-0.3,0.7-1.1,2.2-2.2
		c0,0.2,0.1,0.5,0.3,0.7c0.2,0.2,0.3,0.5,0.5,0.7c0.2,0.2,0.3,0.4,0.5,0.6C69,107.5,69.1,107.7,69.1,107.9z M73.4,107.9
		c0,0.3-0.3,1-1,2c-0.5-0.6-1.1-1.1-1.9-1.4c-0.5-0.2-0.8-0.5-0.8-0.9c0-0.3,0.7-1.1,2.2-2.2c0,0.2,0.1,0.5,0.3,0.7
		c0.2,0.2,0.3,0.5,0.5,0.7c0.2,0.2,0.3,0.4,0.5,0.6C73.4,107.5,73.4,107.7,73.4,107.9z"/>
	<path class="st0" d="M89.1,101.8H75.4V99h1.8l-0.3-0.7c-0.2-0.4-0.3-0.7-0.3-1c0-0.7,0.3-1.3,0.8-1.8l6.8-6.9
		c-0.3,0.8-0.4,1.5-0.4,2.2c0,0.5,0.4,1.5,1.1,2.9L89.1,101.8z M83.8,99l-1.3-2.5c-0.4-0.8-0.6-1.4-0.6-1.8c0,0-0.1,0.1-0.2,0.2
		c-0.1,0.1-0.3,0.3-0.4,0.4c-0.1,0.2-0.3,0.3-0.4,0.5s-0.2,0.3-0.2,0.4c0,0.3,0.1,0.7,0.3,1.1l0.9,1.7c0.2,0,0.4,0,0.5,0
		s0.3,0,0.5,0c0.2,0,0.3,0,0.4,0C83.6,99.1,83.7,99,83.8,99z"/>
	<path class="st0" d="M98.7,98.7c0,1-0.5,1.9-1.5,2.9l-7.7,7.5c-1.2,1.1-2.6,1.7-4.4,1.7c-0.5,0-0.8-0.1-1.2-0.2
		c0.7-0.2,1.3-0.5,2-0.9s1.5-1,2.3-1.8l5.6-5.5c1-0.9,1.5-1.7,1.5-2.3c0-0.1-0.3-0.8-0.9-2l-0.8-1.7c-0.6-1.3-0.9-2.2-0.9-2.6
		c0-0.8,0.3-1.5,0.9-2.2l2.3-2.2c-0.2,0.6-0.3,1.1-0.3,1.5c0,0.5,0.3,1.2,0.8,2.3l1.2,2.5C98.4,97,98.7,98,98.7,98.7z"/>
</g>
</svg>
