<?xml version="1.0" encoding="utf-8"?>
<!-- Generator: Adobe Illustrator 24.1.3, SVG Export Plug-In . SVG Version: 6.00 Build 0)  -->
<svg version="1.1" id="Layer_1" xmlns="http://www.w3.org/2000/svg" xmlns:xlink="http://www.w3.org/1999/xlink" x="0px" y="0px"
	 viewBox="0 0 151.2 89.3" style="enable-background:new 0 0 151.2 89.3;" xml:space="preserve">
<style type="text/css">
	.st0{fill:#0FA3B1;}
</style>
<path class="st0" d="M150.6,1.9l-1.5,0.9l-0.2-0.2l-1.2,1l-22.9,13.7l-0.1,0l0,0l0,0l-27.1,7.6l-15.1-2.7L80.3,11l1.1-3.3l3.4-0.9
	h3.3l-3.5-3h-5.7l-14,7.6l8-0.7l0.1,0.4v0l-4.2,11l-15.3,2.8l-27.1-7.6l-0.1-0.1l-0.1,0h-0.1L3.5,3.7L2.2,2.6L2,2.8L0.5,1.9
	l14.9,25.9v0h0l3.2,5.5l0.1,0.1l19.5,10.4l0,0l29,6.3l0,0.1l0.1,0l0.3,0.1l0.2,0.1L71,45l1.2,10.9l-5.2,24.9l1.9-3.3l0,0v0l4.7-8.2
	l1.9,18.2l0.7-6h0v-0.3l1.3-12.1l4.8,8.3l0,0l0,0l1.9,3.3l-5.2-24.9L80.1,45l3.3,5.4l0.5-0.1l0,0l0,0l28.8-6.3l0.1,0l19.5-10.4
	l0.1-0.1l3.2-5.6h0v-0.1L150.6,1.9z M125.5,18l17.4-10.4l-22.8,19.3L125.5,18z M124,18.5l-6.5,10.8l-18-3.9L124,18.5z M81.6,22.3
	l-5.1,4.1L79.7,13L81.6,22.3z M79.2,10.7h-5.3l-0.1-0.2l6.4-2.3l-0.8,2.5L79.2,10.7L79.2,10.7z M69.7,9.9l9.4-5.1h5l1.2,1h-0.6
	l-3.8,1l-0.2,0.1l0,0l0,0l-7.4,2.7L69.7,9.9z M73.2,13.3l1.6,13.4l-5.1-4.3L73.2,13.3z M51.6,25.4l-18,3.9l-6.5-10.7L51.6,25.4z
	 M25.6,18.1L31,27L8.1,7.6L25.6,18.1z M3.5,5l27.9,23.7L16,26.9L3.5,5z M16.6,28l14.9,1.8l-12.3,2.7L16.6,28z M20.3,33.2l31.6-6.8
	L38.2,42.8L20.3,33.2z M39.3,43.1l13.9-16.7L66.4,49L39.3,43.1z M67.5,48.8L54,25.8l14.6-2.7l2.2,20.2L67.5,48.8z M72.5,59.2
	l0.2,2.3l-2.2,7L72.5,59.2z M70.3,72.9l2.7-8.8l0.4,3.4L70.3,72.9z M75.1,74.7l-0.7-7l0.1-0.3l-0.2-0.1l-0.6-5.7l0.1-0.2l-0.1,0
	l-0.6-5.5l0-0.2h-0.1l-3.4-32l5.4,4.5L75.1,74.7L75.1,74.7z M75.7,25.3l-1.6-13.5l4.9,0L75.7,25.3z M77.7,67.4l0.4-3.4l2.8,9
	L77.7,67.4z M80.5,68.4l-2.2-7.1l0.2-2.2L80.5,68.4z M79.3,43.6L78,55.8h-0.1l0,0.2l-0.6,5.5h0v0l-0.6,5.9l-0.1,0.1l0.1,0.1
	l-0.5,4.4V28l5.4-4.3L79.3,43.6L79.3,43.6L79.3,43.6z M83.7,48.8l-3.3-5.4l1.3-11.6l1-8.6l14.5,2.6L83.7,48.8z M84.7,49l13.2-22.6
	l13.9,16.7L84.7,49z M112.9,42.8L99.2,26.4l31.6,6.8L112.9,42.8z M131.9,32.4l-12.3-2.7l14.9-1.8L131.9,32.4z M135.1,26.9l-15.4,1.8
	l28-23.7L135.1,26.9z"/>
</svg>
