<svg xmlns="http://www.w3.org/2000/svg" width="189" height="190" fill="none" viewBox="0 0 189 190">
  <path fill="#000" d="M188.471 19.611A18.867 18.867 0 0 0 169.624.764H18.847A18.749 18.749 0 0 0 6.423 5.475c-.315.254-.616.524-.903.81a11.36 11.36 0 0 0-.81.903A18.749 18.749 0 0 0 0 19.612v150.777a18.867 18.867 0 0 0 18.847 18.847h150.777a18.75 18.75 0 0 0 12.424-4.711 10.92 10.92 0 0 0 1.712-1.713 18.743 18.743 0 0 0 4.711-12.423V19.611Zm-22.616 131.016L38.609 23.381h127.246v127.246ZM22.617 39.373 149.862 166.62H22.617V39.373Z"/>
</svg>
