<svg xmlns="http://www.w3.org/2000/svg" width="60" height="61" fill="none" viewBox="0 0 80 80">
  <circle cx="40" cy="40" r="40" fill="#4AB0BA"/>
  <path fill="#FBFBFB" d="M37.001 31.546h2.643v11.48c0 1.221-.288 2.303-.861 3.247-.574.937-1.381 1.676-2.42 2.216-1.04.534-2.26.8-3.657.8-1.392 0-2.608-.266-3.648-.8-1.04-.54-1.846-1.279-2.42-2.216-.574-.944-.861-2.026-.861-3.247v-11.48h2.633v11.267c0 .79.174 1.491.52 2.105a3.79 3.79 0 0 0 1.492 1.449c.642.346 1.403.52 2.284.52.886 0 1.65-.174 2.293-.52a3.645 3.645 0 0 0 1.482-1.45c.347-.613.52-1.315.52-2.105V31.547Zm15.991 4.585c-.09-.807-.466-1.432-1.125-1.875-.659-.45-1.488-.674-2.488-.674-.716 0-1.336.114-1.858.341-.523.222-.93.529-1.22.92a2.173 2.173 0 0 0-.425 1.322c0 .415.096.773.29 1.074a2.6 2.6 0 0 0 .775.758c.324.199.67.367 1.04.503.37.13.724.239 1.065.324l1.705.443c.556.136 1.128.321 1.713.554.585.233 1.128.54 1.628.92.5.381.903.853 1.21 1.415.312.563.469 1.236.469 2.02 0 .989-.256 1.867-.767 2.634-.506.767-1.242 1.372-2.208 1.815-.96.443-2.122.665-3.486.665-1.306 0-2.437-.208-3.392-.622-.954-.415-1.701-1.003-2.241-1.765-.54-.767-.838-1.676-.895-2.727h2.642c.051.63.256 1.156.614 1.577a3.31 3.31 0 0 0 1.389.929c.568.199 1.19.298 1.866.298.745 0 1.407-.116 1.986-.35.585-.238 1.046-.568 1.38-.988.336-.426.504-.923.504-1.491 0-.518-.148-.94-.444-1.27-.29-.33-.684-.603-1.184-.819a11.57 11.57 0 0 0-1.68-.57l-2.062-.563c-1.397-.38-2.505-.94-3.324-1.679-.812-.739-1.218-1.716-1.218-2.932 0-1.005.272-1.883.818-2.633.545-.75 1.284-1.333 2.216-1.748.932-.42 1.983-.63 3.153-.63 1.182 0 2.225.207 3.128.622.91.415 1.625.986 2.148 1.713.523.722.795 1.551.818 2.489h-2.54Z"/>
</svg>
